STARTFONT 2.1
COMMENT
COMMENT Converted from OpenType font "Montserrat-Medium.otf" by "otf2bdf 3.0".
COMMENT
FONT -FreeType-Montserrat Medium-Medium-R-Normal--41-140-210-210-P-225-ISO10646-1
SIZE 14 210 210
FONTBOUNDINGBOX 100 55 -34 -11
STARTPROPERTIES 19
FOUNDRY "FreeType"
FAMILY_NAME "Montserrat Medium"
WEIGHT_NAME "Medium"
SLANT "R"
SETWIDTH_NAME "Normal"
ADD_STYLE_NAME ""
PIXEL_SIZE 41
POINT_SIZE 140
RESOLUTION_X 210
RESOLUTION_Y 210
SPACING "P"
AVERAGE_WIDTH 225
CHARSET_REGISTRY "ISO10646"
CHARSET_ENCODING "1"
FONT_ASCENT 39
FONT_DESCENT 10
COPYRIGHT "Copyright 2011 The Montserrat Project Authors (https://github.com/JulietaUla/Montserrat)"
_OTF_FONTFILE "Montserrat-Medium.otf"
_OTF_PSNAME "Montserrat-Medium"
ENDPROPERTIES
CHARS 969
STARTCHAR 0000
ENCODING 0
SWIDTH 0 0
DWIDTH 0 0
BBX 0 0 0 0
BITMAP
ENDCHAR
STARTCHAR 000D
ENCODING 13
SWIDTH 269 0
DWIDTH 11 0
BBX 0 0 0 0
BITMAP
ENDCHAR
STARTCHAR 0020
ENCODING 32
SWIDTH 269 0
DWIDTH 11 0
BBX 0 0 0 0
BITMAP
ENDCHAR
STARTCHAR 0021
ENCODING 33
SWIDTH 269 0
DWIDTH 11 0
BBX 5 29 3 0
BITMAP
F8
F8
F8
F8
F8
F8
F8
F8
F0
70
70
70
70
70
70
70
70
70
70
70
00
00
00
00
70
F8
F8
F8
70
ENDCHAR
STARTCHAR 0022
ENCODING 34
SWIDTH 391 0
DWIDTH 16 0
BBX 10 11 3 18
BITMAP
E1C0
E1C0
E1C0
E1C0
E1C0
E1C0
E1C0
E1C0
E1C0
E1C0
E1C0
ENDCHAR
STARTCHAR 0023
ENCODING 35
SWIDTH 710 0
DWIDTH 29 0
BBX 27 29 1 0
BITMAP
00E01C00
00E01C00
00E01C00
00E01800
00E03800
00E03800
00C03800
7FFFFFE0
7FFFFFE0
7FFFFFE0
01C03800
01C03000
01C07000
01C07000
01C07000
03807000
03807000
03807000
03807000
FFFFFF80
FFFFFF80
FFFFFF80
0380E000
0300E000
0700E000
0700E000
0700E000
0700E000
0700C000
ENDCHAR
STARTCHAR 0024
ENCODING 36
SWIDTH 612 0
DWIDTH 25 0
BBX 22 41 2 -6
BITMAP
003000
003000
003000
003000
003000
01FF00
0FFFE0
1FFFF0
3FFFF0
7E30F0
783020
783000
F03000
F03000
F83000
783000
7C3000
7F3000
3FF000
1FFE00
07FF80
01FFE0
003FF0
0033F8
0030F8
003078
00307C
00303C
00303C
403078
603078
F830F8
FFBFF0
7FFFE0
1FFFC0
03FE00
003000
003000
003000
003000
003000
ENDCHAR
STARTCHAR 0025
ENCODING 37
SWIDTH 832 0
DWIDTH 34 0
BBX 31 29 2 0
BITMAP
0F8001C0
3FC003C0
79E00380
E0700700
E0300F00
C0380E00
C0381C00
C0383800
C0383800
C0387000
E030E000
E070E000
70F1C000
3FE38000
1F8387F0
00070FF8
000E1C3C
000E381C
001C380E
0038300E
0038300E
0070300E
00E0300E
00E0380E
01C0380C
03801C1C
03801E78
07000FF0
0E0003E0
ENDCHAR
STARTCHAR 0026
ENCODING 38
SWIDTH 685 0
DWIDTH 28 0
BBX 25 30 2 -1
BITMAP
00FC0000
03FF0000
07FF8000
0F83C000
0F03C000
1E01C000
1E01C000
1E01C000
0F03C000
0F078000
0F8F0000
07FE0000
03FC0000
01F80000
07F80000
0FFC0000
1E3E0600
3C1F0700
780F8F00
F007CE00
F003FE00
F001FE00
F000FC00
F0007C00
F8007C00
7C01FE00
7F0FEF00
3FFFC780
0FFF0380
03FC0100
ENDCHAR
STARTCHAR 0027
ENCODING 39
SWIDTH 220 0
DWIDTH 9 0
BBX 3 11 3 18
BITMAP
E0
E0
E0
E0
E0
E0
E0
E0
E0
E0
E0
ENDCHAR
STARTCHAR 0028
ENCODING 40
SWIDTH 342 0
DWIDTH 14 0
BBX 8 38 4 -8
BITMAP
0F
0F
1E
1E
1C
3C
3C
78
78
78
78
70
F0
F0
F0
F0
F0
F0
F0
F0
F0
F0
F0
F0
F0
F0
70
78
78
78
78
3C
3C
3C
1E
1E
0F
0F
ENDCHAR
STARTCHAR 0029
ENCODING 41
SWIDTH 342 0
DWIDTH 14 0
BBX 8 38 2 -8
BITMAP
E0
F0
78
78
78
3C
3C
1C
1E
1E
1E
1E
0E
0F
0F
0F
0F
0F
0F
0F
0F
0F
0F
0F
0F
0E
0E
1E
1E
1E
1C
3C
3C
38
78
70
F0
E0
ENDCHAR
STARTCHAR 002A
ENCODING 42
SWIDTH 391 0
DWIDTH 16 0
BBX 14 15 1 15
BITMAP
0300
0300
0300
E31C
FB7C
3FF8
0FE0
0FC0
3FF0
FB7C
F31C
430C
0300
0300
0300
ENDCHAR
STARTCHAR 002B
ENCODING 43
SWIDTH 587 0
DWIDTH 24 0
BBX 18 18 3 5
BITMAP
01E000
01E000
01E000
01E000
01E000
01E000
01E000
FFFFC0
FFFFC0
FFFFC0
01E000
01E000
01E000
01E000
01E000
01E000
01E000
01E000
ENDCHAR
STARTCHAR 002C
ENCODING 44
SWIDTH 220 0
DWIDTH 9 0
BBX 5 11 2 -6
BITMAP
78
F8
F8
F8
78
38
70
70
70
60
E0
ENDCHAR
STARTCHAR 002D
ENCODING 45
SWIDTH 391 0
DWIDTH 16 0
BBX 11 3 2 10
BITMAP
FFE0
FFE0
FFE0
ENDCHAR
STARTCHAR 002E
ENCODING 46
SWIDTH 220 0
DWIDTH 9 0
BBX 5 6 2 0
BITMAP
20
F8
F8
F8
F8
70
ENDCHAR
STARTCHAR 002F
ENCODING 47
SWIDTH 342 0
DWIDTH 14 0
BBX 17 38 -1 -4
BITMAP
000780
000700
000F00
000E00
000E00
001E00
001C00
001C00
003C00
003800
007800
007800
007000
00F000
00F000
00E000
01E000
01E000
01C000
03C000
03C000
038000
078000
070000
070000
0F0000
0E0000
0E0000
1E0000
1C0000
3C0000
3C0000
380000
780000
780000
700000
F00000
F00000
ENDCHAR
STARTCHAR 0030
ENCODING 48
SWIDTH 661 0
DWIDTH 27 0
BBX 23 31 2 -1
BITMAP
00FE00
03FF80
07FFE0
0FFFF0
1F01F0
3E00F8
3C007C
7C003C
78003C
78003E
F8001E
F0001E
F0001E
F0001E
F0001E
F0001E
F0001E
F0001E
F0001E
F0001E
F8001E
78003E
78003C
7C003C
3C007C
3E00F8
1F01F0
0FFFF0
07FFE0
03FF80
00FE00
ENDCHAR
STARTCHAR 0031
ENCODING 49
SWIDTH 367 0
DWIDTH 15 0
BBX 11 29 0 0
BITMAP
FFE0
FFE0
FFE0
FFE0
01E0
01E0
01E0
01E0
01E0
01E0
01E0
01E0
01E0
01E0
01E0
01E0
01E0
01E0
01E0
01E0
01E0
01E0
01E0
01E0
01E0
01E0
01E0
01E0
01E0
ENDCHAR
STARTCHAR 0032
ENCODING 50
SWIDTH 563 0
DWIDTH 23 0
BBX 21 30 1 0
BITMAP
03FC00
1FFF00
3FFFC0
FFFFC0
F807E0
7001E0
2001F0
0000F0
0000F0
0000F0
0000F0
0001E0
0001E0
0003C0
0007C0
000F80
001F00
003E00
007C00
00F800
01F000
03E000
07C000
0F8000
1F0000
3E0000
7FFFF8
FFFFF8
FFFFF8
FFFFF8
ENDCHAR
STARTCHAR 0033
ENCODING 51
SWIDTH 563 0
DWIDTH 23 0
BBX 22 30 0 -1
BITMAP
7FFFF0
7FFFF0
7FFFF0
7FFFF0
0001E0
0003C0
0007C0
000F80
000F00
001E00
003E00
007C00
007800
00FF00
00FFC0
00FFE0
0003F0
0000F8
000078
000078
00007C
00007C
000078
000078
7000F8
7C01F0
FFFFF0
7FFFE0
1FFF80
03FE00
ENDCHAR
STARTCHAR 0034
ENCODING 52
SWIDTH 661 0
DWIDTH 27 0
BBX 25 29 2 0
BITMAP
0003C000
00078000
000F8000
001F0000
001E0000
003C0000
007C0000
00F80000
00F00000
01E00000
03E00000
07C00000
0780E000
0F00E000
1F00E000
3E00E000
3C00E000
7800E000
F800E000
FFFFFF80
FFFFFF80
FFFFFF80
0001E000
0001E000
0001E000
0001E000
0001E000
0001E000
0001E000
ENDCHAR
STARTCHAR 0035
ENCODING 53
SWIDTH 563 0
DWIDTH 23 0
BBX 21 30 1 -1
BITMAP
1FFFE0
1FFFE0
1FFFE0
1FFFE0
1E0000
1E0000
1C0000
1C0000
3C0000
3C0000
3C0000
3C0000
3FFC00
3FFF80
3FFFC0
3FFFE0
0003F0
0000F0
0000F8
000078
000078
000078
000078
4000F8
6000F0
F803F0
FFFFE0
7FFFC0
1FFF80
03FC00
ENDCHAR
STARTCHAR 0036
ENCODING 54
SWIDTH 612 0
DWIDTH 25 0
BBX 22 31 2 -1
BITMAP
003FC0
01FFF0
07FFF0
0FFFF0
1F8020
1E0000
3C0000
7C0000
780000
780000
780000
F00000
F07F00
F1FFC0
F7FFE0
FFC7F0
FF00F8
FC0078
FC007C
F8003C
F8003C
78003C
78003C
78003C
3C003C
3C0078
1F00F8
1FC7F0
0FFFE0
03FFC0
00FE00
ENDCHAR
STARTCHAR 0037
ENCODING 55
SWIDTH 587 0
DWIDTH 24 0
BBX 22 29 1 0
BITMAP
FFFFFC
FFFFFC
FFFFFC
FFFFF8
F00078
F000F8
F000F0
F001F0
F001E0
0001E0
0003C0
0003C0
000780
000780
000F80
000F00
001F00
001E00
001E00
003C00
003C00
007C00
007800
00F800
00F000
01F000
01E000
01E000
03C000
ENDCHAR
STARTCHAR 0038
ENCODING 56
SWIDTH 636 0
DWIDTH 26 0
BBX 22 31 2 -1
BITMAP
01FE00
07FFC0
1FFFE0
3FC7F0
3E00F8
7C0078
780078
780078
780078
780078
7C0078
3C00F8
3F03F0
1FFFE0
07FFC0
1FFFE0
3F03F8
7C00F8
F8007C
F0003C
F0003C
F0003C
F0003C
F0003C
F8003C
F8007C
7C00F8
3FC7F8
1FFFF0
0FFFC0
01FE00
ENDCHAR
STARTCHAR 0039
ENCODING 57
SWIDTH 612 0
DWIDTH 25 0
BBX 22 31 1 -1
BITMAP
01FC00
07FF00
1FFFC0
3F8FE0
3C01F0
7800F0
7800F8
F00078
F00078
F0007C
F0007C
F0007C
F800FC
7800FC
7C01FC
3F8FFC
1FFFBC
0FFF3C
03F83C
00003C
00003C
000078
000078
0000F8
0000F0
0001F0
1007E0
3FFFC0
3FFF80
3FFE00
0FF800
ENDCHAR
STARTCHAR 003A
ENCODING 58
SWIDTH 220 0
DWIDTH 9 0
BBX 5 22 2 0
BITMAP
70
F8
F8
F8
F8
20
00
00
00
00
00
00
00
00
00
00
20
F8
F8
F8
F8
70
ENDCHAR
STARTCHAR 003B
ENCODING 59
SWIDTH 220 0
DWIDTH 9 0
BBX 5 28 2 -6
BITMAP
70
F8
F8
F8
F8
20
00
00
00
00
00
00
00
00
00
00
00
78
F8
F8
F8
78
78
70
70
70
60
E0
ENDCHAR
STARTCHAR 003C
ENCODING 60
SWIDTH 587 0
DWIDTH 24 0
BBX 18 18 3 5
BITMAP
000040
0003C0
000FC0
007FC0
01FE00
0FF800
3FC000
FE0000
F80000
F80000
FE0000
3FC000
0FF800
01FE00
007FC0
000FC0
0003C0
000040
ENDCHAR
STARTCHAR 003D
ENCODING 61
SWIDTH 587 0
DWIDTH 24 0
BBX 18 13 3 8
BITMAP
FFFFC0
FFFFC0
FFFFC0
000000
000000
000000
000000
000000
000000
000000
FFFFC0
FFFFC0
FFFFC0
ENDCHAR
STARTCHAR 003E
ENCODING 62
SWIDTH 587 0
DWIDTH 24 0
BBX 18 18 3 5
BITMAP
800000
F00000
FC0000
FF8000
1FE000
07FC00
00FF00
003FC0
0007C0
0007C0
003FC0
00FF00
07FC00
1FE000
FF8000
FC0000
E00000
800000
ENDCHAR
STARTCHAR 003F
ENCODING 63
SWIDTH 563 0
DWIDTH 23 0
BBX 21 30 0 0
BITMAP
01FE00
0FFF80
1FFFE0
7FDFF0
FC01F0
3800F0
1000F8
0000F8
0000F8
0000F0
0000F0
0001F0
0003E0
0007C0
000F80
001F00
003E00
003C00
003C00
007C00
007800
000000
000000
000000
000000
003800
007C00
007C00
007C00
003800
ENDCHAR
STARTCHAR 0040
ENCODING 64
SWIDTH 1028 0
DWIDTH 42 0
BBX 38 39 2 -9
BITMAP
0001FF0000
001FFFE000
007FFFF800
00FC007E00
03E0001F00
07C0000780
07000003C0
0E000001E0
1E000000F0
3C01FC3870
3807FF3878
780FFFB838
701F03F838
703C01F81C
707800F81C
E07800781C
E07000781C
E07000381C
E0F000381C
E0F000381C
E0F000381C
E07000381C
E07800781C
E07800781C
707C00F81C
703E01FC38
701F87FC78
380FFF9FF0
3807FF1FE0
1C01FC0780
1E00000000
0F00000000
0780000000
07C0000000
01F0002000
00FC00E000
007FFFF000
001FFFE000
0003FF0000
ENDCHAR
STARTCHAR 0041
ENCODING 65
SWIDTH 734 0
DWIDTH 30 0
BBX 30 29 0 0
BITMAP
00078000
000FC000
000FC000
001FE000
001FE000
003DE000
003CF000
0038F000
00787800
00787800
00F03C00
00F03C00
01E03E00
01E01E00
03E01E00
03C00F00
03C00F00
07800780
07800780
0FFFFFC0
0FFFFFC0
1FFFFFE0
1E0001E0
3E0001E0
3C0000F0
3C0000F0
780000F8
78000078
F000007C
ENDCHAR
STARTCHAR 0042
ENCODING 66
SWIDTH 759 0
DWIDTH 31 0
BBX 25 29 4 0
BITMAP
FFFF8000
FFFFF000
FFFFF800
F003FC00
F0003E00
F0001E00
F0001E00
F0001E00
F0001E00
F0001E00
F0001E00
F0003C00
F001FC00
FFFFF000
FFFFF800
FFFFFE00
F0007E00
F0001F00
F0000F00
F0000780
F0000780
F0000780
F0000780
F0000F80
F0001F00
F000FF00
FFFFFE00
FFFFF800
FFFFE000
ENDCHAR
STARTCHAR 0043
ENCODING 67
SWIDTH 734 0
DWIDTH 30 0
BBX 26 31 2 -1
BITMAP
001FE000
00FFFC00
01FFFF00
07FFFF80
0FE00FC0
1F800780
1F000100
3E000000
7C000000
78000000
78000000
F8000000
F0000000
F0000000
F0000000
F0000000
F0000000
F0000000
F0000000
F8000000
78000000
7C000000
7C000000
3E000000
1F000100
1F800780
0FE00FC0
07FFFF80
03FFFF00
00FFFC00
001FE000
ENDCHAR
STARTCHAR 0044
ENCODING 68
SWIDTH 832 0
DWIDTH 34 0
BBX 28 29 4 0
BITMAP
FFFF8000
FFFFF000
FFFFFC00
FFFFFE00
F0007F00
F0001F80
F0000FC0
F00007C0
F00003E0
F00001E0
F00001E0
F00001F0
F00000F0
F00000F0
F00000F0
F00000F0
F00000F0
F00001F0
F00001E0
F00001E0
F00003E0
F00007C0
F0000FC0
F0001F80
F0007F00
FFFFFE00
FFFFFC00
FFFFF000
FFFF8000
ENDCHAR
STARTCHAR 0045
ENCODING 69
SWIDTH 661 0
DWIDTH 27 0
BBX 21 29 4 0
BITMAP
FFFFF0
FFFFF0
FFFFF0
FFFFF0
F00000
F00000
F00000
F00000
F00000
F00000
F00000
F00000
F00000
FFFFE0
FFFFE0
FFFFE0
F00000
F00000
F00000
F00000
F00000
F00000
F00000
F00000
F00000
FFFFF8
FFFFF8
FFFFF8
FFFFF8
ENDCHAR
STARTCHAR 0046
ENCODING 70
SWIDTH 636 0
DWIDTH 26 0
BBX 20 29 4 0
BITMAP
FFFFF0
FFFFF0
FFFFF0
FFFFF0
F00000
F00000
F00000
F00000
F00000
F00000
F00000
F00000
F00000
F00000
FFFFE0
FFFFE0
FFFFE0
F00000
F00000
F00000
F00000
F00000
F00000
F00000
F00000
F00000
F00000
F00000
F00000
ENDCHAR
STARTCHAR 0047
ENCODING 71
SWIDTH 783 0
DWIDTH 32 0
BBX 26 31 2 -1
BITMAP
001FE000
00FFFC00
01FFFE00
07FFFF00
0FE00F80
1F8003C0
1F000180
3E000000
7C000000
78000000
78000000
F8000000
F0000000
F0000000
F0000000
F00003C0
F00003C0
F00003C0
F00003C0
F80003C0
780003C0
7C0003C0
7C0003C0
3E0003C0
1F0003C0
1F8003C0
0FE00FC0
07FFFFC0
03FFFF00
00FFFE00
001FE000
ENDCHAR
STARTCHAR 0048
ENCODING 72
SWIDTH 808 0
DWIDTH 33 0
BBX 25 29 4 0
BITMAP
F0000780
F0000780
F0000780
F0000780
F0000780
F0000780
F0000780
F0000780
F0000780
F0000780
F0000780
F0000780
FFFFFF80
FFFFFF80
FFFFFF80
FFFFFF80
F0000780
F0000780
F0000780
F0000780
F0000780
F0000780
F0000780
F0000780
F0000780
F0000780
F0000780
F0000780
F0000780
ENDCHAR
STARTCHAR 0049
ENCODING 73
SWIDTH 318 0
DWIDTH 13 0
BBX 4 29 4 0
BITMAP
F0
F0
F0
F0
F0
F0
F0
F0
F0
F0
F0
F0
F0
F0
F0
F0
F0
F0
F0
F0
F0
F0
F0
F0
F0
F0
F0
F0
F0
ENDCHAR
STARTCHAR 004A
ENCODING 74
SWIDTH 514 0
DWIDTH 21 0
BBX 17 30 0 -1
BITMAP
1FFF80
1FFF80
1FFF80
1FFF80
000780
000780
000780
000780
000780
000780
000780
000780
000780
000780
000780
000780
000780
000780
000780
000780
000780
000780
000780
400F80
600F00
F81F00
FFFE00
7FFE00
3FFC00
07E000
ENDCHAR
STARTCHAR 004B
ENCODING 75
SWIDTH 710 0
DWIDTH 29 0
BBX 25 29 4 0
BITMAP
F0001F00
F0003E00
F0007C00
F0007800
F000F000
F001E000
F003C000
F007C000
F00F8000
F01F0000
F03E0000
F07C0000
F0F80000
F1F80000
F3FC0000
F7FC0000
FFBE0000
FF1F0000
FE0F8000
FC0FC000
F807C000
F003E000
F001F000
F000F800
F0007C00
F0003C00
F0003E00
F0001F00
F0000F80
ENDCHAR
STARTCHAR 004C
ENCODING 76
SWIDTH 587 0
DWIDTH 24 0
BBX 20 29 4 0
BITMAP
F00000
F00000
F00000
F00000
F00000
F00000
F00000
F00000
F00000
F00000
F00000
F00000
F00000
F00000
F00000
F00000
F00000
F00000
F00000
F00000
F00000
F00000
F00000
F00000
F00000
FFFFF0
FFFFF0
FFFFF0
FFFFF0
ENDCHAR
STARTCHAR 004D
ENCODING 77
SWIDTH 955 0
DWIDTH 39 0
BBX 31 29 4 0
BITMAP
F000001E
F800003E
F800003E
FC00007E
FC00007E
FE0000FE
FE0000FE
FF0001FE
FF8003DE
F78003DE
F3C0079E
F3C0079E
F1E00F1E
F1F00E1E
F0F01E1E
F0783C1E
F0783C1E
F03C781E
F03C781E
F01EF01E
F00FE01E
F00FE01E
F007C01E
F007C01E
F003801E
F000001E
F000001E
F000001E
F000001E
ENDCHAR
STARTCHAR 004E
ENCODING 78
SWIDTH 808 0
DWIDTH 33 0
BBX 25 29 4 0
BITMAP
F0000780
F8000780
FC000780
FC000780
FE000780
FF000780
FF800780
FFC00780
F7C00780
F3E00780
F1F00780
F0F80780
F0FC0780
F07C0780
F03E0780
F01F0780
F00F8780
F00FC780
F007C780
F003E780
F001F780
F000FF80
F000FF80
F0007F80
F0003F80
F0001F80
F0000F80
F0000F80
F0000780
ENDCHAR
STARTCHAR 004F
ENCODING 79
SWIDTH 832 0
DWIDTH 34 0
BBX 30 31 2 -1
BITMAP
001FE000
00FFFC00
01FFFF00
07FFFF80
0FE01FC0
1F8007E0
1F0001F0
3E0000F0
7C0000F8
78000078
7800007C
F800003C
F000003C
F000003C
F000003C
F000003C
F000003C
F000003C
F000003C
F800003C
7800007C
78000078
7C0000F8
3E0000F0
1F0001F0
1F8007E0
0FE00FC0
07FFFF80
01FFFF00
00FFFC00
001FE000
ENDCHAR
STARTCHAR 0050
ENCODING 80
SWIDTH 710 0
DWIDTH 29 0
BBX 23 29 4 0
BITMAP
FFFF00
FFFFC0
FFFFF0
FFFFF8
F000FC
F0003C
F0003E
F0001E
F0001E
F0001E
F0001E
F0001E
F0001E
F0003E
F0003C
F000FC
FFFFF8
FFFFF0
FFFFC0
FFFF00
F00000
F00000
F00000
F00000
F00000
F00000
F00000
F00000
F00000
ENDCHAR
STARTCHAR 0051
ENCODING 81
SWIDTH 832 0
DWIDTH 34 0
BBX 32 36 2 -6
BITMAP
001FE000
00FFFC00
01FFFF00
07FFFF80
0FE00FC0
1F8007E0
3F0001F0
3E0000F8
7C0000F8
78000078
7800007C
F800003C
F000003C
F000003C
F000003C
F000003C
F000003C
F000003C
F800003C
7800003C
78000078
7C000078
3E0000F8
3F0001F0
1F8003E0
0FE00FC0
07FFFF80
03FFFF00
00FFFE00
003FF000
0003F000
0001F806
0000FE3F
00003FFE
00001FFC
000007F0
ENDCHAR
STARTCHAR 0052
ENCODING 82
SWIDTH 734 0
DWIDTH 30 0
BBX 24 29 4 0
BITMAP
FFFF00
FFFFC0
FFFFF0
FFFFF8
F000FC
F0003C
F0003E
F0001E
F0001E
F0001E
F0001E
F0001E
F0001E
F0003E
F0003C
F000FC
F00FF8
FFFFF0
FFFFC0
FFFF80
F003C0
F003E0
F001E0
F000F0
F000F8
F00078
F0003C
F0003E
F0001F
ENDCHAR
STARTCHAR 0053
ENCODING 83
SWIDTH 612 0
DWIDTH 25 0
BBX 22 31 2 -1
BITMAP
01FF00
07FFE0
1FFFF0
3FFFF0
7E00F0
780020
780000
F00000
F00000
F80000
780000
7C0000
7E0000
3FC000
1FFC00
0FFF80
03FFE0
003FF0
0007F8
0000F8
000078
00007C
00003C
00003C
400078
600078
F800F8
FFDFF0
7FFFE0
1FFFC0
03FE00
ENDCHAR
STARTCHAR 0054
ENCODING 84
SWIDTH 587 0
DWIDTH 24 0
BBX 24 29 0 0
BITMAP
FFFFFF
FFFFFF
FFFFFF
FFFFFF
003C00
003C00
003C00
003C00
003C00
003C00
003C00
003C00
003C00
003C00
003C00
003C00
003C00
003C00
003C00
003C00
003C00
003C00
003C00
003C00
003C00
003C00
003C00
003C00
003C00
ENDCHAR
STARTCHAR 0055
ENCODING 85
SWIDTH 783 0
DWIDTH 32 0
BBX 24 30 4 -1
BITMAP
F0000F
F0000F
F0000F
F0000F
F0000F
F0000F
F0000F
F0000F
F0000F
F0000F
F0000F
F0000F
F0000F
F0000F
F0000F
F0000F
F0000F
F0000F
F0000F
F0000F
F8000F
78000F
78001E
7C001E
3E003E
3F00FC
1FFFF8
0FFFF0
03FFE0
00FF00
ENDCHAR
STARTCHAR 0056
ENCODING 86
SWIDTH 710 0
DWIDTH 29 0
BBX 29 29 0 0
BITMAP
F8000078
780000F0
780000F0
7C0001F0
3C0001E0
3E0001E0
1E0003C0
1F0003C0
0F000780
0F000780
0F800F80
07800F00
07C00F00
03C01E00
03E01E00
01E03C00
01F03C00
00F07C00
00F07800
00F87800
0078F000
007CF000
003DE000
003FE000
001FE000
001FC000
001FC000
000F8000
000F8000
ENDCHAR
STARTCHAR 0057
ENCODING 87
SWIDTH 1126 0
DWIDTH 46 0
BBX 43 29 1 0
BITMAP
F8000F0000E0
78000F8001E0
78001F8001E0
7C001F8001E0
3C001FC003C0
3C003FC003C0
3E003FC003C0
1E0039E00780
1E0079E00780
1F0079E00780
0F0070F00F00
0F00F0F00F00
0F80F0F00F00
0780E0781E00
0781E0781E00
07C1E0781E00
03C1C03C3C00
03C3C03C3C00
03E3C03C3C00
01E3801E7800
01E7801E7800
01F7801E7800
00F7000EF000
00FF000FF000
00FF000FF000
007E0007E000
007E0007E000
007E0007E000
003C0003C000
ENDCHAR
STARTCHAR 0058
ENCODING 88
SWIDTH 661 0
DWIDTH 27 0
BBX 26 29 1 0
BITMAP
78000F80
7C000F00
3E001E00
1E003E00
1F003C00
0F807800
07C0F800
03C1F000
03E1E000
01F3C000
00F7C000
00FF8000
007F0000
003F0000
003E0000
007F0000
007F8000
00F7C000
01F3C000
03E3E000
03C1F000
07C0F800
0F807800
1F007C00
1E003E00
3E001E00
7C001F00
78000F80
F80007C0
ENDCHAR
STARTCHAR 0059
ENCODING 89
SWIDTH 636 0
DWIDTH 26 0
BBX 26 29 0 0
BITMAP
F80003C0
780003C0
7C000780
3C000F00
1E000F00
1F001E00
0F001E00
0F803C00
07807800
03C07800
03E0F000
01E0F000
01F1E000
00F3E000
007BC000
007F8000
003F8000
003F0000
001F0000
001E0000
001E0000
001E0000
001E0000
001E0000
001E0000
001E0000
001E0000
001E0000
001E0000
ENDCHAR
STARTCHAR 005A
ENCODING 90
SWIDTH 661 0
DWIDTH 27 0
BBX 24 29 2 0
BITMAP
FFFFFE
FFFFFE
FFFFFE
FFFFFE
00007C
0000F8
0001F0
0001E0
0003E0
0007C0
000F80
001F00
001E00
003E00
007C00
00F800
01F000
01E000
03E000
07C000
0F8000
1F0000
1F0000
3E0000
7C0000
FFFFFF
FFFFFF
FFFFFF
FFFFFF
ENDCHAR
STARTCHAR 005B
ENCODING 91
SWIDTH 342 0
DWIDTH 14 0
BBX 9 38 4 -8
BITMAP
FF80
FF80
FF80
F000
F000
F000
F000
F000
F000
F000
F000
F000
F000
F000
F000
F000
F000
F000
F000
F000
F000
F000
F000
F000
F000
F000
F000
F000
F000
F000
F000
F000
F000
F000
F000
FF80
FF80
FF80
ENDCHAR
STARTCHAR 005C
ENCODING 92
SWIDTH 342 0
DWIDTH 14 0
BBX 16 38 -1 -4
BITMAP
E000
F000
F000
7000
7800
3800
3800
3C00
1C00
1E00
1E00
0E00
0F00
0F00
0700
0780
0780
0380
03C0
03C0
01C0
01E0
01E0
00E0
00F0
0070
0070
0078
0038
003C
003C
001C
001E
001E
000E
000F
000F
0007
ENDCHAR
STARTCHAR 005D
ENCODING 93
SWIDTH 342 0
DWIDTH 14 0
BBX 8 38 1 -8
BITMAP
FF
FF
FF
0F
0F
0F
0F
0F
0F
0F
0F
0F
0F
0F
0F
0F
0F
0F
0F
0F
0F
0F
0F
0F
0F
0F
0F
0F
0F
0F
0F
0F
0F
0F
0F
FF
FF
FF
ENDCHAR
STARTCHAR 005E
ENCODING 94
SWIDTH 587 0
DWIDTH 24 0
BBX 18 17 3 6
BITMAP
01E000
01E000
03F000
03F000
077000
073800
073800
0E1C00
0E1C00
1C1E00
1C0E00
380E00
380700
380700
700380
700380
E003C0
ENDCHAR
STARTCHAR 005F
ENCODING 95
SWIDTH 489 0
DWIDTH 20 0
BBX 20 3 0 -3
BITMAP
FFFFF0
FFFFF0
FFFFF0
ENDCHAR
STARTCHAR 0060
ENCODING 96
SWIDTH 612 0
DWIDTH 25 0
BBX 10 5 5 25
BITMAP
F800
3C00
1E00
0F00
03C0
ENDCHAR
STARTCHAR 0061
ENCODING 97
SWIDTH 587 0
DWIDTH 24 0
BBX 19 22 2 0
BITMAP
03FC00
1FFF00
7FFF80
7F3FC0
3007C0
0003E0
0001E0
0001E0
0001E0
03FFE0
1FFFE0
3FFFE0
7C01E0
F001E0
F001E0
F001E0
F003E0
F807E0
7C1FE0
7FFFE0
1FFDE0
07E1E0
ENDCHAR
STARTCHAR 0062
ENCODING 98
SWIDTH 685 0
DWIDTH 28 0
BBX 22 30 4 0
BITMAP
F00000
F00000
F00000
F00000
F00000
F00000
F00000
F00000
F0FE00
F3FF80
F7FFE0
FFCFF0
FE01F0
FC00F8
F80078
F0007C
F0003C
F0003C
F0003C
F0003C
F0003C
F0003C
F0007C
F80078
FC00F8
FE01F0
EFCFE0
EFFFC0
E3FF80
E0FE00
ENDCHAR
STARTCHAR 0063
ENCODING 99
SWIDTH 563 0
DWIDTH 23 0
BBX 20 22 2 0
BITMAP
00FE00
07FF80
0FFFC0
1FCFE0
3E01F0
7C00E0
780000
F00000
F00000
F00000
F00000
F00000
F00000
F00000
F00000
780000
7C00E0
3E01F0
1FCFE0
0FFFC0
07FF80
01FE00
ENDCHAR
STARTCHAR 0064
ENCODING 100
SWIDTH 685 0
DWIDTH 28 0
BBX 22 30 2 0
BITMAP
00003C
00003C
00003C
00003C
00003C
00003C
00003C
00003C
01FC3C
07FF3C
1FFFBC
3FCFFC
3E01FC
7C00FC
78007C
F0003C
F0003C
F0003C
F0003C
F0003C
F0003C
F0003C
F0003C
78007C
7C00FC
3E01FC
3FCFFC
1FFFBC
07FF3C
01FC3C
ENDCHAR
STARTCHAR 0065
ENCODING 101
SWIDTH 612 0
DWIDTH 25 0
BBX 21 22 2 0
BITMAP
01FC00
07FF00
1FFFC0
3F8FE0
3C01F0
7800F0
780078
F00078
F00078
FFFFF8
FFFFF8
FFFFF8
F00000
F00000
F00000
780000
7C0040
3E00E0
1FEFF0
0FFFE0
07FF80
00FE00
ENDCHAR
STARTCHAR 0066
ENCODING 102
SWIDTH 342 0
DWIDTH 14 0
BBX 15 31 1 0
BITMAP
01F8
03FE
07FC
0F8C
0F00
1E00
1E00
1E00
1E00
FFF8
FFF8
FFF8
1E00
1E00
1E00
1E00
1E00
1E00
1E00
1E00
1E00
1E00
1E00
1E00
1E00
1E00
1E00
1E00
1E00
1E00
1E00
ENDCHAR
STARTCHAR 0067
ENCODING 103
SWIDTH 685 0
DWIDTH 28 0
BBX 22 30 2 -8
BITMAP
01FC1C
07FF1C
1FFFDC
3FCFFC
3E01FC
7C007C
F8007C
F0003C
F0003C
F0001C
F0001C
F0001C
F0003C
F0003C
F8007C
7C007C
7E01FC
3FCFFC
1FFFFC
07FF3C
01FC3C
00003C
00003C
00003C
300078
3C00F8
7FCFF0
3FFFE0
0FFFC0
01FE00
ENDCHAR
STARTCHAR 0068
ENCODING 104
SWIDTH 685 0
DWIDTH 28 0
BBX 20 30 4 0
BITMAP
F00000
F00000
F00000
F00000
F00000
F00000
F00000
F00000
F0FE00
F3FF80
FFFFC0
FFFFE0
FE03E0
F801F0
F800F0
F000F0
F000F0
F000F0
F000F0
F000F0
F000F0
F000F0
F000F0
F000F0
F000F0
F000F0
F000F0
F000F0
F000F0
F000F0
ENDCHAR
STARTCHAR 0069
ENCODING 105
SWIDTH 269 0
DWIDTH 11 0
BBX 5 31 3 0
BITMAP
70
F8
F8
F8
70
00
00
00
00
78
78
78
78
78
78
78
78
78
78
78
78
78
78
78
78
78
78
78
78
78
78
ENDCHAR
STARTCHAR 006A
ENCODING 106
SWIDTH 293 0
DWIDTH 12 0
BBX 13 39 -4 -8
BITMAP
00F0
01F0
01F8
01F0
00E0
0000
0000
0000
0000
00F0
00F0
00F0
00F0
00F0
00F0
00F0
00F0
00F0
00F0
00F0
00F0
00F0
00F0
00F0
00F0
00F0
00F0
00F0
00F0
00F0
00F0
00F0
00F0
00F0
01E0
63E0
7FE0
FFC0
3F00
ENDCHAR
STARTCHAR 006B
ENCODING 107
SWIDTH 612 0
DWIDTH 25 0
BBX 21 30 4 0
BITMAP
F00000
F00000
F00000
F00000
F00000
F00000
F00000
F00000
F001F0
F003E0
F007C0
F00F80
F01F00
F03E00
F0FC00
F1F800
F3F000
F7E000
FFF000
FFF800
FE7C00
FC7C00
F83E00
F01F00
F00F80
F007C0
F007C0
F003E0
F001F0
F000F8
ENDCHAR
STARTCHAR 006C
ENCODING 108
SWIDTH 269 0
DWIDTH 11 0
BBX 4 30 4 0
BITMAP
F0
F0
F0
F0
F0
F0
F0
F0
F0
F0
F0
F0
F0
F0
F0
F0
F0
F0
F0
F0
F0
F0
F0
F0
F0
F0
F0
F0
F0
F0
ENDCHAR
STARTCHAR 006D
ENCODING 109
SWIDTH 1053 0
DWIDTH 43 0
BBX 36 22 4 0
BITMAP
E0FC00FC00
E3FF07FF00
EFFF8FFF80
FFFFDFFFC0
FC03FC03E0
F801F801E0
F801F801E0
F001F001F0
F000F000F0
F000F000F0
F000F000F0
F000F000F0
F000F000F0
F000F000F0
F000F000F0
F000F000F0
F000F000F0
F000F000F0
F000F000F0
F000F000F0
F000F000F0
F000F000F0
ENDCHAR
STARTCHAR 006E
ENCODING 110
SWIDTH 685 0
DWIDTH 28 0
BBX 20 22 4 0
BITMAP
E0FE00
E3FF80
EFFFC0
FFFFE0
FE03E0
F801F0
F800F0
F000F0
F000F0
F000F0
F000F0
F000F0
F000F0
F000F0
F000F0
F000F0
F000F0
F000F0
F000F0
F000F0
F000F0
F000F0
ENDCHAR
STARTCHAR 006F
ENCODING 111
SWIDTH 636 0
DWIDTH 26 0
BBX 22 22 2 0
BITMAP
00FE00
07FF80
0FFFC0
1FCFE0
3E01F0
7C00F8
780078
F0003C
F0003C
F0003C
F0003C
F0003C
F0003C
F0003C
F0003C
780078
7C00F8
3E01F0
1FCFE0
0FFFC0
07FF80
01FC00
ENDCHAR
STARTCHAR 0070
ENCODING 112
SWIDTH 685 0
DWIDTH 28 0
BBX 22 30 4 -8
BITMAP
E0FE00
E3FF80
E7FFE0
EFCFF0
FE01F0
FC00F8
F80078
F0007C
F0003C
F0003C
F0003C
F0003C
F0003C
F0003C
F0007C
F80078
FC00F8
FE01F0
FFCFE0
F7FFC0
F3FF80
F0FE00
F00000
F00000
F00000
F00000
F00000
F00000
F00000
F00000
ENDCHAR
STARTCHAR 0071
ENCODING 113
SWIDTH 685 0
DWIDTH 28 0
BBX 22 30 2 -8
BITMAP
01FC3C
07FF3C
1FFFBC
3FCFFC
3E01FC
7C00FC
78007C
F0003C
F0003C
F0003C
F0003C
F0003C
F0003C
F0003C
F0003C
78007C
7C00FC
3E01FC
3FCFFC
1FFFBC
07FF3C
01FC3C
00003C
00003C
00003C
00003C
00003C
00003C
00003C
00003C
ENDCHAR
STARTCHAR 0072
ENCODING 114
SWIDTH 416 0
DWIDTH 17 0
BBX 11 22 4 0
BITMAP
E0E0
E3E0
E7E0
EFE0
FE00
FC00
F800
F000
F000
F000
F000
F000
F000
F000
F000
F000
F000
F000
F000
F000
F000
F000
ENDCHAR
STARTCHAR 0073
ENCODING 115
SWIDTH 489 0
DWIDTH 20 0
BBX 18 22 1 0
BITMAP
03FC00
0FFF80
3FFF80
3F1F80
780100
780000
780000
780000
7C0000
7F8000
3FFC00
0FFF00
03FF80
000FC0
0003C0
0003C0
0003C0
7003C0
7F1FC0
FFFF80
3FFE00
07F800
ENDCHAR
STARTCHAR 0074
ENCODING 116
SWIDTH 416 0
DWIDTH 17 0
BBX 15 27 1 0
BITMAP
1E00
1E00
1E00
1E00
1E00
FFF8
FFF8
FFF8
1E00
1E00
1E00
1E00
1E00
1E00
1E00
1E00
1E00
1E00
1E00
1E00
1E00
1E00
0F00
0F8C
0FFC
07FE
01F8
ENDCHAR
STARTCHAR 0075
ENCODING 117
SWIDTH 685 0
DWIDTH 28 0
BBX 20 22 4 0
BITMAP
E000F0
E000F0
E000F0
E000F0
E000F0
E000F0
E000F0
E000F0
E000F0
E000F0
E000F0
E000F0
E000F0
F000F0
F001F0
F001F0
F803F0
FC07F0
7FFFF0
3FFEF0
1FFCF0
07F0F0
ENDCHAR
STARTCHAR 0076
ENCODING 118
SWIDTH 563 0
DWIDTH 23 0
BBX 23 22 0 0
BITMAP
F0001E
78003C
78003C
780038
3C0078
3C0070
1E00F0
1E00F0
0F01E0
0F01E0
0F01C0
0783C0
078380
03C780
03C780
01EF00
01EF00
01EE00
00FE00
00FC00
007C00
007C00
ENDCHAR
STARTCHAR 0077
ENCODING 119
SWIDTH 906 0
DWIDTH 37 0
BBX 36 22 0 0
BITMAP
F000700070
7800F800F0
7800F800F0
3801F800E0
3C01FC01E0
3C01FC01C0
1C03DC01C0
1E03DE03C0
1E038E0380
0E078F0780
0F070F0780
0F07070700
070F078F00
078E078F00
039E038E00
03DC03DE00
03DC01DC00
01FC01DC00
01F801FC00
01F800F800
00F800F800
00F000F800
ENDCHAR
STARTCHAR 0078
ENCODING 120
SWIDTH 563 0
DWIDTH 23 0
BBX 21 22 1 0
BITMAP
F800F0
7801E0
3C03E0
1E03C0
1F0780
0F0F00
079F00
03DE00
03FC00
01F800
00F800
00F800
01FC00
03FC00
07DE00
0F8F00
0F0F80
1E07C0
3E03C0
7C01E0
7801F0
F000F8
ENDCHAR
STARTCHAR 0079
ENCODING 121
SWIDTH 563 0
DWIDTH 23 0
BBX 24 30 -1 -8
BITMAP
78000F
3C001E
3C001E
3E001C
1E003C
1E0038
0F0078
0F0078
0780F0
0780F0
03C0E0
03C1E0
03C1C0
01E3C0
01E3C0
00F780
00F780
007F00
007F00
007E00
003E00
003C00
003C00
003C00
007800
00F800
79F000
FFE000
7FC000
1F0000
ENDCHAR
STARTCHAR 007A
ENCODING 122
SWIDTH 514 0
DWIDTH 21 0
BBX 18 22 2 0
BITMAP
FFFF80
FFFF80
FFFF80
000F80
001F00
001E00
003C00
007C00
00F800
01F000
01E000
03C000
07C000
0F8000
0F0000
1E0000
3C0000
7C0000
F80000
FFFFC0
FFFFC0
FFFFC0
ENDCHAR
STARTCHAR 007B
ENCODING 123
SWIDTH 342 0
DWIDTH 14 0
BBX 12 38 2 -8
BITMAP
01F0
07F0
0FF0
0F80
0F00
0F00
0F00
0F00
0F00
0F00
0F00
0F00
0F00
0F00
0F00
0E00
1E00
FE00
FC00
FE00
1E00
1E00
0F00
0F00
0F00
0F00
0F00
0F00
0F00
0F00
0F00
0F00
0F00
0F00
0F80
0FF0
07F0
01F0
ENDCHAR
STARTCHAR 007C
ENCODING 124
SWIDTH 293 0
DWIDTH 12 0
BBX 4 38 4 -8
BITMAP
F0
F0
F0
F0
F0
F0
F0
F0
F0
F0
F0
F0
F0
F0
F0
F0
F0
F0
F0
F0
F0
F0
F0
F0
F0
F0
F0
F0
F0
F0
F0
F0
F0
F0
F0
F0
F0
F0
ENDCHAR
STARTCHAR 007D
ENCODING 125
SWIDTH 342 0
DWIDTH 14 0
BBX 11 38 1 -8
BITMAP
F800
FC00
FE00
3E00
1F00
0F00
0F00
0F00
0F00
0F00
0F00
0F00
0F00
0F00
0F00
0F00
0F00
0FE0
03E0
07E0
0F80
0F00
0F00
0F00
0F00
0F00
0F00
0F00
0F00
0F00
0F00
0F00
0F00
1F00
3E00
FE00
FC00
F800
ENDCHAR
STARTCHAR 007E
ENCODING 126
SWIDTH 587 0
DWIDTH 24 0
BBX 19 7 2 11
BITMAP
1F0060
3FC060
7FE0E0
71F0E0
607FC0
E03FC0
E00F00
ENDCHAR
STARTCHAR 00A0
ENCODING 160
SWIDTH 269 0
DWIDTH 11 0
BBX 0 0 0 0
BITMAP
ENDCHAR
STARTCHAR 00A1
ENCODING 161
SWIDTH 269 0
DWIDTH 11 0
BBX 5 28 3 -6
BITMAP
70
F8
F8
F8
70
00
00
00
00
70
70
70
70
70
70
70
70
70
70
70
F0
F8
F8
F8
F8
F8
F8
F8
ENDCHAR
STARTCHAR 00A2
ENCODING 162
SWIDTH 563 0
DWIDTH 23 0
BBX 20 32 2 -5
BITMAP
007000
007000
007000
007000
007000
00FC00
07FF80
0FFFC0
1FFFE0
3E71F0
7C70E0
787000
F87000
F07000
F07000
F07000
F07000
F07000
F07000
F07000
F87000
7C70C0
3E71F0
3FF7E0
1FFFE0
07FF80
01FE00
007000
007000
007000
007000
007000
ENDCHAR
STARTCHAR 00A3
ENCODING 163
SWIDTH 636 0
DWIDTH 26 0
BBX 25 30 1 0
BITMAP
0007F800
003FFF00
00FFFF80
01FFFF00
01F00700
03E00000
07C00000
07800000
07800000
07800000
07800000
07800000
07800000
07800000
FFFFF000
FFFFF000
FFFFF000
07800000
07800000
07800000
07800000
07800000
07800000
07800000
07800000
07800000
FFFFFF00
FFFFFF00
FFFFFF00
FFFFFF00
ENDCHAR
STARTCHAR 00A4
ENCODING 164
SWIDTH 710 0
DWIDTH 29 0
BBX 25 26 2 0
BITMAP
40000300
E0000780
F07F0F80
79FFDF00
3FFFFE00
1FC3FC00
1F007800
1E003C00
3C001C00
38001E00
38000E00
78000E00
70000E00
70000E00
78000E00
38000E00
38001E00
3C001C00
1E003C00
1F007800
1FC3FC00
3FFFFE00
79FFDF00
F07F0F80
E0000780
40000300
ENDCHAR
STARTCHAR 00A5
ENCODING 165
SWIDTH 710 0
DWIDTH 29 0
BBX 29 29 0 0
BITMAP
F80000F8
780000F0
3C0001E0
3E0003E0
1E0003C0
0F000780
0F800F00
07800F00
03C01E00
01E03C00
01F07C00
00F07800
0078F000
007DE000
003DE000
001FC000
0FFFFF80
0FFFFF80
000F0000
000F0000
000F0000
000F0000
0FFFFF80
0FFFFF80
000F0000
000F0000
000F0000
000F0000
000F0000
ENDCHAR
STARTCHAR 00A6
ENCODING 166
SWIDTH 293 0
DWIDTH 12 0
BBX 4 38 4 -8
BITMAP
F0
F0
F0
F0
F0
F0
F0
F0
F0
F0
F0
F0
F0
F0
00
00
00
00
00
00
00
00
00
00
F0
F0
F0
F0
F0
F0
F0
F0
F0
F0
F0
F0
F0
F0
ENDCHAR
STARTCHAR 00A7
ENCODING 167
SWIDTH 489 0
DWIDTH 20 0
BBX 18 33 1 -4
BITMAP
01FE00
0FFF80
1FFFC0
3F07C0
3C0080
380000
780000
780000
3C0000
3F0000
1FF000
1FFE00
3FFF00
781F80
7007C0
7003C0
F001C0
7001C0
7803C0
7F0780
3FFF80
0FFF00
01FF00
001F00
000780
000780
000380
000780
600780
FC1F00
FFFE00
3FFC00
0FF000
ENDCHAR
STARTCHAR 00A8
ENCODING 168
SWIDTH 612 0
DWIDTH 25 0
BBX 12 4 6 26
BITMAP
7060
F0F0
F8F0
70F0
ENDCHAR
STARTCHAR 00A9
ENCODING 169
SWIDTH 808 0
DWIDTH 33 0
BBX 29 29 2 0
BITMAP
001FC000
00FFF800
03C03E00
07000700
0E000380
180001C0
380FC0E0
303FF060
60FFF830
60F07830
61E01030
C1C00018
C3C00018
C3800018
C3800018
C3800018
C3C00018
C1C00010
E1E01030
60F03830
60FFF870
303FF060
380FC0C0
180001C0
0E000380
07000700
03C01E00
00FFF800
003FC000
ENDCHAR
STARTCHAR 00AA
ENCODING 170
SWIDTH 416 0
DWIDTH 17 0
BBX 12 14 2 17
BITMAP
1F80
FFC0
F1E0
0070
0070
0070
3FF0
FFF0
E070
C070
C070
E1F0
FFF0
3E70
ENDCHAR
STARTCHAR 00AB
ENCODING 171
SWIDTH 514 0
DWIDTH 21 0
BBX 17 16 2 3
BITMAP
038780
078700
0F0F00
1E1E00
1C3C00
3C3800
787800
F0F000
F0F000
787000
387800
3C3C00
1E1E00
0F0E00
070F00
078780
ENDCHAR
STARTCHAR 00AC
ENCODING 172
SWIDTH 587 0
DWIDTH 24 0
BBX 18 10 3 6
BITMAP
FFFFC0
FFFFC0
FFFFC0
0001C0
0001C0
0001C0
0001C0
0001C0
0001C0
0001C0
ENDCHAR
STARTCHAR 00AD
ENCODING 173
SWIDTH 391 0
DWIDTH 16 0
BBX 11 3 2 10
BITMAP
FFE0
FFE0
FFE0
ENDCHAR
STARTCHAR 00AE
ENCODING 174
SWIDTH 808 0
DWIDTH 33 0
BBX 29 29 2 0
BITMAP
001FC000
00FFF800
03C01E00
07000700
0C000380
180001C0
307FC0E0
307FF060
6060F830
60603830
C0601C30
C0601C18
C0601C18
C0601818
C0607818
C07FF018
C07FE018
C060E010
60606030
60607030
60603860
30603860
38601CC0
1C0001C0
0E000380
07000700
03C03C00
00FFF800
003FC000
ENDCHAR
STARTCHAR 00AF
ENCODING 175
SWIDTH 612 0
DWIDTH 25 0
BBX 13 2 6 27
BITMAP
FFF8
FFF8
ENDCHAR
STARTCHAR 00B0
ENCODING 176
SWIDTH 416 0
DWIDTH 17 0
BBX 13 13 2 16
BITMAP
0F80
3FE0
78F0
6038
E038
C018
C018
C018
E018
6038
7870
3FE0
1FC0
ENDCHAR
STARTCHAR 00B1
ENCODING 177
SWIDTH 587 0
DWIDTH 24 0
BBX 18 25 3 0
BITMAP
01E000
01E000
01E000
01E000
01E000
01E000
01E000
FFFFC0
FFFFC0
FFFFC0
01E000
01E000
01E000
01E000
01E000
01E000
01E000
000000
000000
000000
000000
000000
FFFFC0
FFFFC0
FFFFC0
ENDCHAR
STARTCHAR 00B2
ENCODING 178
SWIDTH 440 0
DWIDTH 18 0
BBX 15 17 1 14
BITMAP
0FC0
3FF0
FFF8
603C
001C
001C
0018
0038
0070
00E0
01C0
0780
0F00
1E00
3C00
7FFE
7FFE
ENDCHAR
STARTCHAR 00B3
ENCODING 179
SWIDTH 440 0
DWIDTH 18 0
BBX 15 17 1 13
BITMAP
7FFC
7FFC
0038
0070
00E0
01C0
0380
07E0
07F8
003C
001C
000E
000E
401C
FCFC
7FF8
1FE0
ENDCHAR
STARTCHAR 00B4
ENCODING 180
SWIDTH 612 0
DWIDTH 25 0
BBX 9 5 10 25
BITMAP
0F80
1F00
3C00
7800
F000
ENDCHAR
STARTCHAR 00B5
ENCODING 181
SWIDTH 685 0
DWIDTH 28 0
BBX 20 30 4 -8
BITMAP
F000F0
F000F0
F000F0
F000F0
F000F0
F000F0
F000F0
F000F0
F000F0
F000F0
F000F0
F000F0
F000F0
F000F0
F000F0
F001F0
F801F0
FC07F0
FFFFF0
FFFFF0
F7FCF0
F3F0F0
F00000
F00000
F00000
F00000
F00000
F00000
F00000
F00000
ENDCHAR
STARTCHAR 00B6
ENCODING 182
SWIDTH 636 0
DWIDTH 26 0
BBX 21 34 1 -4
BITMAP
07FFF8
1FFFF8
3FFFF8
7FF038
FFF038
FFF038
FFF038
FFF038
FFF038
FFF038
7FF038
7FF038
3FF038
0FF038
00F038
00F038
00F038
00F038
00F038
00F038
00F038
00F038
00F038
00F038
00F038
00F038
00F038
00F038
00F038
00F038
00F038
00F038
00F038
00F038
ENDCHAR
STARTCHAR 00B7
ENCODING 183
SWIDTH 269 0
DWIDTH 11 0
BBX 5 6 3 8
BITMAP
70
F8
F8
F8
F8
20
ENDCHAR
STARTCHAR 00B8
ENCODING 184
SWIDTH 612 0
DWIDTH 25 0
BBX 8 10 8 -10
BITMAP
18
18
38
3E
07
07
07
C7
FE
FC
ENDCHAR
STARTCHAR 00B9
ENCODING 185
SWIDTH 440 0
DWIDTH 18 0
BBX 12 17 3 13
BITMAP
7F00
7F00
0700
0700
0700
0700
0700
0700
0700
0700
0700
0700
0700
0700
0700
FFF0
FFF0
ENDCHAR
STARTCHAR 00BA
ENCODING 186
SWIDTH 416 0
DWIDTH 17 0
BBX 15 13 1 18
BITMAP
07E0
1FF0
3EF8
701C
701C
E00E
E00E
E00E
600E
701C
783C
3FF8
0FE0
ENDCHAR
STARTCHAR 00BB
ENCODING 187
SWIDTH 514 0
DWIDTH 21 0
BBX 17 16 1 3
BITMAP
F0F000
787800
3C3800
1C1C00
1E1E00
0F0F00
078700
038780
03C380
078780
0F0F00
0E0E00
1E1C00
3C3C00
787800
707000
ENDCHAR
STARTCHAR 00BC
ENCODING 188
SWIDTH 1028 0
DWIDTH 42 0
BBX 38 29 3 0
BITMAP
7F00003800
7F00007000
0700007000
070000E000
070001C000
070001C000
0700038000
0700070000
0700070000
07000E0000
07001C0000
07001C0000
07003803C0
0700700380
0700700700
FFF0E00E00
FFF1C01E00
0001C01C00
0003803800
00070070E0
000700F0E0
000E00E0E0
001C01C0E0
003C01FFFC
003801FFFC
00700000E0
00F00000E0
00E00000E0
01C00000E0
ENDCHAR
STARTCHAR 00BD
ENCODING 189
SWIDTH 1028 0
DWIDTH 42 0
BBX 37 29 3 0
BITMAP
7F00003800
7F00007000
0700007000
070000E000
070001C000
070001C000
0700038000
0700070000
0700070000
07000E0000
07001C0000
07001C0000
0700387FC0
070070FFE0
070071E0F0
FFF0E08070
FFF1C00030
0001C00070
0003800070
00070000E0
00070001E0
000E000380
001C000700
003C000E00
0038003C00
0070007800
00F000F000
00E000FFF8
01C000FFF8
ENDCHAR
STARTCHAR 00BE
ENCODING 190
SWIDTH 1028 0
DWIDTH 42 0
BBX 40 29 1 0
BITMAP
7FFC000E00
7FFC001C00
0038001C00
0070003800
00E0007000
01C0007000
038000E000
07E001C000
07F801C000
003C038000
001C070000
000E070000
000E0E00E0
401C1C00E0
703C1C01C0
FFF8380380
3FF0700780
0000700700
0000E00E00
0001C01C38
0001C03C38
0003803838
0007007038
000F007FFF
000E007FFF
001C000038
003C000038
0038000038
0070000038
ENDCHAR
STARTCHAR 00BF
ENCODING 191
SWIDTH 563 0
DWIDTH 23 0
BBX 20 28 3 -6
BITMAP
01E000
01E000
03F000
01F000
01E000
000000
000000
000000
000000
01E000
01E000
03E000
03C000
07C000
0F8000
1F0000
3E0000
7C0000
F80000
F00000
F00000
F00000
F000C0
F801E0
7E07F0
7FFFC0
3FFF80
0FFE00
ENDCHAR
STARTCHAR 00C0
ENCODING 192
SWIDTH 734 0
DWIDTH 30 0
BBX 30 36 0 0
BITMAP
00F80000
003C0000
001E0000
000F0000
00038000
00000000
00000000
00078000
000FC000
000FC000
001FE000
001FE000
003DE000
003CF000
0038F000
00787800
00787800
00F03C00
00F03C00
01E03E00
01E01E00
03E01E00
03C00F00
03C00F00
07800780
07800780
0FFFFFC0
0FFFFFC0
1FFFFFE0
1E0001E0
3E0001E0
3C0000F0
3C0000F0
780000F8
78000078
F000007C
ENDCHAR
STARTCHAR 00C1
ENCODING 193
SWIDTH 734 0
DWIDTH 30 0
BBX 30 36 0 0
BITMAP
00007C00
0000F000
0003E000
00078000
000F0000
00000000
00000000
00078000
000FC000
000FC000
001FE000
001FE000
003DE000
003CF000
0038F000
00787800
00787800
00F03C00
00F03C00
01E03E00
01E01E00
03E01E00
03C00F00
03C00F00
07800780
07800780
0FFFFFC0
0FFFFFC0
1FFFFFE0
1E0001E0
3E0001E0
3C0000F0
3C0000F0
780000F8
78000078
F000007C
ENDCHAR
STARTCHAR 00C2
ENCODING 194
SWIDTH 734 0
DWIDTH 30 0
BBX 30 36 0 0
BITMAP
000FC000
001FE000
003CF000
00787800
00F03C00
00000000
00000000
00078000
000FC000
000FC000
001FE000
001FE000
003DE000
003CF000
0038F000
00787800
00787800
00F03C00
00F03C00
01E03E00
01E01E00
03E01E00
03C00F00
03C00F00
07800780
07800780
0FFFFFC0
0FFFFFC0
1FFFFFE0
1E0001E0
3E0001E0
3C0000F0
3C0000F0
780000F8
78000078
F000007C
ENDCHAR
STARTCHAR 00C3
ENCODING 195
SWIDTH 734 0
DWIDTH 30 0
BBX 30 36 0 0
BITMAP
003C0C00
007F1C00
00E3B800
00E1F800
00C0F000
00000000
00000000
00078000
000FC000
000FC000
001FE000
001FE000
003DE000
003CF000
0038F000
00787800
00787800
00F03C00
00F03C00
01E03E00
01E01E00
03E01E00
03C00F00
03C00F00
07800780
07800780
0FFFFFC0
0FFFFFC0
1FFFFFE0
1E0001E0
3E0001E0
3C0000F0
3C0000F0
780000F8
78000078
F000007C
ENDCHAR
STARTCHAR 00C4
ENCODING 196
SWIDTH 734 0
DWIDTH 30 0
BBX 30 36 0 0
BITMAP
00387000
00787800
00787800
00307000
00000000
00000000
00000000
00078000
000FC000
000FC000
001FE000
001FE000
003DE000
003CF000
0038F000
00787800
00787800
00F03C00
00F03C00
01E03E00
01E01E00
03E01E00
03C00F00
03C00F00
07800780
07800780
0FFFFFC0
0FFFFFC0
1FFFFFE0
1E0001E0
3E0001E0
3C0000F0
3C0000F0
780000F8
78000078
F000007C
ENDCHAR
STARTCHAR 00C5
ENCODING 197
SWIDTH 734 0
DWIDTH 30 0
BBX 30 41 0 0
BITMAP
00030000
000FC000
0018E000
00186000
00302000
00302000
00186000
00186000
000FC000
00030000
00000000
00000000
00078000
000FC000
000FC000
001FE000
001FE000
003DE000
003CF000
0038F000
00787800
00787800
00F03C00
00F03C00
01E03E00
01E01E00
03E01E00
03C00F00
03C00F00
07800780
07800780
0FFFFFC0
0FFFFFC0
1FFFFFE0
1E0001E0
3E0001E0
3C0000F0
3C0000F0
780000F8
78000078
F000007C
ENDCHAR
STARTCHAR 00C6
ENCODING 198
SWIDTH 1053 0
DWIDTH 43 0
BBX 40 29 0 0
BITMAP
00007FFFFF
0000FFFFFF
0000FFFFFF
0001FFFFFF
0003CF0000
0003CF0000
00078F0000
00078F0000
000F0F0000
001F0F0000
001E0F0000
003C0F0000
003C0F0000
00780FFFFC
00F80FFFFC
00F00FFFFC
01F00F0000
01E00F0000
03C00F0000
03FFFF0000
07FFFF0000
0FFFFF0000
0F000F0000
1E000F0000
1E000F0000
3C000FFFFF
7C000FFFFF
78000FFFFF
F0000FFFFF
ENDCHAR
STARTCHAR 00C7
ENCODING 199
SWIDTH 734 0
DWIDTH 30 0
BBX 26 40 2 -10
BITMAP
001FE000
00FFFC00
01FFFF00
07FFFF80
0FE00FC0
1F800780
1F000100
3E000000
7C000000
78000000
78000000
F8000000
F0000000
F0000000
F0000000
F0000000
F0000000
F0000000
F0000000
78000000
78000000
7C000000
3C000000
3E000000
1F000100
0F800780
07E00FC0
03FFFF80
00FFFF00
001FFC00
0007E000
00060000
00060000
000F8000
000FC000
0001C000
0000C000
0031C000
003FC000
001F0000
ENDCHAR
STARTCHAR 00C8
ENCODING 200
SWIDTH 661 0
DWIDTH 27 0
BBX 21 36 4 0
BITMAP
0F8000
07C000
01E000
00F000
007800
000000
000000
FFFFF0
FFFFF0
FFFFF0
FFFFF0
F00000
F00000
F00000
F00000
F00000
F00000
F00000
F00000
F00000
FFFFE0
FFFFE0
FFFFE0
F00000
F00000
F00000
F00000
F00000
F00000
F00000
F00000
F00000
FFFFF8
FFFFF8
FFFFF8
FFFFF8
ENDCHAR
STARTCHAR 00C9
ENCODING 201
SWIDTH 661 0
DWIDTH 27 0
BBX 21 36 4 0
BITMAP
000F80
001F00
003C00
007800
00F000
000000
000000
FFFFF0
FFFFF0
FFFFF0
FFFFF0
F00000
F00000
F00000
F00000
F00000
F00000
F00000
F00000
F00000
FFFFE0
FFFFE0
FFFFE0
F00000
F00000
F00000
F00000
F00000
F00000
F00000
F00000
F00000
FFFFF8
FFFFF8
FFFFF8
FFFFF8
ENDCHAR
STARTCHAR 00CA
ENCODING 202
SWIDTH 661 0
DWIDTH 27 0
BBX 21 36 4 0
BITMAP
00F800
01FC00
03DE00
070F00
0E0380
000000
000000
FFFFF0
FFFFF0
FFFFF0
FFFFF0
F00000
F00000
F00000
F00000
F00000
F00000
F00000
F00000
F00000
FFFFE0
FFFFE0
FFFFE0
F00000
F00000
F00000
F00000
F00000
F00000
F00000
F00000
F00000
FFFFF8
FFFFF8
FFFFF8
FFFFF8
ENDCHAR
STARTCHAR 00CB
ENCODING 203
SWIDTH 661 0
DWIDTH 27 0
BBX 21 36 4 0
BITMAP
070700
078F00
078F00
070700
000000
000000
000000
FFFFF0
FFFFF0
FFFFF0
FFFFF0
F00000
F00000
F00000
F00000
F00000
F00000
F00000
F00000
F00000
FFFFE0
FFFFE0
FFFFE0
F00000
F00000
F00000
F00000
F00000
F00000
F00000
F00000
F00000
FFFFF8
FFFFF8
FFFFF8
FFFFF8
ENDCHAR
STARTCHAR 00CC
ENCODING 204
SWIDTH 318 0
DWIDTH 13 0
BBX 10 36 -1 0
BITMAP
FC00
3E00
1F00
0780
03C0
0000
0000
0780
0780
0780
0780
0780
0780
0780
0780
0780
0780
0780
0780
0780
0780
0780
0780
0780
0780
0780
0780
0780
0780
0780
0780
0780
0780
0780
0780
0780
ENDCHAR
STARTCHAR 00CD
ENCODING 205
SWIDTH 318 0
DWIDTH 13 0
BBX 9 36 4 0
BITMAP
0F80
1E00
3C00
7800
F000
0000
0000
F000
F000
F000
F000
F000
F000
F000
F000
F000
F000
F000
F000
F000
F000
F000
F000
F000
F000
F000
F000
F000
F000
F000
F000
F000
F000
F000
F000
F000
ENDCHAR
STARTCHAR 00CE
ENCODING 206
SWIDTH 318 0
DWIDTH 13 0
BBX 13 36 0 0
BITMAP
0F80
1FC0
3DE0
70F0
E078
0000
0000
0F00
0F00
0F00
0F00
0F00
0F00
0F00
0F00
0F00
0F00
0F00
0F00
0F00
0F00
0F00
0F00
0F00
0F00
0F00
0F00
0F00
0F00
0F00
0F00
0F00
0F00
0F00
0F00
0F00
ENDCHAR
STARTCHAR 00CF
ENCODING 207
SWIDTH 318 0
DWIDTH 13 0
BBX 12 36 0 0
BITMAP
7070
F8F0
78F0
7060
0000
0000
0000
0F00
0F00
0F00
0F00
0F00
0F00
0F00
0F00
0F00
0F00
0F00
0F00
0F00
0F00
0F00
0F00
0F00
0F00
0F00
0F00
0F00
0F00
0F00
0F00
0F00
0F00
0F00
0F00
0F00
ENDCHAR
STARTCHAR 00D0
ENCODING 208
SWIDTH 832 0
DWIDTH 34 0
BBX 32 29 0 0
BITMAP
07FFF800
07FFFF00
07FFFFC0
07FFFFE0
078007F0
078001F8
0780007C
0780003E
0780003E
0780001E
0780001F
0780000F
0780000F
FFFF800F
FFFF800F
FFFF800F
0780000F
0780000F
0780001F
0780001E
0780001E
0780003E
0780007C
078000F8
078003F0
07FFFFE0
07FFFFC0
07FFFF00
07FFF800
ENDCHAR
STARTCHAR 00D1
ENCODING 209
SWIDTH 808 0
DWIDTH 33 0
BBX 25 36 4 0
BITMAP
01F06000
03F86000
039EE000
030FC000
03038000
00000000
00000000
F0000780
F8000780
FC000780
FC000780
FE000780
FF000780
FF800780
FFC00780
F7C00780
F3E00780
F1F00780
F0F80780
F0FC0780
F07C0780
F03E0780
F01F0780
F00F8780
F00FC780
F007C780
F003E780
F001F780
F000FF80
F000FF80
F0007F80
F0003F80
F0001F80
F0000F80
F0000F80
F0000780
ENDCHAR
STARTCHAR 00D2
ENCODING 210
SWIDTH 832 0
DWIDTH 34 0
BBX 30 38 2 -1
BITMAP
00FC0000
003E0000
001F0000
00078000
0003C000
00000000
00000000
001FE000
00FFFC00
01FFFF00
07FFFF80
0FE01FC0
1F8007E0
1F0001F0
3E0000F0
7C0000F8
78000078
7800007C
F800003C
F000003C
F000003C
F000003C
F000003C
F000003C
F000003C
F000003C
F800003C
7800007C
78000078
7C0000F8
3E0000F0
1F0001F0
1F8007E0
0FE00FC0
07FFFF80
01FFFF00
00FFFC00
001FE000
ENDCHAR
STARTCHAR 00D3
ENCODING 211
SWIDTH 832 0
DWIDTH 34 0
BBX 30 38 2 -1
BITMAP
00007C00
0000F000
0001E000
0003C000
00070000
00000000
00000000
001FE000
00FFFC00
01FFFF00
07FFFF80
0FE01FC0
1F8007E0
1F0001F0
3E0000F0
7C0000F8
78000078
7800007C
F800003C
F000003C
F000003C
F000003C
F000003C
F000003C
F000003C
F000003C
F800003C
7800007C
78000078
7C0000F8
3E0000F0
1F0001F0
1F8007E0
0FE00FC0
07FFFF80
01FFFF00
00FFFC00
001FE000
ENDCHAR
STARTCHAR 00D4
ENCODING 212
SWIDTH 832 0
DWIDTH 34 0
BBX 30 38 2 -1
BITMAP
000FC000
001FE000
003CF000
00787800
00F03C00
00000000
00000000
001FE000
00FFFC00
01FFFF00
07FFFF80
0FE01FC0
1F8007E0
1F0001F0
3E0000F0
7C0000F8
78000078
7800007C
F800003C
F000003C
F000003C
F000003C
F000003C
F000003C
F000003C
F000003C
F800003C
7800007C
78000078
7C0000F8
3E0000F0
1F0001F0
1F8007E0
0FE00FC0
07FFFF80
01FFFF00
00FFFC00
001FE000
ENDCHAR
STARTCHAR 00D5
ENCODING 213
SWIDTH 832 0
DWIDTH 34 0
BBX 30 38 2 -1
BITMAP
003E0C00
007F0C00
0063FC00
00E1F800
00E0F000
00000000
00000000
001FE000
00FFFC00
01FFFF00
07FFFF80
0FE01FC0
1F8007E0
1F0001F0
3E0000F0
7C0000F8
78000078
7800007C
F800003C
F000003C
F000003C
F000003C
F000003C
F000003C
F000003C
F000003C
F800003C
7800007C
78000078
7C0000F8
3E0000F0
1F0001F0
1F8007E0
0FE00FC0
07FFFF80
01FFFF00
00FFFC00
001FE000
ENDCHAR
STARTCHAR 00D6
ENCODING 214
SWIDTH 832 0
DWIDTH 34 0
BBX 30 38 2 -1
BITMAP
00383000
00787800
00787800
00387800
00000000
00000000
00000000
001FE000
00FFFC00
01FFFF00
07FFFF80
0FE01FC0
1F8007E0
1F0001F0
3E0000F0
7C0000F8
78000078
7800007C
F800003C
F000003C
F000003C
F000003C
F000003C
F000003C
F000003C
F000003C
F800003C
7800007C
78000078
7C0000F8
3E0000F0
1F0001F0
1F8007E0
0FE00FC0
07FFFF80
01FFFF00
00FFFC00
001FE000
ENDCHAR
STARTCHAR 00D7
ENCODING 215
SWIDTH 587 0
DWIDTH 24 0
BBX 15 15 4 8
BITMAP
2004
700E
F81E
7C3C
3E78
1FF0
0FE0
07C0
07E0
0FF0
1EF8
3C7C
783E
701E
200C
ENDCHAR
STARTCHAR 00D8
ENCODING 216
SWIDTH 832 0
DWIDTH 34 0
BBX 30 37 2 -4
BITMAP
00000038
00000070
000000F0
001FE0E0
00FFFDC0
01FFFF80
07FFFF80
0FE01FC0
1F800FE0
1F000FF0
3E001CF0
7C0038F8
78003878
7800707C
F800E03C
F000E03C
F001C03C
F003803C
F003803C
F007003C
F00E003C
F00E003C
F81C003C
7838007C
78380078
7C7000F8
3EE000F0
3FE001F0
1FC007E0
0FE00FC0
07FFFF80
07FFFF00
0EFFFC00
1E1FE000
1C000000
38000000
78000000
ENDCHAR
STARTCHAR 00D9
ENCODING 217
SWIDTH 783 0
DWIDTH 32 0
BBX 24 37 4 -1
BITMAP
07E000
01F000
00F800
003C00
001E00
000000
000000
F0000F
F0000F
F0000F
F0000F
F0000F
F0000F
F0000F
F0000F
F0000F
F0000F
F0000F
F0000F
F0000F
F0000F
F0000F
F0000F
F0000F
F0000F
F0000F
F0000F
F8000F
78000F
78001E
7C001E
3E003E
3F00FC
1FFFF8
0FFFF0
03FFE0
00FF00
ENDCHAR
STARTCHAR 00DA
ENCODING 218
SWIDTH 783 0
DWIDTH 32 0
BBX 24 37 4 -1
BITMAP
0003E0
000780
000F00
001E00
003800
000000
000000
F0000F
F0000F
F0000F
F0000F
F0000F
F0000F
F0000F
F0000F
F0000F
F0000F
F0000F
F0000F
F0000F
F0000F
F0000F
F0000F
F0000F
F0000F
F0000F
F0000F
F8000F
78000F
78001E
7C001E
3E003E
3F00FC
1FFFF8
0FFFF0
03FFE0
00FF00
ENDCHAR
STARTCHAR 00DB
ENCODING 219
SWIDTH 783 0
DWIDTH 32 0
BBX 24 37 4 -1
BITMAP
007E00
00FF00
01E780
03C3C0
0781E0
000000
000000
F0000F
F0000F
F0000F
F0000F
F0000F
F0000F
F0000F
F0000F
F0000F
F0000F
F0000F
F0000F
F0000F
F0000F
F0000F
F0000F
F0000F
F0000F
F0000F
F0000F
F8000F
78000F
78001E
7C001E
3E003E
3F00FC
1FFFF8
0FFFF0
03FFE0
00FF00
ENDCHAR
STARTCHAR 00DC
ENCODING 220
SWIDTH 783 0
DWIDTH 32 0
BBX 24 37 4 -1
BITMAP
01C3C0
03C3C0
03C3C0
01C180
000000
000000
000000
F0000F
F0000F
F0000F
F0000F
F0000F
F0000F
F0000F
F0000F
F0000F
F0000F
F0000F
F0000F
F0000F
F0000F
F0000F
F0000F
F0000F
F0000F
F0000F
F0000F
F8000F
78000F
78001E
7C001E
3E003E
3F00FC
1FFFF8
0FFFF0
03FFE0
00FF00
ENDCHAR
STARTCHAR 00DD
ENCODING 221
SWIDTH 636 0
DWIDTH 26 0
BBX 26 36 0 0
BITMAP
0001F000
0003C000
00078000
000F0000
001C0000
00000000
00000000
F80003C0
780003C0
7C000780
3C000F00
1E000F00
1F001E00
0F001E00
0F803C00
07807800
03C07800
03E0F000
01E0F000
01F1E000
00F3E000
007BC000
007F8000
003F8000
003F0000
001F0000
001E0000
001E0000
001E0000
001E0000
001E0000
001E0000
001E0000
001E0000
001E0000
001E0000
ENDCHAR
STARTCHAR 00DE
ENCODING 222
SWIDTH 710 0
DWIDTH 29 0
BBX 23 29 4 0
BITMAP
F00000
F00000
F00000
F00000
FFFF00
FFFFC0
FFFFF0
FFFFF8
F000FC
F0003C
F0003E
F0001E
F0001E
F0001E
F0001E
F0001E
F0001E
F0003E
F0003C
F000FC
F01FF8
FFFFF0
FFFFC0
FFFF00
F00000
F00000
F00000
F00000
F00000
ENDCHAR
STARTCHAR 00DF
ENCODING 223
SWIDTH 685 0
DWIDTH 28 0
BBX 22 31 4 0
BITMAP
01FC00
0FFF00
1FFF80
3FFFC0
7C03E0
7801E0
F001E0
F000E0
F000E0
F000E0
F001E0
F001E0
F003C0
F00F80
F07F00
F07F80
F07FE0
F007F0
F000F8
F00078
F0003C
F0003C
F0003C
F0003C
F0003C
F00078
F000F8
F0EFF0
F0FFE0
F1FFC0
F0FF00
ENDCHAR
STARTCHAR 00E0
ENCODING 224
SWIDTH 587 0
DWIDTH 24 0
BBX 19 30 2 0
BITMAP
1F0000
078000
03C000
01E000
007000
000000
000000
000000
03FC00
1FFF00
7FFF80
7F3FC0
3007C0
0003E0
0001E0
0001E0
0001E0
03FFE0
1FFFE0
3FFFE0
7C01E0
F001E0
F001E0
F001E0
F003E0
F807E0
7C1FE0
7FFFE0
1FFDE0
07E1E0
ENDCHAR
STARTCHAR 00E1
ENCODING 225
SWIDTH 587 0
DWIDTH 24 0
BBX 19 30 2 0
BITMAP
000F80
003E00
007C00
00F000
01E000
000000
000000
000000
03FC00
1FFF00
7FFF80
7F3FC0
3007C0
0003E0
0001E0
0001E0
0001E0
03FFE0
1FFFE0
3FFFE0
7C01E0
F001E0
F001E0
F001E0
F003E0
F807E0
7C1FE0
7FFFE0
1FFDE0
07E1E0
ENDCHAR
STARTCHAR 00E2
ENCODING 226
SWIDTH 587 0
DWIDTH 24 0
BBX 19 30 2 0
BITMAP
01F800
03FC00
079E00
0F0F00
1E0780
000000
000000
000000
03FC00
1FFF00
7FFF80
7F3FC0
3007C0
0003E0
0001E0
0001E0
0001E0
03FFE0
1FFFE0
3FFFE0
7C01E0
F001E0
F001E0
F001E0
F003E0
F807E0
7C1FE0
7FFFE0
1FFDE0
07E1E0
ENDCHAR
STARTCHAR 00E3
ENCODING 227
SWIDTH 587 0
DWIDTH 24 0
BBX 19 30 2 0
BITMAP
078180
0FE380
1CF700
1C3F00
181E00
000000
000000
000000
03FC00
1FFF00
7FFF80
7F3FC0
3007C0
0003E0
0001E0
0001E0
0001E0
03FFE0
1FFFE0
3FFFE0
7C01E0
F001E0
F001E0
F001E0
F003E0
F807E0
7C1FE0
7FFFE0
1FFDE0
07E1E0
ENDCHAR
STARTCHAR 00E4
ENCODING 228
SWIDTH 587 0
DWIDTH 24 0
BBX 19 30 2 0
BITMAP
060E00
0F0F00
0F0F00
0F0E00
000000
000000
000000
000000
03FC00
1FFF00
7FFF80
7F3FC0
3007C0
0003E0
0001E0
0001E0
0001E0
03FFE0
1FFFE0
3FFFE0
7C01E0
F001E0
F001E0
F001E0
F003E0
F807E0
7C1FE0
7FFFE0
1FFDE0
07E1E0
ENDCHAR
STARTCHAR 00E5
ENCODING 229
SWIDTH 587 0
DWIDTH 24 0
BBX 19 33 2 0
BITMAP
00F000
01F800
030C00
060C00
060400
060C00
030C00
01F800
006000
000000
000000
03FC00
1FFF00
7FFF80
7F3FC0
3007C0
0003E0
0001E0
0001E0
0001E0
03FFE0
1FFFE0
3FFFE0
7C01E0
F001E0
F001E0
F001E0
F003E0
F807E0
7C1FE0
7FFFE0
1FFDE0
07E1E0
ENDCHAR
STARTCHAR 00E6
ENCODING 230
SWIDTH 979 0
DWIDTH 40 0
BBX 37 22 2 0
BITMAP
03F801F800
1FFF0FFF00
7FFF9FFF80
7F3FBF9FC0
3007FC03E0
0003F801E0
0001F000F0
0001E000F0
0001E00070
03FFFFFFF8
1FFFFFFFF8
7FFFFFFFF8
7C01E00000
F001E00000
F001F00000
F001F00000
F003F800C0
F807FC01C0
7C0FBFCFE0
3FFF1FFFC0
1FFC0FFF80
07F001FC00
ENDCHAR
STARTCHAR 00E7
ENCODING 231
SWIDTH 563 0
DWIDTH 23 0
BBX 20 32 2 -10
BITMAP
00FE00
07FF80
0FFFC0
1FCFE0
3E01F0
7C00E0
780000
F00000
F00000
F00000
F00000
F00000
F00000
F00000
F00000
780000
7C00E0
3E01F0
3FCFE0
1FFFC0
07FF80
01FE00
006000
006000
00F800
00FC00
001C00
001C00
001C00
031C00
03F800
03F000
ENDCHAR
STARTCHAR 00E8
ENCODING 232
SWIDTH 612 0
DWIDTH 25 0
BBX 21 30 2 0
BITMAP
0F8000
07C000
01E000
00F000
007800
000000
000000
000000
01FC00
07FF00
1FFFC0
3F8FE0
3C01F0
7800F0
780078
F00078
F00078
FFFFF8
FFFFF8
FFFFF8
F00000
F00000
F00000
780000
7C0040
3E00E0
1FEFF0
0FFFE0
07FF80
00FE00
ENDCHAR
STARTCHAR 00E9
ENCODING 233
SWIDTH 612 0
DWIDTH 25 0
BBX 21 30 2 0
BITMAP
000F80
001F00
003C00
007800
00F000
000000
000000
000000
01FC00
07FF00
1FFFC0
3F8FE0
3C01F0
7800F0
780078
F00078
F00078
FFFFF8
FFFFF8
FFFFF8
F00000
F00000
F00000
780000
7C0040
3E00E0
1FEFF0
0FFFE0
07FF80
00FE00
ENDCHAR
STARTCHAR 00EA
ENCODING 234
SWIDTH 612 0
DWIDTH 25 0
BBX 21 30 2 0
BITMAP
00F800
01FC00
03DE00
078F00
0E0380
000000
000000
000000
01FC00
07FF00
1FFFC0
3F8FE0
3C01F0
7800F0
780078
F00078
F00078
FFFFF8
FFFFF8
FFFFF8
F00000
F00000
F00000
780000
7C0040
3E00E0
1FEFF0
0FFFE0
07FF80
00FE00
ENDCHAR
STARTCHAR 00EB
ENCODING 235
SWIDTH 612 0
DWIDTH 25 0
BBX 21 30 2 0
BITMAP
070700
078F00
078F00
070700
000000
000000
000000
000000
01FC00
07FF00
1FFFC0
3F8FE0
3C01F0
7800F0
780078
F00078
F00078
FFFFF8
FFFFF8
FFFFF8
F00000
F00000
F00000
780000
7C0040
3E00E0
1FEFF0
0FFFE0
07FF80
00FE00
ENDCHAR
STARTCHAR 00EC
ENCODING 236
SWIDTH 269 0
DWIDTH 11 0
BBX 9 30 -1 0
BITMAP
F800
3C00
1E00
0F00
0780
0000
0000
0000
0780
0780
0780
0780
0780
0780
0780
0780
0780
0780
0780
0780
0780
0780
0780
0780
0780
0780
0780
0780
0780
0780
ENDCHAR
STARTCHAR 00ED
ENCODING 237
SWIDTH 269 0
DWIDTH 11 0
BBX 10 30 3 0
BITMAP
0FC0
1F00
3E00
7800
F000
0000
0000
0000
7800
7800
7800
7800
7800
7800
7800
7800
7800
7800
7800
7800
7800
7800
7800
7800
7800
7800
7800
7800
7800
7800
ENDCHAR
STARTCHAR 00EE
ENCODING 238
SWIDTH 269 0
DWIDTH 11 0
BBX 12 30 0 0
BITMAP
1F00
3F80
7BC0
71E0
E0F0
0000
0000
0000
0F00
0F00
0F00
0F00
0F00
0F00
0F00
0F00
0F00
0F00
0F00
0F00
0F00
0F00
0F00
0F00
0F00
0F00
0F00
0F00
0F00
0F00
ENDCHAR
STARTCHAR 00EF
ENCODING 239
SWIDTH 269 0
DWIDTH 11 0
BBX 10 30 1 0
BITMAP
E380
F3C0
F3C0
E380
0000
0000
0000
0000
1E00
1E00
1E00
1E00
1E00
1E00
1E00
1E00
1E00
1E00
1E00
1E00
1E00
1E00
1E00
1E00
1E00
1E00
1E00
1E00
1E00
1E00
ENDCHAR
STARTCHAR 00F0
ENCODING 240
SWIDTH 636 0
DWIDTH 26 0
BBX 22 31 2 -1
BITMAP
3FFC10
3FFF78
3FFFF8
300FF0
003FE0
00FFF0
07F8F8
1FE078
0F0078
0C003C
00003C
00003C
01FC3C
0FFF3C
1FFFBC
3F8FFC
7C01FC
7800FC
F0007C
F0007C
F0007C
F0007C
F0007C
F00078
F00078
F800F0
7C01F0
3F8FE0
1FFFC0
0FFF00
01FC00
ENDCHAR
STARTCHAR 00F1
ENCODING 241
SWIDTH 685 0
DWIDTH 28 0
BBX 20 30 4 0
BITMAP
078180
0FE380
0C7700
1C3F00
181E00
000000
000000
000000
E0FE00
E3FF80
EFFFC0
FFFFE0
FE03E0
F801F0
F800F0
F000F0
F000F0
F000F0
F000F0
F000F0
F000F0
F000F0
F000F0
F000F0
F000F0
F000F0
F000F0
F000F0
F000F0
F000F0
ENDCHAR
STARTCHAR 00F2
ENCODING 242
SWIDTH 636 0
DWIDTH 26 0
BBX 22 30 2 0
BITMAP
0F8000
03C000
01E000
00F000
003800
000000
000000
000000
00FE00
07FF80
0FFFC0
1FCFE0
3E01F0
7C00F8
780078
F0003C
F0003C
F0003C
F0003C
F0003C
F0003C
F0003C
F0003C
780078
7C00F8
3E01F0
1FCFE0
0FFFC0
07FF80
01FC00
ENDCHAR
STARTCHAR 00F3
ENCODING 243
SWIDTH 636 0
DWIDTH 26 0
BBX 22 30 2 0
BITMAP
0007C0
000F00
003E00
007800
00F000
000000
000000
000000
00FE00
07FF80
0FFFC0
1FCFE0
3E01F0
7C00F8
780078
F0003C
F0003C
F0003C
F0003C
F0003C
F0003C
F0003C
F0003C
780078
7C00F8
3E01F0
1FCFE0
0FFFC0
07FF80
01FC00
ENDCHAR
STARTCHAR 00F4
ENCODING 244
SWIDTH 636 0
DWIDTH 26 0
BBX 22 30 2 0
BITMAP
00FC00
01FE00
03CF00
078780
0F03C0
000000
000000
000000
00FE00
07FF80
0FFFC0
1FCFE0
3E01F0
7C00F8
780078
F0003C
F0003C
F0003C
F0003C
F0003C
F0003C
F0003C
F0003C
780078
7C00F8
3E01F0
1FCFE0
0FFFC0
07FF80
01FC00
ENDCHAR
STARTCHAR 00F5
ENCODING 245
SWIDTH 636 0
DWIDTH 26 0
BBX 22 30 2 0
BITMAP
03C0C0
07F1C0
0E7B80
0E1F80
0C0F00
000000
000000
000000
00FE00
07FF80
0FFFC0
1FCFE0
3E01F0
7C00F8
780078
F0003C
F0003C
F0003C
F0003C
F0003C
F0003C
F0003C
F0003C
780078
7C00F8
3E01F0
1FCFE0
0FFFC0
07FF80
01FC00
ENDCHAR
STARTCHAR 00F6
ENCODING 246
SWIDTH 636 0
DWIDTH 26 0
BBX 22 30 2 0
BITMAP
030700
078780
078780
038700
000000
000000
000000
000000
00FE00
07FF80
0FFFC0
1FCFE0
3E01F0
7C00F8
780078
F0003C
F0003C
F0003C
F0003C
F0003C
F0003C
F0003C
F0003C
780078
7C00F8
3E01F0
1FCFE0
0FFFC0
07FF80
01FC00
ENDCHAR
STARTCHAR 00F7
ENCODING 247
SWIDTH 587 0
DWIDTH 24 0
BBX 18 21 3 4
BITMAP
01C000
01E000
01E000
01E000
00C000
000000
000000
000000
000000
FFFFC0
FFFFC0
FFFFC0
000000
000000
000000
000000
00C000
01E000
01E000
01E000
01C000
ENDCHAR
STARTCHAR 00F8
ENCODING 248
SWIDTH 636 0
DWIDTH 26 0
BBX 22 28 2 -3
BITMAP
000018
000030
000070
00FE60
07FFC0
0FFFC0
1FCFE0
3E03F0
7C07F8
780678
F00E3C
F01C3C
F0183C
F0383C
F0703C
F0603C
F0E03C
F1C03C
798078
7F80F8
3F01F0
1FCFE0
0FFFC0
1FFF80
19FC00
380000
700000
600000
ENDCHAR
STARTCHAR 00F9
ENCODING 249
SWIDTH 685 0
DWIDTH 28 0
BBX 20 30 4 0
BITMAP
1F0000
078000
03C000
01E000
00F000
000000
000000
000000
E000F0
E000F0
E000F0
E000F0
E000F0
E000F0
E000F0
E000F0
E000F0
E000F0
E000F0
E000F0
E000F0
F000F0
F001F0
F001F0
F803F0
FC07F0
7FFFF0
3FFEF0
1FFCF0
07F0F0
ENDCHAR
STARTCHAR 00FA
ENCODING 250
SWIDTH 685 0
DWIDTH 28 0
BBX 20 30 4 0
BITMAP
001F80
003E00
007C00
00F000
01E000
000000
000000
000000
E000F0
E000F0
E000F0
E000F0
E000F0
E000F0
E000F0
E000F0
E000F0
E000F0
E000F0
E000F0
E000F0
F000F0
F001F0
F001F0
F803F0
FC07F0
7FFFF0
3FFEF0
1FFCF0
07F0F0
ENDCHAR
STARTCHAR 00FB
ENCODING 251
SWIDTH 685 0
DWIDTH 28 0
BBX 20 30 4 0
BITMAP
01F000
03F800
07BC00
0F0E00
1E0780
000000
000000
000000
E000F0
E000F0
E000F0
E000F0
E000F0
E000F0
E000F0
E000F0
E000F0
E000F0
E000F0
E000F0
E000F0
F000F0
F001F0
F001F0
F803F0
FC07F0
7FFFF0
3FFEF0
1FFCF0
07F0F0
ENDCHAR
STARTCHAR 00FC
ENCODING 252
SWIDTH 685 0
DWIDTH 28 0
BBX 20 30 4 0
BITMAP
060E00
0F0F00
0F1F00
0E0E00
000000
000000
000000
000000
E000F0
E000F0
E000F0
E000F0
E000F0
E000F0
E000F0
E000F0
E000F0
E000F0
E000F0
E000F0
E000F0
F000F0
F001F0
F001F0
F803F0
FC07F0
7FFFF0
3FFEF0
1FFCF0
07F0F0
ENDCHAR
STARTCHAR 00FD
ENCODING 253
SWIDTH 563 0
DWIDTH 23 0
BBX 24 38 -1 -8
BITMAP
0003E0
000F80
001F00
003C00
007800
000000
000000
000000
78000F
3C001E
3C001E
3E001C
1E003C
1E0038
0F0078
0F0078
0780F0
0780F0
03C0E0
03C1E0
03C1C0
01E3C0
01E3C0
00F780
00F780
007F00
007F00
007E00
003E00
003C00
003C00
003C00
007800
00F800
79F000
FFE000
7FC000
1F0000
ENDCHAR
STARTCHAR 00FE
ENCODING 254
SWIDTH 685 0
DWIDTH 28 0
BBX 22 38 4 -8
BITMAP
F00000
F00000
F00000
F00000
F00000
F00000
F00000
F00000
F0FE00
F3FF80
F7FFE0
FFCFF0
FE01F0
FC00F8
F80078
F0007C
F0003C
F0003C
F0003C
F0003C
F0003C
F0003C
F0007C
F80078
FC00F8
FE01F0
FFCFE0
F7FFC0
F3FF80
F0FE00
F00000
F00000
F00000
F00000
F00000
F00000
F00000
F00000
ENDCHAR
STARTCHAR 00FF
ENCODING 255
SWIDTH 563 0
DWIDTH 23 0
BBX 24 38 -1 -8
BITMAP
018380
03C3C0
03C3C0
03C380
000000
000000
000000
000000
78000F
3C001E
3C001E
3E001C
1E003C
1E0038
0F0078
0F0078
0780F0
0780F0
03C0E0
03C1E0
03C1C0
01E3C0
01E3C0
00F780
00F780
007F00
007F00
007E00
003E00
003C00
003C00
003C00
007800
00F800
79F000
FFE000
7FC000
1F0000
ENDCHAR
STARTCHAR 0100
ENCODING 256
SWIDTH 734 0
DWIDTH 30 0
BBX 30 35 0 0
BITMAP
00FFFC00
00FFFC00
00000000
00000000
00000000
00000000
00078000
000FC000
000FC000
001FE000
001FE000
003DE000
003CF000
0038F000
00787800
00787800
00F03C00
00F03C00
01E03E00
01E01E00
03E01E00
03C00F00
03C00F00
07800780
07800780
0FFFFFC0
0FFFFFC0
1FFFFFE0
1E0001E0
3E0001E0
3C0000F0
3C0000F0
780000F8
78000078
F000007C
ENDCHAR
STARTCHAR 0101
ENCODING 257
SWIDTH 587 0
DWIDTH 24 0
BBX 19 29 2 0
BITMAP
1FFF80
1FFF80
000000
000000
000000
000000
000000
03FC00
1FFF00
7FFF80
7F3FC0
3007C0
0003E0
0001E0
0001E0
0001E0
03FFE0
1FFFE0
3FFFE0
7C01E0
F001E0
F001E0
F001E0
F003E0
F807E0
7C1FE0
7FFFE0
1FFDE0
07E1E0
ENDCHAR
STARTCHAR 0102
ENCODING 258
SWIDTH 734 0
DWIDTH 30 0
BBX 30 37 0 0
BITMAP
00E01C00
00E01800
00703800
007CF800
003FF000
000FC000
00000000
00000000
00078000
000FC000
000FC000
001FE000
001FE000
003DE000
003CF000
0038F000
00787800
00787800
00F03C00
00F03C00
01E03E00
01E01E00
03E01E00
03C00F00
03C00F00
07800780
07800780
0FFFFFC0
0FFFFFC0
1FFFFFE0
1E0001E0
3E0001E0
3C0000F0
3C0000F0
780000F8
78000078
F000007C
ENDCHAR
STARTCHAR 0103
ENCODING 259
SWIDTH 587 0
DWIDTH 24 0
BBX 19 30 2 0
BITMAP
1C0300
0E0700
0F0F00
07FE00
03F800
000000
000000
000000
03FC00
1FFF00
7FFF80
7F3FC0
3007C0
0003E0
0001E0
0001E0
0001E0
03FFE0
1FFFE0
3FFFE0
7C01E0
F001E0
F001E0
F001E0
F003E0
F807E0
7C1FE0
7FFFE0
1FFDE0
07E1E0
ENDCHAR
STARTCHAR 0104
ENCODING 260
SWIDTH 734 0
DWIDTH 30 0
BBX 31 38 0 -9
BITMAP
00078000
000FC000
000FC000
001FE000
001FE000
003DE000
003CF000
0038F000
00787800
00787800
00F03C00
00F03C00
01E03E00
01E01E00
03E01E00
03C00F00
03C00F00
07800780
07800780
0FFFFFC0
0FFFFFC0
1FFFFFE0
1E0001E0
3E0001E0
3C0000F0
3C0000F0
780000F8
78000078
F000007C
00000078
000000E0
000001C0
00000180
00000380
00000380
000001C4
000001FE
0000007C
ENDCHAR
STARTCHAR 0105
ENCODING 261
SWIDTH 587 0
DWIDTH 24 0
BBX 20 31 2 -9
BITMAP
03FC00
1FFF00
7FFF80
7F3FC0
3007C0
0003E0
0001E0
0001E0
0001E0
03FFE0
1FFFE0
3FFFE0
7C01E0
F001E0
F001E0
F001E0
F003E0
F807E0
7C1FE0
7FFFE0
1FFDE0
07E1E0
0003C0
000700
000E00
001C00
001C00
001C00
001E20
000FF0
0003E0
ENDCHAR
STARTCHAR 0106
ENCODING 262
SWIDTH 734 0
DWIDTH 30 0
BBX 26 38 2 -1
BITMAP
0000FC00
0001F000
0003E000
00078000
000F0000
00000000
00000000
001FE000
00FFFC00
01FFFF00
07FFFF80
0FE00FC0
1F800780
1F000100
3E000000
7C000000
78000000
78000000
F8000000
F0000000
F0000000
F0000000
F0000000
F0000000
F0000000
F0000000
F8000000
78000000
7C000000
7C000000
3E000000
1F000100
1F800780
0FE00FC0
07FFFF80
03FFFF00
00FFFC00
001FE000
ENDCHAR
STARTCHAR 0107
ENCODING 263
SWIDTH 563 0
DWIDTH 23 0
BBX 20 30 2 0
BITMAP
000F80
001F00
003C00
007800
00F000
000000
000000
000000
00FE00
07FF80
0FFFC0
1FCFE0
3E01F0
7C00E0
780000
F00000
F00000
F00000
F00000
F00000
F00000
F00000
F00000
780000
7C00E0
3E01F0
1FCFE0
0FFFC0
07FF80
01FE00
ENDCHAR
STARTCHAR 0108
ENCODING 264
SWIDTH 734 0
DWIDTH 30 0
BBX 26 38 2 -1
BITMAP
000F8000
001FE000
003CF000
00787800
00F03C00
00000000
00000000
001FE000
00FFFC00
01FFFF00
07FFFF80
0FE00FC0
1F800780
1F000100
3E000000
7C000000
78000000
78000000
F8000000
F0000000
F0000000
F0000000
F0000000
F0000000
F0000000
F0000000
F8000000
78000000
7C000000
7C000000
3E000000
1F000100
1F800780
0FE00FC0
07FFFF80
03FFFF00
00FFFC00
001FE000
ENDCHAR
STARTCHAR 0109
ENCODING 265
SWIDTH 563 0
DWIDTH 23 0
BBX 20 30 2 0
BITMAP
00F800
01FC00
03DE00
070F00
0E0380
000000
000000
000000
00FE00
07FF80
0FFFC0
1FCFE0
3E01F0
7C00E0
780000
F00000
F00000
F00000
F00000
F00000
F00000
F00000
F00000
780000
7C00E0
3E01F0
1FCFE0
0FFFC0
07FF80
01FE00
ENDCHAR
STARTCHAR 010A
ENCODING 266
SWIDTH 734 0
DWIDTH 30 0
BBX 26 39 2 -1
BITMAP
00030000
00078000
000F8000
00078000
00070000
00000000
00000000
00000000
001FE000
00FFFC00
01FFFF00
07FFFF80
0FE00FC0
1F800780
1F000100
3E000000
7C000000
78000000
78000000
F8000000
F0000000
F0000000
F0000000
F0000000
F0000000
F0000000
F0000000
F8000000
78000000
7C000000
7C000000
3E000000
1F000100
1F800780
0FE00FC0
07FFFF80
03FFFF00
00FFFC00
001FE000
ENDCHAR
STARTCHAR 010B
ENCODING 267
SWIDTH 563 0
DWIDTH 23 0
BBX 20 30 2 0
BITMAP
007000
00F800
00F800
00F800
007000
000000
000000
000000
00FE00
07FF80
0FFFC0
1FCFE0
3E01F0
7C00E0
780000
F00000
F00000
F00000
F00000
F00000
F00000
F00000
F00000
780000
7C00E0
3E01F0
1FCFE0
0FFFC0
07FF80
01FE00
ENDCHAR
STARTCHAR 010C
ENCODING 268
SWIDTH 734 0
DWIDTH 30 0
BBX 26 38 2 -1
BITMAP
00F03C00
0078F000
003DE000
001FC000
000F8000
00000000
00000000
001FE000
00FFFC00
01FFFF00
07FFFF80
0FE00FC0
1F800780
1F000100
3E000000
7C000000
78000000
78000000
F8000000
F0000000
F0000000
F0000000
F0000000
F0000000
F0000000
F0000000
F8000000
78000000
7C000000
7C000000
3E000000
1F000100
1F800780
0FE00FC0
07FFFF80
03FFFF00
00FFFC00
001FE000
ENDCHAR
STARTCHAR 010D
ENCODING 269
SWIDTH 563 0
DWIDTH 23 0
BBX 20 30 2 0
BITMAP
0F0780
078F00
03DE00
01FC00
00F800
000000
000000
000000
00FE00
07FF80
0FFFC0
1FCFE0
3E01F0
7C00E0
780000
F00000
F00000
F00000
F00000
F00000
F00000
F00000
F00000
780000
7C00E0
3E01F0
1FCFE0
0FFFC0
07FF80
01FE00
ENDCHAR
STARTCHAR 010E
ENCODING 270
SWIDTH 832 0
DWIDTH 34 0
BBX 28 36 4 0
BITMAP
0783C000
03C78000
01EF0000
00FE0000
007C0000
00000000
00000000
FFFF8000
FFFFF000
FFFFFC00
FFFFFE00
F0007F00
F0001F80
F0000FC0
F00007C0
F00003E0
F00001E0
F00001E0
F00001F0
F00000F0
F00000F0
F00000F0
F00000F0
F00000F0
F00001F0
F00001E0
F00001E0
F00003E0
F00007C0
F0000FC0
F0001F80
F0007F00
FFFFFE00
FFFFFC00
FFFFF000
FFFF8000
ENDCHAR
STARTCHAR 010F
ENCODING 271
SWIDTH 685 0
DWIDTH 28 0
BBX 29 31 2 0
BITMAP
00000038
00003C38
00003C38
00003C38
00003C38
00003C38
00003C38
00003C38
00003C00
01FC3C00
07FF3C00
1FFFBC00
3FCFFC00
3E01FC00
7C00FC00
78007C00
F0003C00
F0003C00
F0003C00
F0003C00
F0003C00
F0003C00
F0003C00
F0003C00
78007C00
7C00FC00
3E01FC00
3FCFFC00
1FFFBC00
07FF3C00
01FC3C00
ENDCHAR
STARTCHAR 0110
ENCODING 272
SWIDTH 832 0
DWIDTH 34 0
BBX 32 29 0 0
BITMAP
07FFF800
07FFFF00
07FFFFC0
07FFFFE0
078007F0
078001F8
0780007C
0780003E
0780003E
0780001E
0780001F
0780000F
0780000F
FFFF800F
FFFF800F
FFFF800F
0780000F
0780000F
0780001F
0780001E
0780001E
0780003E
0780007C
078000F8
078003F0
07FFFFE0
07FFFFC0
07FFFF00
07FFF800
ENDCHAR
STARTCHAR 0111
ENCODING 273
SWIDTH 685 0
DWIDTH 28 0
BBX 26 30 2 0
BITMAP
00003C00
00003C00
00003C00
003FFFC0
003FFFC0
003FFFC0
00003C00
00003C00
01FC3C00
07FF3C00
1FFFBC00
3FCFFC00
3E01FC00
7C00FC00
78007C00
F0003C00
F0003C00
F0003C00
F0003C00
F0003C00
F0003C00
F0003C00
F0003C00
78007C00
7C00FC00
3E01FC00
3FCFFC00
1FFFBC00
07FF3C00
01FC3C00
ENDCHAR
STARTCHAR 0112
ENCODING 274
SWIDTH 661 0
DWIDTH 27 0
BBX 21 35 4 0
BITMAP
0FFF80
0FFF80
000000
000000
000000
000000
FFFFF0
FFFFF0
FFFFF0
FFFFF0
F00000
F00000
F00000
F00000
F00000
F00000
F00000
F00000
F00000
FFFFE0
FFFFE0
FFFFE0
F00000
F00000
F00000
F00000
F00000
F00000
F00000
F00000
F00000
FFFFF8
FFFFF8
FFFFF8
FFFFF8
ENDCHAR
STARTCHAR 0113
ENCODING 275
SWIDTH 612 0
DWIDTH 25 0
BBX 21 29 2 0
BITMAP
0FFF80
0FFF80
000000
000000
000000
000000
000000
01FC00
07FF00
1FFFC0
3F8FE0
3C01F0
7800F0
780078
F00078
F00078
FFFFF8
FFFFF8
FFFFF8
F00000
F00000
F00000
780000
7C0040
3E00E0
1FEFF0
0FFFE0
07FF80
00FE00
ENDCHAR
STARTCHAR 0114
ENCODING 276
SWIDTH 661 0
DWIDTH 27 0
BBX 21 37 4 0
BITMAP
0C0380
0E0380
0E0380
078F00
03FE00
00F800
000000
000000
FFFFF0
FFFFF0
FFFFF0
FFFFF0
F00000
F00000
F00000
F00000
F00000
F00000
F00000
F00000
F00000
FFFFE0
FFFFE0
FFFFE0
F00000
F00000
F00000
F00000
F00000
F00000
F00000
F00000
F00000
FFFFF8
FFFFF8
FFFFF8
FFFFF8
ENDCHAR
STARTCHAR 0115
ENCODING 277
SWIDTH 612 0
DWIDTH 25 0
BBX 21 30 2 0
BITMAP
0E0380
0E0380
070700
03FE00
01FC00
000000
000000
000000
01FC00
07FF00
1FFFC0
3F8FE0
3C01F0
7800F0
780078
F00078
F00078
FFFFF8
FFFFF8
FFFFF8
F00000
F00000
F00000
780000
7C0040
3E00E0
1FEFF0
0FFFE0
07FF80
00FE00
ENDCHAR
STARTCHAR 0116
ENCODING 278
SWIDTH 661 0
DWIDTH 27 0
BBX 21 37 4 0
BITMAP
007000
00F800
00F800
00F800
007000
000000
000000
000000
FFFFF0
FFFFF0
FFFFF0
FFFFF0
F00000
F00000
F00000
F00000
F00000
F00000
F00000
F00000
F00000
FFFFE0
FFFFE0
FFFFE0
F00000
F00000
F00000
F00000
F00000
F00000
F00000
F00000
F00000
FFFFF8
FFFFF8
FFFFF8
FFFFF8
ENDCHAR
STARTCHAR 0117
ENCODING 279
SWIDTH 612 0
DWIDTH 25 0
BBX 21 30 2 0
BITMAP
007000
00F800
00F800
00F800
007000
000000
000000
000000
01FC00
07FF00
1FFFC0
3F8FE0
3C01F0
7800F0
780078
F00078
F00078
FFFFF8
FFFFF8
FFFFF8
F00000
F00000
F00000
780000
7C0040
3E00E0
1FEFF0
0FFFE0
07FF80
00FE00
ENDCHAR
STARTCHAR 0118
ENCODING 280
SWIDTH 661 0
DWIDTH 27 0
BBX 22 38 4 -9
BITMAP
FFFFF0
FFFFF0
FFFFF0
FFFFF0
F00000
F00000
F00000
F00000
F00000
F00000
F00000
F00000
F00000
FFFFE0
FFFFE0
FFFFE0
F00000
F00000
F00000
F00000
F00000
F00000
F00000
F00000
F00000
FFFFF8
FFFFF8
FFFFF8
FFFFF8
0000F0
0001C0
000380
000300
000700
000700
000380
0003FC
0001FC
ENDCHAR
STARTCHAR 0119
ENCODING 281
SWIDTH 612 0
DWIDTH 25 0
BBX 21 31 2 -9
BITMAP
01FC00
07FF00
1FFFC0
3F8FE0
3C01F0
7800F0
780078
F00078
F00078
FFFFF8
FFFFF8
FFFFF8
F00000
F00000
F00000
780000
7C0040
3E00E0
1FEFF0
0FFFE0
07FFC0
00FF80
000F00
000E00
001C00
001C00
001C00
001C00
001E20
000FE0
0007C0
ENDCHAR
STARTCHAR 011A
ENCODING 282
SWIDTH 661 0
DWIDTH 27 0
BBX 21 36 4 0
BITMAP
0F0780
078F00
03DE00
01FC00
00F800
000000
000000
FFFFF0
FFFFF0
FFFFF0
FFFFF0
F00000
F00000
F00000
F00000
F00000
F00000
F00000
F00000
F00000
FFFFE0
FFFFE0
FFFFE0
F00000
F00000
F00000
F00000
F00000
F00000
F00000
F00000
F00000
FFFFF8
FFFFF8
FFFFF8
FFFFF8
ENDCHAR
STARTCHAR 011B
ENCODING 283
SWIDTH 612 0
DWIDTH 25 0
BBX 21 30 2 0
BITMAP
0F0780
078F00
03DE00
01FC00
00F800
000000
000000
000000
01FC00
07FF00
1FFFC0
3F8FE0
3C01F0
7800F0
780078
F00078
F00078
FFFFF8
FFFFF8
FFFFF8
F00000
F00000
F00000
780000
7C0040
3E00E0
1FEFF0
0FFFE0
07FF80
00FE00
ENDCHAR
STARTCHAR 011C
ENCODING 284
SWIDTH 783 0
DWIDTH 32 0
BBX 26 38 2 -1
BITMAP
000F8000
001FC000
003DE000
00787800
00F03C00
00000000
00000000
001FE000
00FFFC00
01FFFE00
07FFFF00
0FE00F80
1F8003C0
1F000180
3E000000
7C000000
78000000
78000000
F8000000
F0000000
F0000000
F0000000
F00003C0
F00003C0
F00003C0
F00003C0
F80003C0
780003C0
7C0003C0
7C0003C0
3E0003C0
1F0003C0
1F8003C0
0FE00FC0
07FFFFC0
03FFFF00
00FFFE00
001FE000
ENDCHAR
STARTCHAR 011D
ENCODING 285
SWIDTH 685 0
DWIDTH 28 0
BBX 22 38 2 -8
BITMAP
007C00
00FE00
01EF00
038780
0701C0
000000
000000
000000
01FC1C
07FF1C
1FFFDC
3FCFFC
3E01FC
7C007C
F8007C
F0003C
F0003C
F0001C
F0001C
F0001C
F0003C
F0003C
F8007C
7C007C
7E01FC
3FCFFC
1FFFFC
07FF3C
01FC3C
00003C
00003C
00003C
300078
3C00F8
7FCFF0
3FFFE0
0FFFC0
01FE00
ENDCHAR
STARTCHAR 011E
ENCODING 286
SWIDTH 783 0
DWIDTH 32 0
BBX 26 38 2 -1
BITMAP
00E01800
00E03800
00787800
003FF000
001FC000
00000000
00000000
001FE000
00FFFC00
01FFFE00
07FFFF00
0FE00F80
1F8003C0
1F000180
3E000000
7C000000
78000000
78000000
F8000000
F0000000
F0000000
F0000000
F00003C0
F00003C0
F00003C0
F00003C0
F80003C0
780003C0
7C0003C0
7C0003C0
3E0003C0
1F0003C0
1F8003C0
0FE00FC0
07FFFFC0
03FFFF00
00FFFE00
001FE000
ENDCHAR
STARTCHAR 011F
ENCODING 287
SWIDTH 685 0
DWIDTH 28 0
BBX 22 38 2 -8
BITMAP
0701C0
0701C0
038380
03FF00
00FE00
000000
000000
000000
01FC1C
07FF1C
1FFFDC
3FCFFC
3E01FC
7C007C
F8007C
F0003C
F0003C
F0001C
F0001C
F0001C
F0003C
F0003C
F8007C
7C007C
7E01FC
3FCFFC
1FFFFC
07FF3C
01FC3C
00003C
00003C
00003C
300078
3C00F8
7FCFF0
3FFFE0
0FFFC0
01FE00
ENDCHAR
STARTCHAR 0120
ENCODING 288
SWIDTH 783 0
DWIDTH 32 0
BBX 26 39 2 -1
BITMAP
00030000
00078000
000F8000
000F8000
00070000
00000000
00000000
00000000
001FE000
00FFFC00
01FFFE00
07FFFF00
0FE00F80
1F8003C0
1F000180
3E000000
7C000000
78000000
78000000
F8000000
F0000000
F0000000
F0000000
F00003C0
F00003C0
F00003C0
F00003C0
F80003C0
780003C0
7C0003C0
7C0003C0
3E0003C0
1F0003C0
1F8003C0
0FE00FC0
07FFFFC0
03FFFF00
00FFFE00
001FE000
ENDCHAR
STARTCHAR 0121
ENCODING 289
SWIDTH 685 0
DWIDTH 28 0
BBX 22 38 2 -8
BITMAP
003800
007C00
007C00
007C00
003800
000000
000000
000000
01FC1C
07FF1C
1FFFDC
3FCFFC
3E01FC
7C007C
F8007C
F0003C
F0003C
F0001C
F0001C
F0001C
F0003C
F0003C
F8007C
7C007C
7E01FC
3FCFFC
1FFFFC
07FF3C
01FC3C
00003C
00003C
00003C
300078
3C00F8
7FCFF0
3FFFE0
0FFFC0
01FE00
ENDCHAR
STARTCHAR 0122
ENCODING 290
SWIDTH 783 0
DWIDTH 32 0
BBX 26 41 2 -11
BITMAP
001FE000
00FFFC00
01FFFE00
07FFFF00
0FE00F80
1F8003C0
1F000180
3E000000
7C000000
78000000
78000000
F8000000
F0000000
F0000000
F0000000
F00003C0
F00003C0
F00003C0
F00003C0
F80003C0
780003C0
7C0003C0
7C0003C0
3E0003C0
1F0003C0
1F8003C0
0FE00FC0
07FFFFC0
03FFFF00
00FFFE00
001FE000
00000000
00000000
00000000
00070000
00078000
00078000
00070000
00030000
00060000
00060000
ENDCHAR
STARTCHAR 0123
ENCODING 291
SWIDTH 685 0
DWIDTH 28 0
BBX 22 41 2 -8
BITMAP
001800
001800
003800
003800
003800
007C00
007C00
003800
000000
000000
000000
01FC1C
07FF1C
1FFFDC
3FCFFC
3E01FC
7C007C
F8007C
F0003C
F0003C
F0001C
F0001C
F0001C
F0003C
F0003C
F8007C
7C007C
7E01FC
3FCFFC
1FFFFC
07FF3C
01FC3C
00003C
00003C
00003C
300078
3C00F8
7FCFF0
3FFFE0
0FFFC0
01FE00
ENDCHAR
STARTCHAR 0124
ENCODING 292
SWIDTH 808 0
DWIDTH 33 0
BBX 25 36 4 0
BITMAP
003E0000
007F0000
00F78000
01E3C000
0380E000
00000000
00000000
F0000780
F0000780
F0000780
F0000780
F0000780
F0000780
F0000780
F0000780
F0000780
F0000780
F0000780
F0000780
FFFFFF80
FFFFFF80
FFFFFF80
FFFFFF80
F0000780
F0000780
F0000780
F0000780
F0000780
F0000780
F0000780
F0000780
F0000780
F0000780
F0000780
F0000780
F0000780
ENDCHAR
STARTCHAR 0125
ENCODING 293
SWIDTH 685 0
DWIDTH 28 0
BBX 25 37 -1 0
BITMAP
0F800000
1FC00000
3DE00000
78700000
F0380000
00000000
00000000
07800000
07800000
07800000
07800000
07800000
07800000
07800000
07800000
0787F000
079FFC00
07FFFE00
07FFFF00
07F01F00
07C00F80
07C00780
07800780
07800780
07800780
07800780
07800780
07800780
07800780
07800780
07800780
07800780
07800780
07800780
07800780
07800780
07800780
ENDCHAR
STARTCHAR 0126
ENCODING 294
SWIDTH 832 0
DWIDTH 34 0
BBX 33 29 0 0
BITMAP
0780007800
0780007800
0780007800
0780007800
0780007800
FFFFFFFF80
FFFFFFFF80
FFFFFFFF80
0780007800
0780007800
0780007800
0780007800
07FFFFF800
07FFFFF800
07FFFFF800
07FFFFF800
0780007800
0780007800
0780007800
0780007800
0780007800
0780007800
0780007800
0780007800
0780007800
0780007800
0780007800
0780007800
0780007800
ENDCHAR
STARTCHAR 0127
ENCODING 295
SWIDTH 685 0
DWIDTH 28 0
BBX 24 30 0 0
BITMAP
0F0000
0F0000
0F0000
FFFF00
FFFF00
FFFF00
0F0000
0F0000
0F0FE0
0F3FF8
0FFFFC
0FFFFE
0FE03E
0F801F
0F800F
0F000F
0F000F
0F000F
0F000F
0F000F
0F000F
0F000F
0F000F
0F000F
0F000F
0F000F
0F000F
0F000F
0F000F
0F000F
ENDCHAR
STARTCHAR 0128
ENCODING 296
SWIDTH 318 0
DWIDTH 13 0
BBX 13 37 0 0
BITMAP
3800
7E18
FF38
C7F0
C1F0
0000
0000
0000
0F00
0F00
0F00
0F00
0F00
0F00
0F00
0F00
0F00
0F00
0F00
0F00
0F00
0F00
0F00
0F00
0F00
0F00
0F00
0F00
0F00
0F00
0F00
0F00
0F00
0F00
0F00
0F00
0F00
ENDCHAR
STARTCHAR 0129
ENCODING 297
SWIDTH 269 0
DWIDTH 11 0
BBX 12 30 0 0
BITMAP
7870
FC60
EFE0
C7E0
C3C0
0000
0000
0000
0F00
0F00
0F00
0F00
0F00
0F00
0F00
0F00
0F00
0F00
0F00
0F00
0F00
0F00
0F00
0F00
0F00
0F00
0F00
0F00
0F00
0F00
ENDCHAR
STARTCHAR 012A
ENCODING 298
SWIDTH 318 0
DWIDTH 13 0
BBX 11 35 1 0
BITMAP
FFE0
FFE0
0000
0000
0000
0000
1E00
1E00
1E00
1E00
1E00
1E00
1E00
1E00
1E00
1E00
1E00
1E00
1E00
1E00
1E00
1E00
1E00
1E00
1E00
1E00
1E00
1E00
1E00
1E00
1E00
1E00
1E00
1E00
1E00
ENDCHAR
STARTCHAR 012B
ENCODING 299
SWIDTH 269 0
DWIDTH 11 0
BBX 11 29 0 0
BITMAP
FFE0
FFE0
0000
0000
0000
0000
0000
0F00
0F00
0F00
0F00
0F00
0F00
0F00
0F00
0F00
0F00
0F00
0F00
0F00
0F00
0F00
0F00
0F00
0F00
0F00
0F00
0F00
0F00
ENDCHAR
STARTCHAR 012C
ENCODING 300
SWIDTH 318 0
DWIDTH 13 0
BBX 13 37 0 0
BITMAP
C038
E038
E078
78F0
3FE0
1F80
0000
0000
0F00
0F00
0F00
0F00
0F00
0F00
0F00
0F00
0F00
0F00
0F00
0F00
0F00
0F00
0F00
0F00
0F00
0F00
0F00
0F00
0F00
0F00
0F00
0F00
0F00
0F00
0F00
0F00
0F00
ENDCHAR
STARTCHAR 012D
ENCODING 301
SWIDTH 269 0
DWIDTH 11 0
BBX 11 31 0 0
BITMAP
E060
E060
E0E0
79C0
3FC0
1F00
0000
0000
0000
0F00
0F00
0F00
0F00
0F00
0F00
0F00
0F00
0F00
0F00
0F00
0F00
0F00
0F00
0F00
0F00
0F00
0F00
0F00
0F00
0F00
0F00
ENDCHAR
STARTCHAR 012E
ENCODING 302
SWIDTH 318 0
DWIDTH 13 0
BBX 7 39 3 -10
BITMAP
78
78
78
78
78
78
78
78
78
78
78
78
78
78
78
78
78
78
78
78
78
78
78
78
78
78
78
78
78
38
70
70
60
E0
E0
E0
F0
7E
3C
ENDCHAR
STARTCHAR 012F
ENCODING 303
SWIDTH 269 0
DWIDTH 11 0
BBX 7 41 2 -10
BITMAP
38
7C
7C
7C
38
00
00
00
00
3C
3C
3C
3C
3C
3C
3C
3C
3C
3C
3C
3C
3C
3C
3C
3C
3C
3C
3C
3C
3C
3C
38
30
70
60
60
E0
E0
72
7E
3C
ENDCHAR
STARTCHAR 0130
ENCODING 304
SWIDTH 318 0
DWIDTH 13 0
BBX 5 37 4 0
BITMAP
70
F8
F8
F8
70
00
00
00
F0
F0
F0
F0
F0
F0
F0
F0
F0
F0
F0
F0
F0
F0
F0
F0
F0
F0
F0
F0
F0
F0
F0
F0
F0
F0
F0
F0
F0
ENDCHAR
STARTCHAR 0131
ENCODING 305
SWIDTH 269 0
DWIDTH 11 0
BBX 4 22 4 0
BITMAP
F0
F0
F0
F0
F0
F0
F0
F0
F0
F0
F0
F0
F0
F0
F0
F0
F0
F0
F0
F0
F0
F0
ENDCHAR
STARTCHAR 0132
ENCODING 306
SWIDTH 710 0
DWIDTH 29 0
BBX 21 30 4 -1
BITMAP
F00078
F00078
F00078
F00078
F00078
F00078
F00078
F00078
F00078
F00078
F00078
F00078
F00078
F00078
F00078
F00078
F00078
000078
000078
000078
000078
000078
0000F8
0000F0
4001F0
F803E0
FFFFC0
FFFF80
3FFF00
07F800
ENDCHAR
STARTCHAR 0133
ENCODING 307
SWIDTH 563 0
DWIDTH 23 0
BBX 17 39 3 -8
BITMAP
700700
F80F80
F80F80
F80F80
700700
000000
000000
000000
000000
780F00
780F00
780F00
780F00
780F00
780F00
780F00
780F00
780F00
780F00
780F00
780F00
780F00
780F00
780F00
780F00
780F00
780F00
780F00
780F00
780F00
780F00
000F00
000F00
000F00
000F00
033F00
07FE00
07FC00
03F000
ENDCHAR
STARTCHAR 0134
ENCODING 308
SWIDTH 514 0
DWIDTH 21 0
BBX 17 37 0 -1
BITMAP
01F000
03F800
079E00
0F0F00
1E0780
000000
000000
1FFF80
1FFF80
1FFF80
1FFF80
000780
000780
000780
000780
000780
000780
000780
000780
000780
000780
000780
000780
000780
000780
000780
000780
000780
000780
000780
400F80
600F00
F81F00
FFFE00
7FFE00
3FFC00
07E000
ENDCHAR
STARTCHAR 0135
ENCODING 309
SWIDTH 293 0
DWIDTH 12 0
BBX 16 38 -4 -8
BITMAP
01F0
01F8
03BC
071E
0E0F
0000
0000
0000
00F0
00F0
00F0
00F0
00F0
00F0
00F0
00F0
00F0
00F0
00F0
00F0
00F0
00F0
00F0
00F0
00F0
00F0
00F0
00F0
00F0
00F0
00F0
00F0
00F0
01E0
63E0
7FE0
FFC0
3F00
ENDCHAR
STARTCHAR 0136
ENCODING 310
SWIDTH 710 0
DWIDTH 29 0
BBX 25 40 4 -11
BITMAP
F0001F00
F0003E00
F0007C00
F0007800
F000F000
F001E000
F003C000
F007C000
F00F8000
F01F0000
F03E0000
F07C0000
F0F80000
F1F80000
F3FC0000
F7FC0000
FFBE0000
FF1F0000
FE0F8000
FC0FC000
F807C000
F003E000
F001F000
F000F800
F0007C00
F0003C00
F0003E00
F0001F00
F0000F80
00000000
00000000
00000000
00000000
00380000
00780000
00780000
00380000
00380000
00300000
00300000
ENDCHAR
STARTCHAR 0137
ENCODING 311
SWIDTH 612 0
DWIDTH 25 0
BBX 21 41 4 -11
BITMAP
F00000
F00000
F00000
F00000
F00000
F00000
F00000
F00000
F001F0
F003E0
F007C0
F00F80
F01F00
F03E00
F0FC00
F1F800
F3F000
F7E000
FFF000
FFF800
FE7C00
FC7C00
F83E00
F01F00
F00F80
F007C0
F007C0
F003E0
F001F0
F000F8
000000
000000
000000
000000
01C000
01E000
01E000
00E000
00C000
01C000
018000
ENDCHAR
STARTCHAR 0138
ENCODING 312
SWIDTH 612 0
DWIDTH 25 0
BBX 21 22 4 0
BITMAP
F001F0
F003E0
F007C0
F00F80
F01F00
F03E00
F0FC00
F1F800
F3F000
F7E000
FFF000
FFF800
FE7C00
FC7C00
F83E00
F01F00
F00F80
F007C0
F007C0
F003E0
F001F0
F000F8
ENDCHAR
STARTCHAR 0139
ENCODING 313
SWIDTH 587 0
DWIDTH 24 0
BBX 20 36 4 0
BITMAP
0F8000
1E0000
3C0000
780000
F00000
000000
000000
F00000
F00000
F00000
F00000
F00000
F00000
F00000
F00000
F00000
F00000
F00000
F00000
F00000
F00000
F00000
F00000
F00000
F00000
F00000
F00000
F00000
F00000
F00000
F00000
F00000
FFFFF0
FFFFF0
FFFFF0
FFFFF0
ENDCHAR
STARTCHAR 013A
ENCODING 314
SWIDTH 269 0
DWIDTH 11 0
BBX 10 38 3 0
BITMAP
0FC0
1F00
3E00
7800
F000
0000
0000
0000
7800
7800
7800
7800
7800
7800
7800
7800
7800
7800
7800
7800
7800
7800
7800
7800
7800
7800
7800
7800
7800
7800
7800
7800
7800
7800
7800
7800
7800
7800
ENDCHAR
STARTCHAR 013B
ENCODING 315
SWIDTH 587 0
DWIDTH 24 0
BBX 20 40 4 -11
BITMAP
F00000
F00000
F00000
F00000
F00000
F00000
F00000
F00000
F00000
F00000
F00000
F00000
F00000
F00000
F00000
F00000
F00000
F00000
F00000
F00000
F00000
F00000
F00000
F00000
F00000
FFFFF0
FFFFF0
FFFFF0
FFFFF0
000000
000000
000000
000000
007000
007800
007800
007000
007000
006000
006000
ENDCHAR
STARTCHAR 013C
ENCODING 316
SWIDTH 269 0
DWIDTH 11 0
BBX 4 41 4 -11
BITMAP
F0
F0
F0
F0
F0
F0
F0
F0
F0
F0
F0
F0
F0
F0
F0
F0
F0
F0
F0
F0
F0
F0
F0
F0
F0
F0
F0
F0
F0
F0
00
00
00
00
E0
F0
F0
60
60
E0
C0
ENDCHAR
STARTCHAR 013D
ENCODING 317
SWIDTH 587 0
DWIDTH 24 0
BBX 20 30 4 0
BITMAP
000380
F00380
F00380
F00380
F00380
F00380
F00380
F00380
F00000
F00000
F00000
F00000
F00000
F00000
F00000
F00000
F00000
F00000
F00000
F00000
F00000
F00000
F00000
F00000
F00000
F00000
FFFFF0
FFFFF0
FFFFF0
FFFFF0
ENDCHAR
STARTCHAR 013E
ENCODING 318
SWIDTH 269 0
DWIDTH 11 0
BBX 10 31 4 0
BITMAP
01C0
F1C0
F1C0
F1C0
F1C0
F1C0
F1C0
F1C0
F000
F000
F000
F000
F000
F000
F000
F000
F000
F000
F000
F000
F000
F000
F000
F000
F000
F000
F000
F000
F000
F000
F000
ENDCHAR
STARTCHAR 013F
ENCODING 319
SWIDTH 587 0
DWIDTH 24 0
BBX 20 29 4 0
BITMAP
F00000
F00000
F00000
F00000
F00000
F00000
F00000
F00000
F00000
F00000
F00700
F00F80
F00F80
F00F80
F00700
F00000
F00000
F00000
F00000
F00000
F00000
F00000
F00000
F00000
F00000
FFFFF0
FFFFF0
FFFFF0
FFFFF0
ENDCHAR
STARTCHAR 0140
ENCODING 320
SWIDTH 342 0
DWIDTH 14 0
BBX 11 30 4 0
BITMAP
F000
F000
F000
F000
F000
F000
F000
F000
F000
F000
F000
F000
F000
F0C0
F1E0
F3E0
F1E0
F1C0
F000
F000
F000
F000
F000
F000
F000
F000
F000
F000
F000
F000
ENDCHAR
STARTCHAR 0141
ENCODING 321
SWIDTH 612 0
DWIDTH 25 0
BBX 23 29 1 0
BITMAP
0F0000
0F0000
0F0000
0F0000
0F0000
0F0000
0F0800
0F3800
0F7C00
0FF800
0FE000
0FC000
0F8000
1F0000
3F0000
FF0000
FF0000
EF0000
0F0000
0F0000
0F0000
0F0000
0F0000
0F0000
0F0000
0FFFFE
0FFFFE
0FFFFE
0FFFFE
ENDCHAR
STARTCHAR 0142
ENCODING 322
SWIDTH 293 0
DWIDTH 12 0
BBX 12 30 0 0
BITMAP
0F00
0F00
0F00
0F00
0F00
0F00
0F00
0F00
0F00
0F00
0F20
0F60
0FF0
0FE0
0FC0
0F00
3F00
7F00
FF00
EF00
4F00
0F00
0F00
0F00
0F00
0F00
0F00
0F00
0F00
0F00
ENDCHAR
STARTCHAR 0143
ENCODING 323
SWIDTH 808 0
DWIDTH 33 0
BBX 25 36 4 0
BITMAP
0003E000
0007C000
000F0000
001E0000
003C0000
00000000
00000000
F0000780
F8000780
FC000780
FC000780
FE000780
FF000780
FF800780
FFC00780
F7C00780
F3E00780
F1F00780
F0F80780
F0FC0780
F07C0780
F03E0780
F01F0780
F00F8780
F00FC780
F007C780
F003E780
F001F780
F000FF80
F000FF80
F0007F80
F0003F80
F0001F80
F0000F80
F0000F80
F0000780
ENDCHAR
STARTCHAR 0144
ENCODING 324
SWIDTH 685 0
DWIDTH 28 0
BBX 20 30 4 0
BITMAP
000F80
001E00
003C00
007800
01E000
000000
000000
000000
E0FE00
E3FF80
EFFFC0
FFFFE0
FE03E0
F801F0
F800F0
F000F0
F000F0
F000F0
F000F0
F000F0
F000F0
F000F0
F000F0
F000F0
F000F0
F000F0
F000F0
F000F0
F000F0
F000F0
ENDCHAR
STARTCHAR 0145
ENCODING 325
SWIDTH 808 0
DWIDTH 33 0
BBX 25 40 4 -11
BITMAP
F0000780
F8000780
FC000780
FC000780
FE000780
FF000780
FF800780
FFC00780
F7C00780
F3E00780
F1F00780
F0F80780
F0FC0780
F07C0780
F03E0780
F01F0780
F00F8780
F00FC780
F007C780
F003E780
F001F780
F000FF80
F000FF80
F0007F80
F0003F80
F0001F80
F0000F80
F0000F80
F0000780
00000000
00000000
00000000
00000000
001C0000
001E0000
001E0000
001C0000
001C0000
00180000
00180000
ENDCHAR
STARTCHAR 0146
ENCODING 326
SWIDTH 685 0
DWIDTH 28 0
BBX 20 33 4 -11
BITMAP
E0FE00
E3FF80
EFFFC0
FFFFE0
FE03E0
F801F0
F800F0
F000F0
F000F0
F000F0
F000F0
F000F0
F000F0
F000F0
F000F0
F000F0
F000F0
F000F0
F000F0
F000F0
F000F0
F000F0
000000
000000
000000
000000
006000
00F000
00F000
007000
006000
006000
00E000
ENDCHAR
STARTCHAR 0147
ENCODING 327
SWIDTH 808 0
DWIDTH 33 0
BBX 25 36 4 0
BITMAP
03C1E000
01E3C000
00F78000
007F0000
003E0000
00000000
00000000
F0000780
F8000780
FC000780
FC000780
FE000780
FF000780
FF800780
FFC00780
F7C00780
F3E00780
F1F00780
F0F80780
F0FC0780
F07C0780
F03E0780
F01F0780
F00F8780
F00FC780
F007C780
F003E780
F001F780
F000FF80
F000FF80
F0007F80
F0003F80
F0001F80
F0000F80
F0000F80
F0000780
ENDCHAR
STARTCHAR 0148
ENCODING 328
SWIDTH 685 0
DWIDTH 28 0
BBX 20 30 4 0
BITMAP
1E0780
070E00
03FC00
01F800
00F000
000000
000000
000000
E0FE00
E3FF80
EFFFC0
FFFFE0
FE03E0
F801F0
F800F0
F000F0
F000F0
F000F0
F000F0
F000F0
F000F0
F000F0
F000F0
F000F0
F000F0
F000F0
F000F0
F000F0
F000F0
F000F0
ENDCHAR
STARTCHAR 0149
ENCODING 329
SWIDTH 759 0
DWIDTH 31 0
BBX 26 29 2 0
BITMAP
E0000000
E0000000
E0000000
E0000000
E0000000
E0000000
E0000000
E783F000
C79FFC00
C7BFFF00
C7FFFF00
07F00F80
07E00780
07C007C0
07C003C0
07C003C0
078003C0
078003C0
078003C0
078003C0
078003C0
078003C0
078003C0
078003C0
078003C0
078003C0
078003C0
078003C0
078003C0
ENDCHAR
STARTCHAR 014A
ENCODING 330
SWIDTH 808 0
DWIDTH 33 0
BBX 25 37 4 -8
BITMAP
F0000780
F8000780
FC000780
FC000780
FE000780
FF000780
FF800780
FFC00780
F7C00780
F3E00780
F1F00780
F0F80780
F0FC0780
F07C0780
F03E0780
F01F0780
F00F8780
F00FC780
F007C780
F003E780
F001F780
F000FF80
F000FF80
F0007F80
F0003F80
F0001F80
F0001F80
F0000F80
F0000780
00000780
00000F80
00200F00
00381F00
007FFE00
007FFE00
001FFC00
0007E000
ENDCHAR
STARTCHAR 014B
ENCODING 331
SWIDTH 685 0
DWIDTH 28 0
BBX 20 30 4 -8
BITMAP
E0FE00
E3FF80
EFFFC0
FFFFE0
FE03E0
F801F0
F800F0
F000F0
F000F0
F000F0
F000F0
F000F0
F000F0
F000F0
F000F0
F000F0
F000F0
F000F0
F000F0
F000F0
F000F0
F000F0
0000F0
0000F0
0000F0
0000F0
0033F0
007FE0
007FC0
003F00
ENDCHAR
STARTCHAR 014C
ENCODING 332
SWIDTH 832 0
DWIDTH 34 0
BBX 30 37 2 -1
BITMAP
007FFC00
007FFC00
00000000
00000000
00000000
00000000
001FE000
00FFFC00
01FFFF00
07FFFF80
0FE01FC0
1F8007E0
1F0001F0
3E0000F0
7C0000F8
78000078
7800007C
F800003C
F000003C
F000003C
F000003C
F000003C
F000003C
F000003C
F000003C
F800003C
7800007C
78000078
7C0000F8
3E0000F0
1F0001F0
1F8007E0
0FE00FC0
07FFFF80
01FFFF00
00FFFC00
001FE000
ENDCHAR
STARTCHAR 014D
ENCODING 333
SWIDTH 636 0
DWIDTH 26 0
BBX 22 29 2 0
BITMAP
0FFFC0
0FFFC0
000000
000000
000000
000000
000000
00FE00
07FF80
0FFFC0
1FCFE0
3E01F0
7C00F8
780078
F0003C
F0003C
F0003C
F0003C
F0003C
F0003C
F0003C
F0003C
780078
7C00F8
3E01F0
1FCFE0
0FFFC0
07FF80
01FC00
ENDCHAR
STARTCHAR 014E
ENCODING 334
SWIDTH 832 0
DWIDTH 34 0
BBX 30 38 2 -1
BITMAP
00601C00
00701800
00787800
003FF000
000FE000
00000000
00000000
001FE000
00FFFC00
01FFFF00
07FFFF80
0FE01FC0
1F8007E0
1F0001F0
3E0000F0
7C0000F8
78000078
7800007C
F800003C
F000003C
F000003C
F000003C
F000003C
F000003C
F000003C
F000003C
F800003C
7800007C
78000078
7C0000F8
3E0000F0
1F0001F0
1F8007E0
0FE00FC0
07FFFF80
01FFFF00
00FFFC00
001FE000
ENDCHAR
STARTCHAR 014F
ENCODING 335
SWIDTH 636 0
DWIDTH 26 0
BBX 22 30 2 0
BITMAP
0E0180
070380
078780
03FF00
01FC00
000000
000000
000000
00FE00
07FF80
0FFFC0
1FCFE0
3E01F0
7C00F8
780078
F0003C
F0003C
F0003C
F0003C
F0003C
F0003C
F0003C
F0003C
780078
7C00F8
3E01F0
1FCFE0
0FFFC0
07FF80
01FC00
ENDCHAR
STARTCHAR 0150
ENCODING 336
SWIDTH 832 0
DWIDTH 34 0
BBX 30 38 2 -1
BITMAP
00078F00
000F0E00
000E1E00
001E3C00
003C7800
00000000
00000000
001FE000
00FFFC00
01FFFF00
07FFFF80
0FE01FC0
1F8007E0
1F0001F0
3E0000F0
7C0000F8
78000078
7800007C
F800003C
F000003C
F000003C
F000003C
F000003C
F000003C
F000003C
F000003C
F800003C
7800007C
78000078
7C0000F8
3E0000F0
1F0001F0
1F8007E0
0FE00FC0
07FFFF80
01FFFF00
00FFFC00
001FE000
ENDCHAR
STARTCHAR 0151
ENCODING 337
SWIDTH 636 0
DWIDTH 26 0
BBX 22 30 2 0
BITMAP
0078F0
00F1E0
01E1C0
01C380
038780
000000
000000
000000
00FE00
07FF80
0FFFC0
1FCFE0
3E01F0
7C00F8
780078
F0003C
F0003C
F0003C
F0003C
F0003C
F0003C
F0003C
F0003C
780078
7C00F8
3E01F0
1FCFE0
0FFFC0
07FF80
01FC00
ENDCHAR
STARTCHAR 0152
ENCODING 338
SWIDTH 1126 0
DWIDTH 46 0
BBX 42 29 2 0
BITMAP
001FFFFFFF80
00FFFFFFFF80
03FFFFFFFF80
07FFFFFFFF80
0FC007800000
1F8007800000
3E0007800000
3C0007800000
7C0007800000
780007800000
F80007800000
F00007800000
F00007800000
F00007FFFE00
F00007FFFE00
F00007FFFE00
F00007800000
F00007800000
F80007800000
780007800000
7C0007800000
3C0007800000
3E0007800000
1F8007800000
0FE007800000
07FFFFFFFFC0
03FFFFFFFFC0
00FFFFFFFFC0
001FFFFFFFC0
ENDCHAR
STARTCHAR 0153
ENCODING 339
SWIDTH 1077 0
DWIDTH 44 0
BBX 40 22 2 0
BITMAP
00FE003F80
07FF80FFE0
0FFFC3FFF0
1FCFE7F3F8
3E01FF807C
7C00FF003E
78007E001E
F0003E000E
F0003C000F
F0003FFFFF
F0003FFFFF
F0003FFFFF
F0003C0000
F0003E0000
F8003E0000
78007F0000
7C00FF0008
3E01FFC03C
1FCFE7FDFC
0FFFC3FFF8
07FF80FFF0
01FC003FC0
ENDCHAR
STARTCHAR 0154
ENCODING 340
SWIDTH 734 0
DWIDTH 30 0
BBX 24 36 4 0
BITMAP
0007C0
000F00
001E00
003C00
007000
000000
000000
FFFF00
FFFFC0
FFFFF0
FFFFF8
F000FC
F0003C
F0003E
F0001E
F0001E
F0001E
F0001E
F0001E
F0001E
F0003E
F0003C
F000FC
F00FF8
FFFFF0
FFFFC0
FFFF80
F003C0
F003E0
F001E0
F000F0
F000F8
F00078
F0003C
F0003E
F0001F
ENDCHAR
STARTCHAR 0155
ENCODING 341
SWIDTH 416 0
DWIDTH 17 0
BBX 12 30 4 0
BITMAP
01F0
03E0
0780
0F00
1E00
0000
0000
0000
E0E0
E3E0
E7E0
EFE0
FE00
FC00
F800
F000
F000
F000
F000
F000
F000
F000
F000
F000
F000
F000
F000
F000
F000
F000
ENDCHAR
STARTCHAR 0156
ENCODING 342
SWIDTH 734 0
DWIDTH 30 0
BBX 24 40 4 -11
BITMAP
FFFF00
FFFFC0
FFFFF0
FFFFF8
F000FC
F0003C
F0003E
F0001E
F0001E
F0001E
F0001E
F0001E
F0001E
F0003E
F0003C
F000FC
F00FF8
FFFFF0
FFFFC0
FFFF80
F003C0
F003E0
F001E0
F000F0
F000F8
F00078
F0003C
F0003E
F0001F
000000
000000
000000
000000
003800
007800
007800
003800
003000
003000
003000
ENDCHAR
STARTCHAR 0157
ENCODING 343
SWIDTH 416 0
DWIDTH 17 0
BBX 11 33 4 -11
BITMAP
E0E0
E3E0
E7E0
EFE0
FE00
FC00
F800
F000
F000
F000
F000
F000
F000
F000
F000
F000
F000
F000
F000
F000
F000
F000
0000
0000
0000
0000
E000
F000
F000
6000
6000
E000
C000
ENDCHAR
STARTCHAR 0158
ENCODING 344
SWIDTH 734 0
DWIDTH 30 0
BBX 24 36 4 0
BITMAP
0F03C0
03C780
01FF00
00FE00
007C00
000000
000000
FFFF00
FFFFC0
FFFFF0
FFFFF8
F000FC
F0003C
F0003E
F0001E
F0001E
F0001E
F0001E
F0001E
F0001E
F0003E
F0003C
F000FC
F00FF8
FFFFF0
FFFFC0
FFFF80
F003C0
F003E0
F001E0
F000F0
F000F8
F00078
F0003C
F0003E
F0001F
ENDCHAR
STARTCHAR 0159
ENCODING 345
SWIDTH 416 0
DWIDTH 17 0
BBX 13 30 3 0
BITMAP
F078
78F0
3DE0
1FC0
0F80
0000
0000
0000
7070
71F0
73F0
77F0
7F00
7E00
7C00
7800
7800
7800
7800
7800
7800
7800
7800
7800
7800
7800
7800
7800
7800
7800
ENDCHAR
STARTCHAR 015A
ENCODING 346
SWIDTH 612 0
DWIDTH 25 0
BBX 22 38 2 -1
BITMAP
0007C0
000F00
001E00
003C00
007000
000000
000000
01FF00
07FFE0
1FFFF0
3FFFF0
7E00F0
780020
780000
F00000
F00000
F80000
780000
7C0000
7E0000
3FC000
1FFC00
0FFF80
03FFE0
003FF0
0007F8
0000F8
000078
00007C
00003C
00003C
400078
600078
F800F8
FFDFF0
7FFFE0
1FFFC0
03FE00
ENDCHAR
STARTCHAR 015B
ENCODING 347
SWIDTH 489 0
DWIDTH 20 0
BBX 18 30 1 0
BITMAP
001F00
003C00
007800
00F000
01C000
000000
000000
000000
03FC00
0FFF80
3FFF80
3F1F80
780100
780000
780000
780000
7C0000
7F8000
3FFC00
0FFF00
03FF80
000FC0
0003C0
0003C0
0003C0
7003C0
7F1FC0
FFFF80
3FFE00
07F800
ENDCHAR
STARTCHAR 015C
ENCODING 348
SWIDTH 612 0
DWIDTH 25 0
BBX 22 38 2 -1
BITMAP
00FC00
01FE00
03CF00
078780
0F03C0
000000
000000
01FF00
07FFE0
1FFFF0
3FFFF0
7E00F0
780020
780000
F00000
F00000
F80000
780000
7C0000
7E0000
3FC000
1FFC00
0FFF80
03FFE0
003FF0
0007F8
0000F8
000078
00007C
00003C
00003C
400078
600078
F800F8
FFDFF0
7FFFE0
1FFFC0
03FE00
ENDCHAR
STARTCHAR 015D
ENCODING 349
SWIDTH 489 0
DWIDTH 20 0
BBX 18 30 1 0
BITMAP
03F000
07F800
0F3C00
1E1E00
3C0F00
000000
000000
000000
03FC00
0FFF80
3FFF80
3F1F80
780100
780000
780000
780000
7C0000
7F8000
3FFC00
0FFF00
03FF80
000FC0
0003C0
0003C0
0003C0
7003C0
7F1FC0
FFFF80
3FFE00
07F800
ENDCHAR
STARTCHAR 015E
ENCODING 350
SWIDTH 612 0
DWIDTH 25 0
BBX 22 40 2 -10
BITMAP
01FF00
07FFE0
1FFFF0
3FFFF0
7E00F0
780020
780000
F00000
F00000
F80000
780000
7C0000
7E0000
3FC000
1FFC00
0FFF80
03FFE0
003FF0
0007F8
0000F8
000078
00007C
00003C
00003C
400078
600078
F800F8
FFDFF0
7FFFE0
1FFFC0
03FE00
003000
007000
007800
007E00
000E00
000E00
011E00
01FC00
01F800
ENDCHAR
STARTCHAR 015F
ENCODING 351
SWIDTH 489 0
DWIDTH 20 0
BBX 18 32 1 -10
BITMAP
03FC00
0FFF80
3FFF80
3F1F80
780100
780000
780000
780000
7C0000
7F8000
3FFC00
1FFF00
03FF80
001FC0
0003C0
0003C0
0003C0
7003C0
7E1FC0
FFFF80
3FFE00
0FF800
00C000
01C000
01E000
01F800
003800
003800
003800
047800
07F000
07E000
ENDCHAR
STARTCHAR 0160
ENCODING 352
SWIDTH 612 0
DWIDTH 25 0
BBX 22 38 2 -1
BITMAP
0F03C0
03C780
01FF00
00FE00
007C00
000000
000000
01FF00
07FFE0
1FFFF0
3FFFF0
7E00F0
780020
780000
F00000
F00000
F80000
780000
7C0000
7E0000
3FC000
1FFC00
0FFF80
03FFE0
003FF0
0007F8
0000F8
000078
00007C
00003C
00003C
400078
600078
F800F8
FFDFF0
7FFFE0
1FFFC0
03FE00
ENDCHAR
STARTCHAR 0161
ENCODING 353
SWIDTH 489 0
DWIDTH 20 0
BBX 18 30 1 0
BITMAP
3C0F00
0F1E00
07FC00
03F800
01F000
000000
000000
000000
03FC00
0FFF80
3FFF80
3F1F80
780100
780000
780000
780000
7C0000
7F8000
3FFC00
0FFF00
03FF80
000FC0
0003C0
0003C0
0003C0
7003C0
7F1FC0
FFFF80
3FFE00
07F800
ENDCHAR
STARTCHAR 0162
ENCODING 354
SWIDTH 587 0
DWIDTH 24 0
BBX 24 39 0 -10
BITMAP
FFFFFF
FFFFFF
FFFFFF
FFFFFF
003C00
003C00
003C00
003C00
003C00
003C00
003C00
003C00
003C00
003C00
003C00
003C00
003C00
003C00
003C00
003C00
003C00
003C00
003C00
003C00
003C00
003C00
003C00
003C00
003C00
001800
003800
003800
003E00
000700
000700
000700
008F00
00FE00
00FC00
ENDCHAR
STARTCHAR 0163
ENCODING 355
SWIDTH 416 0
DWIDTH 17 0
BBX 15 37 1 -10
BITMAP
1E00
1E00
1E00
1E00
1E00
FFF8
FFF8
FFF8
1E00
1E00
1E00
1E00
1E00
1E00
1E00
1E00
1E00
1E00
1E00
1E00
1E00
1E00
0F00
0F8C
0FFC
07FE
01F8
00C0
00C0
01F0
01F8
0038
0018
0038
0638
07F0
03E0
ENDCHAR
STARTCHAR 0164
ENCODING 356
SWIDTH 587 0
DWIDTH 24 0
BBX 24 36 0 0
BITMAP
0781E0
03C380
01FF00
007E00
003C00
000000
000000
FFFFFF
FFFFFF
FFFFFF
FFFFFF
003C00
003C00
003C00
003C00
003C00
003C00
003C00
003C00
003C00
003C00
003C00
003C00
003C00
003C00
003C00
003C00
003C00
003C00
003C00
003C00
003C00
003C00
003C00
003C00
003C00
ENDCHAR
STARTCHAR 0165
ENCODING 357
SWIDTH 416 0
DWIDTH 17 0
BBX 15 32 1 0
BITMAP
001C
001C
001C
001C
0018
1E18
1E18
1E00
1E00
1E00
FFF8
FFF8
FFF8
1E00
1E00
1E00
1E00
1E00
1E00
1E00
1E00
1E00
1E00
1E00
1E00
1E00
1E00
0F00
0F8C
0FFC
07FE
01F8
ENDCHAR
STARTCHAR 0166
ENCODING 358
SWIDTH 587 0
DWIDTH 24 0
BBX 24 29 0 0
BITMAP
FFFFFF
FFFFFF
FFFFFF
FFFFFF
003C00
003C00
003C00
003C00
003C00
003C00
003C00
003C00
003C00
0FFFF0
0FFFF0
0FFFF0
003C00
003C00
003C00
003C00
003C00
003C00
003C00
003C00
003C00
003C00
003C00
003C00
003C00
ENDCHAR
STARTCHAR 0167
ENCODING 359
SWIDTH 416 0
DWIDTH 17 0
BBX 15 27 1 0
BITMAP
1E00
1E00
1E00
1E00
1E00
FFFC
FFFC
FFFC
1E00
1E00
1E00
1E00
1E00
FFF8
FFF8
FFF8
1E00
1E00
1E00
1E00
0E00
0F00
0F00
0FCC
07FE
03FE
01F8
ENDCHAR
STARTCHAR 0168
ENCODING 360
SWIDTH 783 0
DWIDTH 32 0
BBX 24 38 4 -1
BITMAP
00C000
03F060
03BCE0
031FC0
070F80
000000
000000
000000
F0000F
F0000F
F0000F
F0000F
F0000F
F0000F
F0000F
F0000F
F0000F
F0000F
F0000F
F0000F
F0000F
F0000F
F0000F
F0000F
F0000F
F0000F
F0000F
F0000F
F8000F
78000F
78001E
7C001E
3E003E
3F00FC
1FFFF8
0FFFF0
03FFE0
00FF00
ENDCHAR
STARTCHAR 0169
ENCODING 361
SWIDTH 685 0
DWIDTH 28 0
BBX 20 30 4 0
BITMAP
078380
0FC300
1CF700
187F00
181C00
000000
000000
000000
E000F0
E000F0
E000F0
E000F0
E000F0
E000F0
E000F0
E000F0
E000F0
E000F0
E000F0
E000F0
E000F0
F000F0
F001F0
F001F0
F803F0
FC07F0
7FFFF0
3FFEF0
1FFCF0
07F0F0
ENDCHAR
STARTCHAR 016A
ENCODING 362
SWIDTH 783 0
DWIDTH 32 0
BBX 24 36 4 -1
BITMAP
07FFE0
07FFE0
000000
000000
000000
000000
F0000F
F0000F
F0000F
F0000F
F0000F
F0000F
F0000F
F0000F
F0000F
F0000F
F0000F
F0000F
F0000F
F0000F
F0000F
F0000F
F0000F
F0000F
F0000F
F0000F
F8000F
78000F
78001E
7C001E
3E003E
3F00FC
1FFFF8
0FFFF0
03FFE0
00FF00
ENDCHAR
STARTCHAR 016B
ENCODING 363
SWIDTH 685 0
DWIDTH 28 0
BBX 20 29 4 0
BITMAP
1FFF00
1FFF00
000000
000000
000000
000000
000000
E000F0
E000F0
E000F0
E000F0
E000F0
E000F0
E000F0
E000F0
E000F0
E000F0
E000F0
E000F0
E000F0
F000F0
F001F0
F001F0
F803F0
FC07F0
7FFFF0
3FFEF0
1FFCF0
07F0F0
ENDCHAR
STARTCHAR 016C
ENCODING 364
SWIDTH 783 0
DWIDTH 32 0
BBX 24 38 4 -1
BITMAP
0300E0
0300E0
0381C0
01E3C0
01FF80
007E00
000000
000000
F0000F
F0000F
F0000F
F0000F
F0000F
F0000F
F0000F
F0000F
F0000F
F0000F
F0000F
F0000F
F0000F
F0000F
F0000F
F0000F
F0000F
F0000F
F0000F
F0000F
F8000F
78000F
78001E
7C001E
3E003E
3F00FC
1FFFF8
0FFFF0
03FFE0
00FF00
ENDCHAR
STARTCHAR 016D
ENCODING 365
SWIDTH 685 0
DWIDTH 28 0
BBX 20 31 4 0
BITMAP
1C0300
1C0300
0E0700
0F1E00
07FC00
01F800
000000
000000
000000
E000F0
E000F0
E000F0
E000F0
E000F0
E000F0
E000F0
E000F0
E000F0
E000F0
E000F0
E000F0
E000F0
F000F0
F001F0
F001F0
F803F0
FC07F0
7FFFF0
3FFEF0
1FFCF0
07F0F0
ENDCHAR
STARTCHAR 016E
ENCODING 366
SWIDTH 783 0
DWIDTH 32 0
BBX 24 42 4 -1
BITMAP
001800
007E00
00E300
00C300
00C180
00C180
00C100
00E300
007E00
001800
000000
000000
F0000F
F0000F
F0000F
F0000F
F0000F
F0000F
F0000F
F0000F
F0000F
F0000F
F0000F
F0000F
F0000F
F0000F
F0000F
F0000F
F0000F
F0000F
F0000F
F0000F
F8000F
78000F
78001E
7C001E
3E003E
3F00FC
1FFFF8
0FFFF0
03FFE0
00FF00
ENDCHAR
STARTCHAR 016F
ENCODING 367
SWIDTH 685 0
DWIDTH 28 0
BBX 20 34 4 0
BITMAP
006000
01F800
031C00
060C00
060C00
060C00
060C00
031C00
01F800
00E000
000000
000000
E000F0
E000F0
E000F0
E000F0
E000F0
E000F0
E000F0
E000F0
E000F0
E000F0
E000F0
E000F0
E000F0
F000F0
F001F0
F001F0
F803F0
FC07F0
7FFFF0
3FFEF0
1FFCF0
07F0F0
ENDCHAR
STARTCHAR 0170
ENCODING 368
SWIDTH 783 0
DWIDTH 32 0
BBX 24 37 4 -1
BITMAP
003C78
0078F0
0070E0
00F1E0
01E3C0
000000
000000
F0000F
F0000F
F0000F
F0000F
F0000F
F0000F
F0000F
F0000F
F0000F
F0000F
F0000F
F0000F
F0000F
F0000F
F0000F
F0000F
F0000F
F0000F
F0000F
F0000F
F8000F
78000F
78001E
7C001E
3E003E
3F00FC
1FFFF8
0FFFF0
03FFE0
00FF00
ENDCHAR
STARTCHAR 0171
ENCODING 369
SWIDTH 685 0
DWIDTH 28 0
BBX 20 30 4 0
BITMAP
00F1E0
01E3C0
03C780
038700
070E00
000000
000000
000000
E000F0
E000F0
E000F0
E000F0
E000F0
E000F0
E000F0
E000F0
E000F0
E000F0
E000F0
E000F0
E000F0
F000F0
F001F0
F001F0
F803F0
FC07F0
7FFFF0
3FFEF0
1FFCF0
07F0F0
ENDCHAR
STARTCHAR 0172
ENCODING 370
SWIDTH 783 0
DWIDTH 32 0
BBX 24 38 4 -9
BITMAP
F0000F
F0000F
F0000F
F0000F
F0000F
F0000F
F0000F
F0000F
F0000F
F0000F
F0000F
F0000F
F0000F
F0000F
F0000F
F0000F
F0000F
F0000F
F0000F
F0000F
F8000F
78000F
78001E
7C001E
3E003E
3F00FC
1FFFF8
0FFFF0
07FFE0
00FF00
003C00
007000
006000
00E000
00E000
00F100
007F80
003F00
ENDCHAR
STARTCHAR 0173
ENCODING 371
SWIDTH 685 0
DWIDTH 28 0
BBX 21 31 4 -9
BITMAP
E000F0
E000F0
E000F0
E000F0
E000F0
E000F0
E000F0
E000F0
E000F0
E000F0
E000F0
E000F0
E000F0
F000F0
F001F0
F001F0
F803F0
FC07F0
7FFFF0
3FFEF0
1FFCF0
07F0F0
0001E0
000380
000700
000E00
000E00
000E00
000710
0007F8
0001F0
ENDCHAR
STARTCHAR 0174
ENCODING 372
SWIDTH 1126 0
DWIDTH 46 0
BBX 43 36 1 0
BITMAP
00001F800000
00003FC00000
000079E00000
0000F0F00000
0001E0780000
000000000000
000000000000
F8000F0000E0
78000F8001E0
78001F8001E0
7C001F8001E0
3C001FC003C0
3C003FC003C0
3E003FC003C0
1E0039E00780
1E0079E00780
1F0079E00780
0F0070F00F00
0F00F0F00F00
0F80F0F00F00
0780E0781E00
0781E0781E00
07C1E0781E00
03C1C03C3C00
03C3C03C3C00
03E3C03C3C00
01E3801E7800
01E7801E7800
01F7801E7800
00F7000EF000
00FF000FF000
00FF000FF000
007E0007E000
007E0007E000
007E0007E000
003C0003C000
ENDCHAR
STARTCHAR 0175
ENCODING 373
SWIDTH 906 0
DWIDTH 37 0
BBX 36 30 0 0
BITMAP
0000F80000
0001FC0000
00079E0000
000F0F0000
001E078000
0000000000
0000000000
0000000000
F000700070
7800F800F0
7800F800F0
3801F800E0
3C01FC01E0
3C01FC01C0
1C03DC01C0
1E03DE03C0
1E038E0380
0E078F0780
0F070F0780
0F07070700
070F078F00
078E078F00
039E038E00
03DC03DE00
03DC01DC00
01FC01DC00
01F801FC00
01F800F800
00F800F800
00F000F800
ENDCHAR
STARTCHAR 0176
ENCODING 374
SWIDTH 636 0
DWIDTH 26 0
BBX 26 36 0 0
BITMAP
001F0000
003F8000
00F3C000
01E1E000
03C0F000
00000000
00000000
F80003C0
780003C0
7C000780
3C000F00
1E000F00
1F001E00
0F001E00
0F803C00
07807800
03C07800
03E0F000
01E0F000
01F1E000
00F3E000
007BC000
007F8000
003F8000
003F0000
001F0000
001E0000
001E0000
001E0000
001E0000
001E0000
001E0000
001E0000
001E0000
001E0000
001E0000
ENDCHAR
STARTCHAR 0177
ENCODING 375
SWIDTH 563 0
DWIDTH 23 0
BBX 24 38 -1 -8
BITMAP
007E00
00FF00
01E780
03C3C0
0781E0
000000
000000
000000
78000F
3C001E
3C001E
3E001C
1E003C
1E0038
0F0078
0F0078
0780F0
0780F0
03C0E0
03C1E0
03C1C0
01E3C0
01E3C0
00F780
00F780
007F00
007F00
007E00
003E00
003C00
003C00
003C00
007800
00F800
79F000
FFE000
7FC000
1F0000
ENDCHAR
STARTCHAR 0178
ENCODING 376
SWIDTH 636 0
DWIDTH 26 0
BBX 26 36 0 0
BITMAP
00E1E000
01F1E000
01E1E000
00E0C000
00000000
00000000
00000000
F80003C0
780003C0
7C000780
3C000F00
1E000F00
1F001E00
0F001E00
0F803C00
07807800
03C07800
03E0F000
01E0F000
01F1E000
00F3E000
007BC000
007F8000
003F8000
003F0000
001F0000
001E0000
001E0000
001E0000
001E0000
001E0000
001E0000
001E0000
001E0000
001E0000
001E0000
ENDCHAR
STARTCHAR 0179
ENCODING 377
SWIDTH 661 0
DWIDTH 27 0
BBX 24 36 2 0
BITMAP
0007E0
000F80
001F00
003C00
007800
000000
000000
FFFFFE
FFFFFE
FFFFFE
FFFFFE
00007C
0000F8
0001F0
0001E0
0003E0
0007C0
000F80
001F00
001E00
003E00
007C00
00F800
01F000
01E000
03E000
07C000
0F8000
1F0000
1F0000
3E0000
7C0000
FFFFFF
FFFFFF
FFFFFF
FFFFFF
ENDCHAR
STARTCHAR 017A
ENCODING 378
SWIDTH 514 0
DWIDTH 21 0
BBX 18 30 2 0
BITMAP
003F00
007C00
00F800
01E000
03C000
000000
000000
000000
FFFF80
FFFF80
FFFF80
000F80
001F00
001E00
003C00
007C00
00F800
01F000
01E000
03C000
07C000
0F8000
0F0000
1E0000
3C0000
7C0000
F80000
FFFFC0
FFFFC0
FFFFC0
ENDCHAR
STARTCHAR 017B
ENCODING 379
SWIDTH 661 0
DWIDTH 27 0
BBX 24 37 2 0
BITMAP
001800
003C00
007C00
007C00
003800
000000
000000
000000
FFFFFE
FFFFFE
FFFFFE
FFFFFE
00007C
0000F8
0001F0
0001E0
0003E0
0007C0
000F80
001F00
001E00
003E00
007C00
00F800
01F000
01E000
03E000
07C000
0F8000
1F0000
1F0000
3E0000
7C0000
FFFFFF
FFFFFF
FFFFFF
FFFFFF
ENDCHAR
STARTCHAR 017C
ENCODING 380
SWIDTH 514 0
DWIDTH 21 0
BBX 18 30 2 0
BITMAP
01C000
03E000
03E000
01E000
01C000
000000
000000
000000
FFFF80
FFFF80
FFFF80
000F80
001F00
001E00
003C00
007C00
00F800
01F000
01E000
03C000
07C000
0F8000
0F0000
1E0000
3C0000
7C0000
F80000
FFFFC0
FFFFC0
FFFFC0
ENDCHAR
STARTCHAR 017D
ENCODING 381
SWIDTH 661 0
DWIDTH 27 0
BBX 24 36 2 0
BITMAP
0783E0
03C780
01EF00
00FE00
007C00
000000
000000
FFFFFE
FFFFFE
FFFFFE
FFFFFE
00007C
0000F8
0001F0
0001E0
0003E0
0007C0
000F80
001F00
001E00
003E00
007C00
00F800
01F000
01E000
03E000
07C000
0F8000
1F0000
1F0000
3E0000
7C0000
FFFFFF
FFFFFF
FFFFFF
FFFFFF
ENDCHAR
STARTCHAR 017E
ENCODING 382
SWIDTH 514 0
DWIDTH 21 0
BBX 18 30 2 0
BITMAP
3C1F00
1E3C00
0F7800
07F000
03E000
000000
000000
000000
FFFF80
FFFF80
FFFF80
000F80
001F00
001E00
003C00
007C00
00F800
01F000
01E000
03C000
07C000
0F8000
0F0000
1E0000
3C0000
7C0000
F80000
FFFFC0
FFFFC0
FFFFC0
ENDCHAR
STARTCHAR 017F
ENCODING 383
SWIDTH 318 0
DWIDTH 13 0
BBX 15 31 1 0
BITMAP
00FC
03FE
07FE
0FCC
0F00
0F00
0F00
0F00
0F00
FF00
FF00
FF00
0F00
0F00
0F00
0F00
0F00
0F00
0F00
0F00
0F00
0F00
0F00
0F00
0F00
0F00
0F00
0F00
0F00
0F00
0F00
ENDCHAR
STARTCHAR 018F
ENCODING 399
SWIDTH 808 0
DWIDTH 33 0
BBX 29 31 2 -1
BITMAP
003FE000
01FFF800
07FFFE00
0FFFFF00
1FC01F80
0F000FC0
040003E0
000001F0
000001F0
000000F0
000000F8
00000078
00000078
00000078
FFFFFFF8
FFFFFFF8
FFFFFFF8
F0000078
F0000078
F8000078
78000078
780000F0
7C0000F0
3E0001E0
1E0003E0
1F8007C0
0FC01F80
07FFFF00
03FFFE00
00FFF800
001FC000
ENDCHAR
STARTCHAR 0192
ENCODING 402
SWIDTH 440 0
DWIDTH 18 0
BBX 24 39 -4 -8
BITMAP
0000FC
0001FF
0007FE
0007CE
000F00
000F00
000F00
000E00
001E00
001E00
01FFF8
01FFF8
01FFF8
001E00
001E00
001C00
003C00
003C00
003C00
003C00
003C00
003C00
003C00
003800
007800
007800
007800
007800
007800
007800
007800
007000
00F000
00F000
00F000
73E000
7FE000
FFC000
3F0000
ENDCHAR
STARTCHAR 01A0
ENCODING 416
SWIDTH 832 0
DWIDTH 34 0
BBX 30 36 2 0
BITMAP
00000038
0000001C
0000001C
0000001C
0000001C
001FF838
00FFFFF8
01FFFFE0
07FFFF80
0FE01FC0
1F8007E0
1F0001F0
3E0001F0
7C0000F8
78000078
7800007C
F800003C
F000003C
F000003C
F000003C
F000003C
F000003C
F000003C
F000003C
F800003C
7800007C
7C000078
7C0000F8
3E0000F0
1F0001F0
1F8007E0
0FE00FC0
07FFFF80
01FFFF00
00FFFC00
001FE000
ENDCHAR
STARTCHAR 01A1
ENCODING 417
SWIDTH 636 0
DWIDTH 26 0
BBX 22 28 2 0
BITMAP
000018
000018
00001C
00001C
00001C
00003C
00FFF8
07FFF0
0FFFC0
1FCFE0
3E01F0
7C00F8
780078
F0003C
F0003C
F0003C
F0003C
F0003C
F0003C
F0003C
F0003C
780078
7C00F8
3E01F0
1FCFE0
0FFFC0
07FF80
01FC00
ENDCHAR
STARTCHAR 01AF
ENCODING 431
SWIDTH 808 0
DWIDTH 33 0
BBX 28 36 4 -1
BITMAP
00000070
00000070
00000070
00000030
00000070
00000070
F0000FF0
F0000FE0
F0000F80
F0000F00
F0000F00
F0000F00
F0000F00
F0000F00
F0000F00
F0000F00
F0000F00
F0000F00
F0000F00
F0000F00
F0000F00
F0000F00
F0000F00
F0000F00
F0000F00
F0000F00
F8000F00
78000F00
78001E00
7C001E00
3E003E00
3F00FC00
1FFFF800
0FFFF000
03FFE000
00FF0000
ENDCHAR
STARTCHAR 01B0
ENCODING 432
SWIDTH 685 0
DWIDTH 28 0
BBX 23 28 4 0
BITMAP
00000E
00000E
00000E
000006
00000E
00000E
E000FE
E000FC
E000F0
E000F0
E000F0
E000F0
E000F0
E000F0
E000F0
E000F0
E000F0
E000F0
E000F0
F000F0
F001F0
F001F0
F803F0
FC07F0
7FFFF0
3FFEF0
1FFCF0
07F0F0
ENDCHAR
STARTCHAR 01B7
ENCODING 439
SWIDTH 612 0
DWIDTH 25 0
BBX 22 30 1 -1
BITMAP
7FFFF8
7FFFF8
7FFFF8
0000F8
0001F0
0001E0
0003C0
000780
000F00
001F00
001E00
003C00
007800
00FF80
00FFE0
00FFF0
0003F8
00007C
00003C
00003C
00003C
00003C
00003C
00003C
70007C
7C00F8
FFFFF8
7FFFF0
1FFFC0
03FE00
ENDCHAR
STARTCHAR 01C4
ENCODING 452
SWIDTH 1444 0
DWIDTH 59 0
BBX 54 36 4 0
BITMAP
000000001E0780
00000000070F00
0000000003FC00
0000000001F800
0000000000F000
00000000000000
00000000000000
FFFF8003FFFFF8
FFFFF003FFFFF8
FFFFFC03FFFFF8
FFFFFE03FFFFF8
F0007F000001F0
F0001F800001E0
F0000FC00003E0
F00007C00007C0
F00003E0000F80
F00001E0001F00
F00001E0001E00
F00001F0003E00
F00000F0007C00
F00000F000F800
F00000F001F000
F00000F001E000
F00000F003E000
F00001F007C000
F00001E00F8000
F00001E01F0000
F00003E01E0000
F00007C03E0000
F0000FC07C0000
F0001F80F80000
F0007F01F00000
FFFFFE01FFFFFC
FFFFFC03FFFFFC
FFFFF003FFFFFC
FFFF8003FFFFFC
ENDCHAR
STARTCHAR 01C5
ENCODING 453
SWIDTH 1346 0
DWIDTH 55 0
BBX 49 30 4 0
BITMAP
000000003C1E00
FFFF80001E3C00
FFFFF0000F7800
FFFFFC0007F000
FFFFFE0003E000
F0007F00000000
F0001F80000000
F0000FC0000000
F00007C0FFFF80
F00003E0FFFF80
F00001E0FFFF80
F00001E0000F00
F00001F0001F00
F00000F0003E00
F00000F0003C00
F00000F0007800
F00000F000F000
F00000F001F000
F00001E003E000
F00001E003C000
F00001E0078000
F00003E00F8000
F00007C01F0000
F0000FC03E0000
F0001F803C0000
F0007F00780000
FFFFFE00F80000
FFFFFC01FFFF80
FFFFF001FFFF80
FFFF8001FFFF80
ENDCHAR
STARTCHAR 01C6
ENCODING 454
SWIDTH 1200 0
DWIDTH 49 0
BBX 45 30 2 0
BITMAP
00003C0380E0
00003C01C3C0
00003C00F780
00003C007F00
00003C003E00
00003C000000
00003C000000
00003C000000
01FC3C0FFFF8
07FF3C0FFFF8
1FFFBC0FFFF8
3F87FC0000F0
3E01FC0001F0
7C00FC0003E0
78007C0003C0
F0003C000780
F0003C000F00
F0003C001F00
F0003C003E00
F0003C003C00
F0003C007800
F0003C00F800
F0003C01F000
78007C03E000
7C00FC03C000
3E01FC078000
3FCFFC0F8000
1FFFBC1FFFF8
07FF3C1FFFF8
01FC3C1FFFF8
ENDCHAR
STARTCHAR 01C7
ENCODING 455
SWIDTH 1102 0
DWIDTH 45 0
BBX 37 30 4 -1
BITMAP
F00001FFF8
F00001FFF8
F00001FFF8
F00001FFF8
F000000078
F000000078
F000000078
F000000078
F000000078
F000000078
F000000078
F000000078
F000000078
F000000078
F000000078
F000000078
F000000078
F000000078
F000000078
F000000078
F000000078
F000000078
F000000078
F000020078
F0000700F8
FFFFFF81F0
FFFFFFFFF0
FFFFF7FFE0
FFFFF1FFC0
0000007F00
ENDCHAR
STARTCHAR 01C8
ENCODING 456
SWIDTH 881 0
DWIDTH 36 0
BBX 29 39 4 -8
BITMAP
000000F0
000000F8
F00001F8
F00000F8
F00000F0
F0000000
F0000000
F0000000
F0000000
F00000F0
F00000F0
F00000F0
F00000F0
F00000F0
F00000F0
F00000F0
F00000F0
F00000F0
F00000F0
F00000F0
F00000F0
F00000F0
F00000F0
F00000F0
F00000F0
F00000F0
F00000F0
FFFFF0F0
FFFFF0F0
FFFFF0F0
FFFFF0F0
000000F0
000000F0
000000F0
000000F0
000073E0
00007FE0
00007FC0
00003F00
ENDCHAR
STARTCHAR 01C9
ENCODING 457
SWIDTH 563 0
DWIDTH 23 0
BBX 16 39 4 -8
BITMAP
000E
F01F
F01F
F01F
F00E
F000
F000
F000
F000
F01E
F01E
F01E
F01E
F01E
F01E
F01E
F01E
F01E
F01E
F01E
F01E
F01E
F01E
F01E
F01E
F01E
F01E
F01E
F01E
F01E
F01E
001E
001E
001E
001E
067E
0FFC
0FF8
07E0
ENDCHAR
STARTCHAR 01CA
ENCODING 458
SWIDTH 1322 0
DWIDTH 54 0
BBX 46 30 4 -1
BITMAP
F0000780FFFC
F8000780FFFC
FC000780FFFC
FC000780FFFC
FE000780003C
FF000780003C
FF800780003C
FF800780003C
F7C00780003C
F3E00780003C
F1F00780003C
F0F80780003C
F0F80780003C
F07C0780003C
F03E0780003C
F01F0780003C
F00F0780003C
F00F8780003C
F007C780003C
F003E780003C
F001E780003C
F000F780003C
F000FF80003C
F0007F81003C
F0003F830078
F0001F87C0F8
F0000F87FFF8
F0000F83FFF0
F0000780FFE0
000000003F80
ENDCHAR
STARTCHAR 01CB
ENCODING 459
SWIDTH 1102 0
DWIDTH 45 0
BBX 38 39 4 -8
BITMAP
0000000078
000000007C
F0000780FC
F800078078
FC00078078
FC00078000
FE00078000
FF00078000
FF80078000
FFC0078078
F7C0078078
F3E0078078
F1F0078078
F0F8078078
F0FC078078
F07C078078
F03E078078
F01F078078
F00F878078
F00FC78078
F007C78078
F003E78078
F001F78078
F000FF8078
F000FF8078
F0007F8078
F0003F8078
F0001F8078
F0000F8078
F0000F8078
F000078078
0000000078
0000000078
0000000078
00000000F8
00000039F0
0000003FF0
0000007FE0
0000001F80
ENDCHAR
STARTCHAR 01CC
ENCODING 460
SWIDTH 955 0
DWIDTH 39 0
BBX 32 39 4 -8
BITMAP
0000000E
0000001F
0000001F
0000001F
0000000E
00000000
00000000
00000000
00000000
E0FE000F
E3FF800F
EFFFC00F
FFFFE00F
FE03E00F
F801F00F
F800F00F
F000F00F
F000F00F
F000F00F
F000F00F
F000F00F
F000F00F
F000F00F
F000F00F
F000F00F
F000F00F
F000F00F
F000F00F
F000F00F
F000F00F
F000F00F
0000000F
0000000F
0000000F
0000001E
0000063E
000007FC
00000FF8
000003F0
ENDCHAR
STARTCHAR 01CD
ENCODING 461
SWIDTH 734 0
DWIDTH 30 0
BBX 30 36 0 0
BITMAP
00F03C00
00787000
003FE000
000FC000
00078000
00000000
00000000
00078000
000FC000
000FC000
001FE000
001FE000
003DE000
003CF000
0038F000
00787800
00787800
00F03C00
00F03C00
01E03E00
01E01E00
03E01E00
03C00F00
03C00F00
07800780
07800780
0FFFFFC0
0FFFFFC0
1FFFFFE0
1E0001E0
3E0001E0
3C0000F0
3C0000F0
780000F8
78000078
F000007C
ENDCHAR
STARTCHAR 01CE
ENCODING 462
SWIDTH 587 0
DWIDTH 24 0
BBX 19 30 2 0
BITMAP
1E0780
0F1E00
07FC00
03F800
01F000
000000
000000
000000
03FC00
1FFF00
7FFF80
7F3FC0
3007C0
0003E0
0001E0
0001E0
0001E0
03FFE0
1FFFE0
3FFFE0
7C01E0
F001E0
F001E0
F001E0
F003E0
F807E0
7C1FE0
7FFFE0
1FFDE0
07E1E0
ENDCHAR
STARTCHAR 01D3
ENCODING 467
SWIDTH 783 0
DWIDTH 32 0
BBX 24 37 4 -1
BITMAP
0781E0
01E3C0
00F780
007F00
003E00
000000
000000
F0000F
F0000F
F0000F
F0000F
F0000F
F0000F
F0000F
F0000F
F0000F
F0000F
F0000F
F0000F
F0000F
F0000F
F0000F
F0000F
F0000F
F0000F
F0000F
F0000F
F8000F
78000F
78001E
7C001E
3E003E
3F00FC
1FFFF8
0FFFF0
03FFE0
00FF00
ENDCHAR
STARTCHAR 01D4
ENCODING 468
SWIDTH 685 0
DWIDTH 28 0
BBX 20 30 4 0
BITMAP
1E0F80
0F1E00
07BC00
03F800
01F000
000000
000000
000000
E000F0
E000F0
E000F0
E000F0
E000F0
E000F0
E000F0
E000F0
E000F0
E000F0
E000F0
E000F0
E000F0
F000F0
F001F0
F001F0
F803F0
FC07F0
7FFFF0
3FFEF0
1FFCF0
07F0F0
ENDCHAR
STARTCHAR 01E4
ENCODING 484
SWIDTH 808 0
DWIDTH 33 0
BBX 30 31 2 -1
BITMAP
001FE000
00FFFC00
01FFFE00
07FFFF00
0FE00F80
1F8003C0
1F000180
3E000000
3C000000
7C000000
78000000
F8000000
F0000000
F0000000
F0000000
F0000000
F00003C0
F00003C0
F00003C0
F803FFFC
7803FFFC
7803FFFC
7C0003C0
3E0003C0
3F0003C0
1F8003C0
0FE00FC0
07FFFFC0
03FFFF00
00FFFE00
001FE000
ENDCHAR
STARTCHAR 01E5
ENCODING 485
SWIDTH 710 0
DWIDTH 29 0
BBX 25 30 2 -8
BITMAP
01FC1C00
07FF9C00
1FFFDC00
3FC7FC00
7E00FC00
78007C00
F8003C00
F0003C00
F0003C00
F0001C00
F0001C00
F0003C00
F0003C00
F8003C00
78007C00
7E00FC00
3F8FFC00
1FFFFC00
07FF3C00
01FC3C00
00003C00
003FFF80
003FFF80
003FFF80
30007800
3C00F800
7FCFF000
3FFFE000
0FFFC000
01FE0000
ENDCHAR
STARTCHAR 01E6
ENCODING 486
SWIDTH 783 0
DWIDTH 32 0
BBX 26 38 2 -1
BITMAP
00F03C00
0078F000
003DE000
001FC000
000F8000
00000000
00000000
001FE000
00FFFC00
01FFFE00
07FFFF00
0FE00F80
1F8003C0
1F000180
3E000000
7C000000
78000000
78000000
F8000000
F0000000
F0000000
F0000000
F00003C0
F00003C0
F00003C0
F00003C0
F80003C0
780003C0
7C0003C0
7C0003C0
3E0003C0
1F0003C0
1F8003C0
0FE00FC0
07FFFFC0
03FFFF00
00FFFE00
001FE000
ENDCHAR
STARTCHAR 01E7
ENCODING 487
SWIDTH 685 0
DWIDTH 28 0
BBX 22 38 2 -8
BITMAP
0783C0
03C780
01EF00
00FE00
007C00
000000
000000
000000
01FC1C
07FF1C
1FFFDC
3FCFFC
3E01FC
7C007C
F8007C
F0003C
F0003C
F0001C
F0001C
F0001C
F0003C
F0003C
F8007C
7C007C
7E01FC
3FCFFC
1FFFFC
07FF3C
01FC3C
00003C
00003C
00003C
300078
3C00F8
7FCFF0
3FFFE0
0FFFC0
01FE00
ENDCHAR
STARTCHAR 01E8
ENCODING 488
SWIDTH 710 0
DWIDTH 29 0
BBX 25 36 4 0
BITMAP
0783C000
03C78000
01EF0000
00FE0000
007C0000
00000000
00000000
F0001F00
F0003E00
F0007C00
F0007800
F000F000
F001E000
F003C000
F007C000
F00F8000
F01F0000
F03E0000
F07C0000
F0F80000
F1F80000
F3FC0000
F7FC0000
FFBE0000
FF1F0000
FE0F8000
FC0FC000
F807C000
F003E000
F001F000
F000F800
F0007C00
F0003C00
F0003E00
F0001F00
F0000F80
ENDCHAR
STARTCHAR 01E9
ENCODING 489
SWIDTH 612 0
DWIDTH 25 0
BBX 26 38 -1 0
BITMAP
F0780000
78F00000
3DE00000
1FC00000
0F800000
00000000
00000000
00000000
07800000
07800000
07800000
07800000
07800000
07800000
07800000
07800000
07800F80
07801F00
07803E00
07807C00
0780F800
0781F000
0787E000
078FC000
079F8000
07BF0000
07FF8000
07FFC000
07F3E000
07E3E000
07C1F000
0780F800
07807C00
07803E00
07803E00
07801F00
07800F80
078007C0
ENDCHAR
STARTCHAR 01EA
ENCODING 490
SWIDTH 832 0
DWIDTH 34 0
BBX 30 39 2 -9
BITMAP
001FE000
00FFFC00
01FFFF00
07FFFF80
0FE00FC0
1F8007E0
3F0001F0
3E0000F8
7C0000F8
78000078
7800007C
F800003C
F000003C
F000003C
F000003C
F000003C
F000003C
F000003C
F800003C
7800007C
78000078
7C000078
3E0000F0
3F0001F0
1F8003E0
0FE00FC0
07FFFF80
03FFFF00
00FFFC00
001FE000
00078000
000E0000
001C0000
001C0000
00180000
001C0000
001E6000
000FE000
0007C000
ENDCHAR
STARTCHAR 01EB
ENCODING 491
SWIDTH 636 0
DWIDTH 26 0
BBX 22 31 2 -9
BITMAP
00FE00
07FF80
0FFFC0
1FCFE0
3E01F0
7C00F8
780078
F0003C
F0003C
F0003C
F0003C
F0003C
F0003C
F0003C
F0003C
780078
7C00F8
3E01F0
3FC7E0
0FFFC0
07FF80
01FE00
003800
007000
00E000
00C000
01C000
01C000
00E200
00FF00
003E00
ENDCHAR
STARTCHAR 01EE
ENCODING 494
SWIDTH 612 0
DWIDTH 25 0
BBX 22 37 1 -1
BITMAP
0783C0
03C780
01EF00
00FE00
007C00
000000
000000
7FFFF8
7FFFF8
7FFFF8
0000F8
0001F0
0001E0
0003C0
000780
000F00
001F00
001E00
003C00
007800
00FF80
00FFE0
00FFF0
0003F8
00007C
00003C
00003C
00003C
00003C
00003C
00003C
70007C
7C00F8
FFFFF8
7FFFF0
1FFFC0
03FE00
ENDCHAR
STARTCHAR 01EF
ENCODING 495
SWIDTH 538 0
DWIDTH 22 0
BBX 21 39 -1 -9
BITMAP
1E0780
078F00
03DE00
01FC00
00F800
000000
000000
000000
7FFFF0
7FFFF0
7FFFF0
0001E0
0003E0
0003C0
000780
000F00
001F00
001E00
003C00
007800
00F800
00FE00
00FFC0
00FFE0
0007F0
0001F0
0000F8
000078
000078
000078
000078
000078
400078
7000F0
FC01F0
7FFFE0
3FFFC0
1FFF80
03FC00
ENDCHAR
STARTCHAR 01FA
ENCODING 506
SWIDTH 734 0
DWIDTH 30 0
BBX 30 44 0 0
BITMAP
00000800
00001C00
00003C00
00037800
000FF000
0018E000
00186000
00302000
00302000
00186000
00186000
000FC000
00030000
00000000
00000000
00078000
000FC000
000FC000
001FE000
001FE000
003DE000
003CF000
0038F000
00787800
00787800
00F03C00
00F03C00
01E03E00
01E01E00
03E01E00
03C00F00
03C00F00
07800780
07800780
0FFFFFC0
0FFFFFC0
1FFFFFE0
1E0001E0
3E0001E0
3C0000F0
3C0000F0
780000F8
78000078
F000007C
ENDCHAR
STARTCHAR 01FB
ENCODING 507
SWIDTH 587 0
DWIDTH 24 0
BBX 19 36 2 0
BITMAP
000100
000380
000780
00FE00
01FC00
030C00
060C00
060400
060C00
030C00
01F800
006000
000000
000000
03FC00
1FFF00
7FFF80
7F3FC0
3007C0
0003E0
0001E0
0001E0
0001E0
03FFE0
1FFFE0
3FFFE0
7C01E0
F001E0
F001E0
F001E0
F003E0
F807E0
7C1FE0
7FFFE0
1FFDE0
07E1E0
ENDCHAR
STARTCHAR 01FC
ENCODING 508
SWIDTH 1053 0
DWIDTH 43 0
BBX 40 36 0 0
BITMAP
000001F800
000003E000
000007C000
00000F0000
00001E0000
0000000000
0000000000
00007FFFFF
0000FFFFFF
0000FFFFFF
0001FFFFFF
0003CF0000
0003CF0000
00078F0000
00078F0000
000F0F0000
001F0F0000
001E0F0000
003C0F0000
003C0F0000
00780FFFFC
00F80FFFFC
00F00FFFFC
01F00F0000
01E00F0000
03C00F0000
03FFFF0000
07FFFF0000
0FFFFF0000
0F000F0000
1E000F0000
1E000F0000
3C000FFFFF
7C000FFFFF
78000FFFFF
F0000FFFFF
ENDCHAR
STARTCHAR 01FD
ENCODING 509
SWIDTH 979 0
DWIDTH 40 0
BBX 37 30 2 0
BITMAP
00001F0000
00007C0000
0000F80000
0001E00000
0003C00000
0000000000
0000000000
0000000000
03F801F800
1FFF0FFF00
7FFF9FFF80
7F3FBF9FC0
3007FC03E0
0003F801E0
0001F000F0
0001E000F0
0001E00070
03FFFFFFF8
1FFFFFFFF8
7FFFFFFFF8
7C01E00000
F001E00000
F001F00000
F001F00000
F003F800C0
F807FC01C0
7C0FBFCFE0
3FFF1FFFC0
1FFC0FFF80
07F001FC00
ENDCHAR
STARTCHAR 01FE
ENCODING 510
SWIDTH 832 0
DWIDTH 34 0
BBX 30 41 2 -4
BITMAP
00007C00
0000F000
0001E000
0003C000
00070038
00000070
000000F0
001FE0E0
00FFFDC0
01FFFF80
07FFFF80
0FE01FC0
1F800FE0
1F000FF0
3E001CF0
7C0038F8
78003878
7800707C
F800E03C
F000E03C
F001C03C
F003803C
F003803C
F007003C
F00E003C
F00E003C
F81C003C
7838007C
78380078
7C7000F8
3EE000F0
3FE001F0
1FC007E0
0FE00FC0
07FFFF80
07FFFF00
0EFFFC00
1E1FE000
1C000000
38000000
78000000
ENDCHAR
STARTCHAR 01FF
ENCODING 511
SWIDTH 636 0
DWIDTH 26 0
BBX 22 33 2 -3
BITMAP
0007C0
001F00
003E00
007800
00F000
000018
000030
000070
00FE60
07FFC0
0FFFC0
1FCFE0
3E03F0
7C07F8
780678
F00E3C
F01C3C
F0183C
F0383C
F0703C
F0603C
F0E03C
F1C03C
798078
7F80F8
3F01F0
1FCFE0
0FFFC0
1FFF80
19FC00
380000
700000
600000
ENDCHAR
STARTCHAR 0200
ENCODING 512
SWIDTH 734 0
DWIDTH 30 0
BBX 30 36 0 0
BITMAP
03C78000
01E3C000
00E1C000
00F0E000
0078F000
00000000
00000000
00078000
000FC000
000FC000
001FE000
001FE000
003DE000
003CF000
0038F000
00787800
00787800
00F03C00
00F03C00
01E03E00
01E01E00
03E01E00
03C00F00
03C00F00
07800780
07800780
0FFFFFC0
0FFFFFC0
1FFFFFE0
1E0001E0
3E0001E0
3C0000F0
3C0000F0
780000F8
78000078
F000007C
ENDCHAR
STARTCHAR 0201
ENCODING 513
SWIDTH 587 0
DWIDTH 24 0
BBX 19 30 2 0
BITMAP
78F000
3C7800
1C3800
1E1C00
0F1E00
000000
000000
000000
03FC00
1FFF00
7FFF80
7F3FC0
3007C0
0003E0
0001E0
0001E0
0001E0
03FFE0
1FFFE0
3FFFE0
7C01E0
F001E0
F001E0
F001E0
F003E0
F807E0
7C1FE0
7FFFE0
1FFDE0
07E1E0
ENDCHAR
STARTCHAR 0202
ENCODING 514
SWIDTH 734 0
DWIDTH 30 0
BBX 30 37 0 0
BITMAP
000FC000
003FF000
007CF800
00703800
00E01800
00E01C00
00000000
00000000
00078000
000FC000
000FC000
001FE000
001FE000
003DE000
003CF000
0038F000
00787800
00787800
00F03C00
00F03C00
01E03E00
01E01E00
03E01E00
03C00F00
03C00F00
07800780
07800780
0FFFFFC0
0FFFFFC0
1FFFFFE0
1E0001E0
3E0001E0
3C0000F0
3C0000F0
780000F8
78000078
F000007C
ENDCHAR
STARTCHAR 0203
ENCODING 515
SWIDTH 587 0
DWIDTH 24 0
BBX 19 30 2 0
BITMAP
01F800
07FE00
0F1F00
0E0700
1C0300
000000
000000
000000
03FC00
1FFF00
7FFF80
7F3FC0
3007C0
0003E0
0001E0
0001E0
0001E0
03FFE0
1FFFE0
3FFFE0
7C01E0
F001E0
F001E0
F001E0
F003E0
F807E0
7C1FE0
7FFFE0
1FFDE0
07E1E0
ENDCHAR
STARTCHAR 0204
ENCODING 516
SWIDTH 661 0
DWIDTH 27 0
BBX 21 36 4 0
BITMAP
78F800
3C7800
1E3C00
0E1E00
070E00
000000
000000
FFFFF0
FFFFF0
FFFFF0
FFFFF0
F00000
F00000
F00000
F00000
F00000
F00000
F00000
F00000
F00000
FFFFE0
FFFFE0
FFFFE0
F00000
F00000
F00000
F00000
F00000
F00000
F00000
F00000
F00000
FFFFF8
FFFFF8
FFFFF8
FFFFF8
ENDCHAR
STARTCHAR 0205
ENCODING 517
SWIDTH 612 0
DWIDTH 25 0
BBX 21 30 2 0
BITMAP
7CF800
3C7800
1E3C00
0F1E00
070E00
000000
000000
000000
01FC00
07FF00
1FFFC0
3F8FE0
3C01F0
7800F0
780078
F00078
F00078
FFFFF8
FFFFF8
FFFFF8
F00000
F00000
F00000
780000
7C0040
3E00E0
1FEFF0
0FFFE0
07FF80
00FE00
ENDCHAR
STARTCHAR 0206
ENCODING 518
SWIDTH 661 0
DWIDTH 27 0
BBX 21 37 4 0
BITMAP
00F800
03FE00
078F00
0E0780
0E0380
0C0380
000000
000000
FFFFF0
FFFFF0
FFFFF0
FFFFF0
F00000
F00000
F00000
F00000
F00000
F00000
F00000
F00000
F00000
FFFFE0
FFFFE0
FFFFE0
F00000
F00000
F00000
F00000
F00000
F00000
F00000
F00000
F00000
FFFFF8
FFFFF8
FFFFF8
FFFFF8
ENDCHAR
STARTCHAR 0207
ENCODING 519
SWIDTH 612 0
DWIDTH 25 0
BBX 21 30 2 0
BITMAP
00F800
03FE00
078F00
0E0380
0E0380
000000
000000
000000
01FC00
07FF00
1FFFC0
3F8FE0
3C01F0
7800F0
780078
F00078
F00078
FFFFF8
FFFFF8
FFFFF8
F00000
F00000
F00000
780000
7C0040
3E00E0
1FEFF0
0FFFE0
07FF80
00FE00
ENDCHAR
STARTCHAR 0208
ENCODING 520
SWIDTH 318 0
DWIDTH 13 0
BBX 14 36 -3 0
BITMAP
F1E0
78F0
3C78
1C3C
0E1C
0000
0000
01E0
01E0
01E0
01E0
01E0
01E0
01E0
01E0
01E0
01E0
01E0
01E0
01E0
01E0
01E0
01E0
01E0
01E0
01E0
01E0
01E0
01E0
01E0
01E0
01E0
01E0
01E0
01E0
01E0
ENDCHAR
STARTCHAR 0209
ENCODING 521
SWIDTH 269 0
DWIDTH 11 0
BBX 15 30 -4 0
BITMAP
F8F0
7870
3C78
1E3C
0E1E
0000
0000
0000
00F0
00F0
00F0
00F0
00F0
00F0
00F0
00F0
00F0
00F0
00F0
00F0
00F0
00F0
00F0
00F0
00F0
00F0
00F0
00F0
00F0
00F0
ENDCHAR
STARTCHAR 020A
ENCODING 522
SWIDTH 318 0
DWIDTH 13 0
BBX 13 37 0 0
BITMAP
0F80
3FE0
78F0
E078
E038
C038
0000
0000
0F00
0F00
0F00
0F00
0F00
0F00
0F00
0F00
0F00
0F00
0F00
0F00
0F00
0F00
0F00
0F00
0F00
0F00
0F00
0F00
0F00
0F00
0F00
0F00
0F00
0F00
0F00
0F00
0F00
ENDCHAR
STARTCHAR 020B
ENCODING 523
SWIDTH 269 0
DWIDTH 11 0
BBX 11 30 0 0
BITMAP
1F00
3FC0
71E0
E0E0
E060
0000
0000
0000
0F00
0F00
0F00
0F00
0F00
0F00
0F00
0F00
0F00
0F00
0F00
0F00
0F00
0F00
0F00
0F00
0F00
0F00
0F00
0F00
0F00
0F00
ENDCHAR
STARTCHAR 020C
ENCODING 524
SWIDTH 832 0
DWIDTH 34 0
BBX 30 38 2 -1
BITMAP
03C78000
01E3C000
00F1E000
0070E000
00387000
00000000
00000000
001FE000
00FFFC00
01FFFF00
07FFFF80
0FE01FC0
1F8007E0
1F0001F0
3E0000F0
7C0000F8
78000078
7800007C
F800003C
F000003C
F000003C
F000003C
F000003C
F000003C
F000003C
F000003C
F800003C
7800007C
78000078
7C0000F8
3E0000F0
1F0001F0
1F8007E0
0FE00FC0
07FFFF80
01FFFF00
00FFFC00
001FE000
ENDCHAR
STARTCHAR 020D
ENCODING 525
SWIDTH 636 0
DWIDTH 26 0
BBX 22 30 2 0
BITMAP
3C7800
1E3C00
0E1C00
0F0E00
078F00
000000
000000
000000
00FE00
07FF80
0FFFC0
1FCFE0
3E01F0
7C00F8
780078
F0003C
F0003C
F0003C
F0003C
F0003C
F0003C
F0003C
F0003C
780078
7C00F8
3E01F0
1FCFE0
0FFFC0
07FF80
01FC00
ENDCHAR
STARTCHAR 020E
ENCODING 526
SWIDTH 832 0
DWIDTH 34 0
BBX 30 38 2 -1
BITMAP
000FE000
003FF000
00787800
00701C00
00601C00
00000000
00000000
001FE000
00FFFC00
01FFFF00
07FFFF80
0FE01FC0
1F8007E0
1F0001F0
3E0000F0
7C0000F8
78000078
7800007C
F800003C
F000003C
F000003C
F000003C
F000003C
F000003C
F000003C
F000003C
F800003C
7800007C
78000078
7C0000F8
3E0000F0
1F0001F0
1F8007E0
0FE00FC0
07FFFF80
01FFFF00
00FFFC00
001FE000
ENDCHAR
STARTCHAR 020F
ENCODING 527
SWIDTH 636 0
DWIDTH 26 0
BBX 22 30 2 0
BITMAP
00FC00
03FF00
078F80
070380
0E0180
000000
000000
000000
00FE00
07FF80
0FFFC0
1FCFE0
3E01F0
7C00F8
780078
F0003C
F0003C
F0003C
F0003C
F0003C
F0003C
F0003C
F0003C
780078
7C00F8
3E01F0
1FCFE0
0FFFC0
07FF80
01FC00
ENDCHAR
STARTCHAR 0210
ENCODING 528
SWIDTH 734 0
DWIDTH 30 0
BBX 24 36 4 0
BITMAP
3C7800
1E3C00
0F1E00
070E00
078700
000000
000000
FFFF00
FFFFC0
FFFFF0
FFFFF8
F000FC
F0003C
F0003E
F0001E
F0001E
F0001E
F0001E
F0001E
F0001E
F0003E
F0003C
F000FC
F00FF8
FFFFF0
FFFFC0
FFFF80
F003C0
F003E0
F001E0
F000F0
F000F8
F00078
F0003C
F0003E
F0001F
ENDCHAR
STARTCHAR 0211
ENCODING 529
SWIDTH 416 0
DWIDTH 17 0
BBX 15 30 0 0
BITMAP
F9F0
78F0
3C78
1E3C
0E1C
0000
0000
0000
0E0E
0E3E
0E7E
0EFE
0FE0
0FC0
0F80
0F00
0F00
0F00
0F00
0F00
0F00
0F00
0F00
0F00
0F00
0F00
0F00
0F00
0F00
0F00
ENDCHAR
STARTCHAR 0212
ENCODING 530
SWIDTH 734 0
DWIDTH 30 0
BBX 24 37 4 0
BITMAP
00FC00
01FF00
03CF80
070380
0601C0
0601C0
000000
000000
FFFF00
FFFFC0
FFFFF0
FFFFF8
F000FC
F0003C
F0003E
F0001E
F0001E
F0001E
F0001E
F0001E
F0001E
F0003E
F0003C
F000FC
F00FF8
FFFFF0
FFFFC0
FFFF80
F003C0
F003E0
F001E0
F000F0
F000F8
F00078
F0003C
F0003E
F0001F
ENDCHAR
STARTCHAR 0213
ENCODING 531
SWIDTH 416 0
DWIDTH 17 0
BBX 13 30 3 0
BITMAP
0F80
3FE0
78F0
E038
E038
0000
0000
0000
7070
71F0
73F0
77F0
7F00
7E00
7C00
7800
7800
7800
7800
7800
7800
7800
7800
7800
7800
7800
7800
7800
7800
7800
ENDCHAR
STARTCHAR 0214
ENCODING 532
SWIDTH 783 0
DWIDTH 32 0
BBX 24 37 4 -1
BITMAP
1E3C00
0F1E00
078F00
038700
01C380
000000
000000
F0000F
F0000F
F0000F
F0000F
F0000F
F0000F
F0000F
F0000F
F0000F
F0000F
F0000F
F0000F
F0000F
F0000F
F0000F
F0000F
F0000F
F0000F
F0000F
F0000F
F8000F
78000F
78001E
7C001E
3E003E
3F00FC
1FFFF8
0FFFF0
03FFE0
00FF00
ENDCHAR
STARTCHAR 0215
ENCODING 533
SWIDTH 685 0
DWIDTH 28 0
BBX 20 30 4 0
BITMAP
78F000
387800
3C7800
1E3C00
0E1E00
000000
000000
000000
E000F0
E000F0
E000F0
E000F0
E000F0
E000F0
E000F0
E000F0
E000F0
E000F0
E000F0
E000F0
E000F0
F000F0
F001F0
F001F0
F803F0
FC07F0
7FFFF0
3FFEF0
1FFCF0
07F0F0
ENDCHAR
STARTCHAR 0216
ENCODING 534
SWIDTH 783 0
DWIDTH 32 0
BBX 24 38 4 -1
BITMAP
007E00
00FF80
01E7C0
0381C0
0300E0
0300E0
000000
000000
F0000F
F0000F
F0000F
F0000F
F0000F
F0000F
F0000F
F0000F
F0000F
F0000F
F0000F
F0000F
F0000F
F0000F
F0000F
F0000F
F0000F
F0000F
F0000F
F0000F
F8000F
78000F
78001E
7C001E
3E003E
3F00FC
1FFFF8
0FFFF0
03FFE0
00FF00
ENDCHAR
STARTCHAR 0217
ENCODING 535
SWIDTH 685 0
DWIDTH 28 0
BBX 20 30 4 0
BITMAP
01F800
07FC00
0F1E00
0C0700
1C0300
000000
000000
000000
E000F0
E000F0
E000F0
E000F0
E000F0
E000F0
E000F0
E000F0
E000F0
E000F0
E000F0
E000F0
E000F0
F000F0
F001F0
F001F0
F803F0
FC07F0
7FFFF0
3FFEF0
1FFCF0
07F0F0
ENDCHAR
STARTCHAR 0218
ENCODING 536
SWIDTH 612 0
DWIDTH 25 0
BBX 22 41 2 -11
BITMAP
01FF00
07FFE0
1FFFF0
3FFFF0
7E00F0
780020
780000
F00000
F00000
F80000
780000
7C0000
7E0000
3FC000
1FFC00
0FFF80
03FFE0
003FF0
0007F8
0000F8
000078
00007C
00003C
00003C
400078
600078
F800F8
FFDFF0
7FFFE0
1FFFC0
03FE00
000000
000000
000000
003000
007800
007800
003800
003800
003000
003000
ENDCHAR
STARTCHAR 0219
ENCODING 537
SWIDTH 489 0
DWIDTH 20 0
BBX 18 33 1 -11
BITMAP
03FC00
0FFF80
3FFF80
3F1F80
780100
780000
780000
780000
7C0000
7F8000
3FFC00
0FFF00
03FF80
000FC0
0003C0
0003C0
0003C0
7003C0
7F1FC0
FFFF80
3FFE00
07F800
000000
000000
000000
000000
00E000
01E000
01E000
00E000
00C000
00C000
00C000
ENDCHAR
STARTCHAR 021A
ENCODING 538
SWIDTH 587 0
DWIDTH 24 0
BBX 24 40 0 -11
BITMAP
FFFFFF
FFFFFF
FFFFFF
FFFFFF
003C00
003C00
003C00
003C00
003C00
003C00
003C00
003C00
003C00
003C00
003C00
003C00
003C00
003C00
003C00
003C00
003C00
003C00
003C00
003C00
003C00
003C00
003C00
003C00
003C00
000000
000000
000000
000000
001800
003C00
003C00
001C00
001800
001800
003000
ENDCHAR
STARTCHAR 021B
ENCODING 539
SWIDTH 416 0
DWIDTH 17 0
BBX 15 38 1 -11
BITMAP
1E00
1E00
1E00
1E00
1E00
FFF8
FFF8
FFF8
1E00
1E00
1E00
1E00
1E00
1E00
1E00
1E00
1E00
1E00
1E00
1E00
1E00
1E00
0F00
0F8C
0FFC
07FE
01F8
0000
0000
0000
0000
00E0
01E0
01E0
00E0
00E0
00C0
00C0
ENDCHAR
STARTCHAR 021E
ENCODING 542
SWIDTH 808 0
DWIDTH 33 0
BBX 25 36 4 0
BITMAP
03C1E000
01E3C000
00F78000
007F0000
003E0000
00000000
00000000
F0000780
F0000780
F0000780
F0000780
F0000780
F0000780
F0000780
F0000780
F0000780
F0000780
F0000780
F0000780
FFFFFF80
FFFFFF80
FFFFFF80
FFFFFF80
F0000780
F0000780
F0000780
F0000780
F0000780
F0000780
F0000780
F0000780
F0000780
F0000780
F0000780
F0000780
F0000780
ENDCHAR
STARTCHAR 021F
ENCODING 543
SWIDTH 685 0
DWIDTH 28 0
BBX 25 38 -1 0
BITMAP
F0780000
78F00000
3DE00000
1FC00000
0F800000
00000000
00000000
00000000
07800000
07800000
07800000
07800000
07800000
07800000
07800000
07800000
0787F000
079FFC00
07FFFE00
07FFFF00
07F01F00
07C00F80
07C00780
07800780
07800780
07800780
07800780
07800780
07800780
07800780
07800780
07800780
07800780
07800780
07800780
07800780
07800780
07800780
ENDCHAR
STARTCHAR 022A
ENCODING 554
SWIDTH 832 0
DWIDTH 34 0
BBX 30 42 2 -1
BITMAP
007FFC00
007FFC00
00000000
00000000
00383000
00387800
00387800
00383000
00000000
00000000
00000000
001FE000
00FFFC00
01FFFF00
07FFFF80
0FE01FC0
1F8007E0
1F0001F0
3E0000F0
7C0000F8
78000078
7800007C
F800003C
F000003C
F000003C
F000003C
F000003C
F000003C
F000003C
F000003C
F800003C
7800007C
78000078
7C0000F8
3E0000F0
1F0001F0
1F8007E0
0FE00FC0
07FFFF80
01FFFF00
00FFFC00
001FE000
ENDCHAR
STARTCHAR 022B
ENCODING 555
SWIDTH 636 0
DWIDTH 26 0
BBX 22 34 2 0
BITMAP
0FFFC0
0FFFC0
000000
000000
038700
078780
078780
038700
000000
000000
000000
000000
00FE00
07FF80
0FFFC0
1FCFE0
3E01F0
7C00F8
780078
F0003C
F0003C
F0003C
F0003C
F0003C
F0003C
F0003C
F0003C
780078
7C00F8
3E01F0
1FCFE0
0FFFC0
07FF80
01FC00
ENDCHAR
STARTCHAR 022C
ENCODING 556
SWIDTH 832 0
DWIDTH 34 0
BBX 30 42 2 -1
BITMAP
007FFC00
007FFC00
00000000
00000000
00000000
003E0C00
007F9C00
0063F800
00E0F000
00000000
00000000
001FE000
00FFFC00
01FFFF00
07FFFF80
0FE01FC0
1F8007E0
1F0001F0
3E0000F0
7C0000F8
78000078
7800007C
F800003C
F000003C
F000003C
F000003C
F000003C
F000003C
F000003C
F000003C
F800003C
7800007C
78000078
7C0000F8
3E0000F0
1F0001F0
1F8007E0
0FE00FC0
07FFFF80
01FFFF00
00FFFC00
001FE000
ENDCHAR
STARTCHAR 022D
ENCODING 557
SWIDTH 636 0
DWIDTH 26 0
BBX 22 34 2 0
BITMAP
0FFFC0
0FFFC0
000000
000000
03E1C0
07F180
0E3F80
0E1F00
000000
000000
000000
000000
00FE00
07FF80
0FFFC0
1FCFE0
3E01F0
7C00F8
780078
F0003C
F0003C
F0003C
F0003C
F0003C
F0003C
F0003C
F0003C
780078
7C00F8
3E01F0
1FCFE0
0FFFC0
07FF80
01FC00
ENDCHAR
STARTCHAR 0230
ENCODING 560
SWIDTH 832 0
DWIDTH 34 0
BBX 30 42 2 -1
BITMAP
007FFC00
007FFC00
00000000
00000000
00038000
00078000
00078000
00038000
00000000
00000000
00000000
001FE000
00FFFC00
01FFFF00
07FFFF80
0FE01FC0
1F8007E0
1F0001F0
3E0000F0
7C0000F8
78000078
7800007C
F800003C
F000003C
F000003C
F000003C
F000003C
F000003C
F000003C
F000003C
F800003C
7800007C
78000078
7C0000F8
3E0000F0
1F0001F0
1F8007E0
0FE00FC0
07FFFF80
01FFFF00
00FFFC00
001FE000
ENDCHAR
STARTCHAR 0231
ENCODING 561
SWIDTH 636 0
DWIDTH 26 0
BBX 22 34 2 0
BITMAP
0FFFC0
0FFFC0
000000
000000
003000
007800
007800
007000
000000
000000
000000
000000
00FE00
07FF80
0FFFC0
1FCFE0
3E01F0
7C00F8
780078
F0003C
F0003C
F0003C
F0003C
F0003C
F0003C
F0003C
F0003C
780078
7C00F8
3E01F0
1FCFE0
0FFFC0
07FF80
01FC00
ENDCHAR
STARTCHAR 0232
ENCODING 562
SWIDTH 636 0
DWIDTH 26 0
BBX 26 35 0 0
BITMAP
01FFF000
01FFF000
00000000
00000000
00000000
00000000
F80003C0
780003C0
7C000780
3C000F00
1E000F00
1F001E00
0F001E00
0F803C00
07807800
03C07800
03E0F000
01E0F000
01F1E000
00F3E000
007BC000
007F8000
003F8000
003F0000
001F0000
001E0000
001E0000
001E0000
001E0000
001E0000
001E0000
001E0000
001E0000
001E0000
001E0000
ENDCHAR
STARTCHAR 0233
ENCODING 563
SWIDTH 563 0
DWIDTH 23 0
BBX 24 37 -1 -8
BITMAP
07FFE0
07FFE0
000000
000000
000000
000000
000000
78000F
3C001E
3C001E
3E001C
1E003C
1E0038
0F0078
0F0078
0780F0
0780F0
03C0E0
03C1E0
03C1C0
01E3C0
01E3C0
00F780
00F780
007F00
007F00
007E00
003E00
003C00
003C00
003C00
007800
00F800
79F000
FFE000
7FC000
1F0000
ENDCHAR
STARTCHAR 0237
ENCODING 567
SWIDTH 293 0
DWIDTH 12 0
BBX 12 30 -4 -8
BITMAP
00F0
00F0
00F0
00F0
00F0
00F0
00F0
00F0
00F0
00F0
00F0
00F0
00F0
00F0
00F0
00F0
00F0
00F0
00F0
00F0
00F0
00F0
00F0
00F0
00F0
01E0
63E0
7FE0
FFC0
3F00
ENDCHAR
STARTCHAR 0259
ENCODING 601
SWIDTH 612 0
DWIDTH 25 0
BBX 21 22 2 0
BITMAP
03FC00
0FFF00
3FFF80
7FBFC0
3803E0
1001F0
0000F0
000078
000078
000078
FFFFF8
FFFFF8
FFFFF8
F00078
F00078
F000F0
7800F0
7C01E0
3F8FE0
1FFFC0
07FF00
01FC00
ENDCHAR
STARTCHAR 0292
ENCODING 658
SWIDTH 538 0
DWIDTH 22 0
BBX 21 31 -1 -9
BITMAP
7FFFF0
7FFFF0
7FFFF0
0001E0
0003E0
0003C0
000780
000F00
001F00
001E00
003C00
007800
00F800
00FE00
00FFC0
00FFE0
0007F0
0001F0
0000F8
000078
000078
000078
000078
000078
400078
7000F0
FC01F0
7FFFE0
3FFFC0
1FFF80
03FC00
ENDCHAR
STARTCHAR 02B9
ENCODING 697
SWIDTH 220 0
DWIDTH 9 0
BBX 3 11 3 18
BITMAP
E0
E0
E0
E0
E0
E0
E0
E0
E0
E0
E0
ENDCHAR
STARTCHAR 02BA
ENCODING 698
SWIDTH 391 0
DWIDTH 16 0
BBX 10 11 3 18
BITMAP
E1C0
E1C0
E1C0
E1C0
E1C0
E1C0
E1C0
E1C0
E1C0
E1C0
E1C0
ENDCHAR
STARTCHAR 02BB
ENCODING 699
SWIDTH 269 0
DWIDTH 11 0
BBX 5 11 3 24
BITMAP
38
30
70
70
70
F0
F0
F8
F8
F8
F0
ENDCHAR
STARTCHAR 02BC
ENCODING 700
SWIDTH 171 0
DWIDTH 7 0
BBX 3 11 2 18
BITMAP
E0
E0
E0
E0
E0
E0
E0
E0
C0
C0
C0
ENDCHAR
STARTCHAR 02BE
ENCODING 702
SWIDTH 612 0
DWIDTH 25 0
BBX 5 9 12 24
BITMAP
C0
F0
30
18
18
18
30
F0
C0
ENDCHAR
STARTCHAR 02BF
ENCODING 703
SWIDTH 612 0
DWIDTH 25 0
BBX 4 9 8 24
BITMAP
30
70
C0
C0
C0
C0
E0
70
10
ENDCHAR
STARTCHAR 02C6
ENCODING 710
SWIDTH 612 0
DWIDTH 25 0
BBX 14 5 5 25
BITMAP
07C0
0FE0
1EF0
3C78
F03C
ENDCHAR
STARTCHAR 02C7
ENCODING 711
SWIDTH 612 0
DWIDTH 25 0
BBX 14 5 5 25
BITMAP
F03C
7878
3EF0
1FE0
07C0
ENDCHAR
STARTCHAR 02C8
ENCODING 712
SWIDTH 171 0
DWIDTH 7 0
BBX 3 8 2 21
BITMAP
E0
E0
E0
E0
E0
E0
E0
E0
ENDCHAR
STARTCHAR 02C9
ENCODING 713
SWIDTH 612 0
DWIDTH 25 0
BBX 13 2 6 27
BITMAP
FFF8
FFF8
ENDCHAR
STARTCHAR 02CA
ENCODING 714
SWIDTH 612 0
DWIDTH 25 0
BBX 9 5 10 25
BITMAP
0F80
1F00
3C00
7800
F000
ENDCHAR
STARTCHAR 02CB
ENCODING 715
SWIDTH 612 0
DWIDTH 25 0
BBX 10 5 5 25
BITMAP
F800
3C00
1E00
0F00
03C0
ENDCHAR
STARTCHAR 02CC
ENCODING 716
SWIDTH 171 0
DWIDTH 7 0
BBX 3 8 2 -9
BITMAP
E0
E0
E0
E0
E0
E0
E0
E0
ENDCHAR
STARTCHAR 02D8
ENCODING 728
SWIDTH 612 0
DWIDTH 25 0
BBX 13 5 6 25
BITMAP
C038
E038
F0F0
7FE0
1FC0
ENDCHAR
STARTCHAR 02D9
ENCODING 729
SWIDTH 612 0
DWIDTH 25 0
BBX 5 5 10 25
BITMAP
70
F8
F8
F0
60
ENDCHAR
STARTCHAR 02DA
ENCODING 730
SWIDTH 612 0
DWIDTH 25 0
BBX 9 9 8 24
BITMAP
3C00
7F00
C300
C180
C180
C180
E300
7E00
1800
ENDCHAR
STARTCHAR 02DB
ENCODING 731
SWIDTH 612 0
DWIDTH 25 0
BBX 8 10 5 -9
BITMAP
0E
3C
78
E0
E0
C0
E0
E1
FF
7F
ENDCHAR
STARTCHAR 02DC
ENCODING 732
SWIDTH 612 0
DWIDTH 25 0
BBX 14 5 5 25
BITMAP
3E0C
7F0C
63FC
61F8
E0F0
ENDCHAR
STARTCHAR 02DD
ENCODING 733
SWIDTH 612 0
DWIDTH 25 0
BBX 14 5 8 25
BITMAP
3C7C
3C78
78F0
F1E0
E1C0
ENDCHAR
STARTCHAR 0300
ENCODING 768
SWIDTH 0 0
DWIDTH 0 0
BBX 9 5 -19 25
BITMAP
F800
7C00
3E00
0F00
0780
ENDCHAR
STARTCHAR 0301
ENCODING 769
SWIDTH 0 0
DWIDTH 0 0
BBX 10 5 -15 25
BITMAP
07C0
0F00
1E00
3C00
F000
ENDCHAR
STARTCHAR 0302
ENCODING 770
SWIDTH 0 0
DWIDTH 0 0
BBX 14 5 -19 25
BITMAP
0F80
1FC0
3DE0
78F0
F03C
ENDCHAR
STARTCHAR 0303
ENCODING 771
SWIDTH 0 0
DWIDTH 0 0
BBX 14 5 -19 25
BITMAP
3C1C
7E18
E7B8
C3F8
C0E0
ENDCHAR
STARTCHAR 0304
ENCODING 772
SWIDTH 0 0
DWIDTH 0 0
BBX 13 2 -19 27
BITMAP
FFF8
FFF8
ENDCHAR
STARTCHAR 0306
ENCODING 774
SWIDTH 0 0
DWIDTH 0 0
BBX 13 5 -19 25
BITMAP
E018
E038
7878
3FF0
1FC0
ENDCHAR
STARTCHAR 0307
ENCODING 775
SWIDTH 0 0
DWIDTH 0 0
BBX 5 5 -15 25
BITMAP
70
78
F8
78
70
ENDCHAR
STARTCHAR 0308
ENCODING 776
SWIDTH 0 0
DWIDTH 0 0
BBX 12 4 -18 26
BITMAP
60E0
F0F0
F1F0
F0E0
ENDCHAR
STARTCHAR 0309
ENCODING 777
SWIDTH 0 0
DWIDTH 0 0
BBX 8 8 -16 25
BITMAP
7C
FE
4F
07
07
07
0E
0C
ENDCHAR
STARTCHAR 030A
ENCODING 778
SWIDTH 0 0
DWIDTH 0 0
BBX 9 9 -17 24
BITMAP
1E00
7F00
6180
C180
C180
C180
6380
3F00
0C00
ENDCHAR
STARTCHAR 030B
ENCODING 779
SWIDTH 0 0
DWIDTH 0 0
BBX 14 5 -17 25
BITMAP
1E3C
3C78
7870
70E0
F1E0
ENDCHAR
STARTCHAR 030C
ENCODING 780
SWIDTH 0 0
DWIDTH 0 0
BBX 14 5 -19 25
BITMAP
F03C
7878
3DE0
1FC0
0F80
ENDCHAR
STARTCHAR 030F
ENCODING 783
SWIDTH 0 0
DWIDTH 0 0
BBX 14 5 -22 25
BITMAP
F8F0
78F0
3C78
1E3C
0E1C
ENDCHAR
STARTCHAR 0311
ENCODING 785
SWIDTH 0 0
DWIDTH 0 0
BBX 13 6 -19 24
BITMAP
0FC0
3FE0
78F0
7038
E018
E018
ENDCHAR
STARTCHAR 0312
ENCODING 786
SWIDTH 0 0
DWIDTH 0 0
BBX 5 8 -15 24
BITMAP
38
30
30
70
70
F8
78
30
ENDCHAR
STARTCHAR 031B
ENCODING 795
SWIDTH 0 0
DWIDTH 0 0
BBX 6 9 -13 19
BITMAP
18
1C
1C
1C
1C
3C
F8
F8
E0
ENDCHAR
STARTCHAR 0323
ENCODING 803
SWIDTH 0 0
DWIDTH 0 0
BBX 4 4 -14 -8
BITMAP
E0
F0
F0
E0
ENDCHAR
STARTCHAR 0324
ENCODING 804
SWIDTH 0 0
DWIDTH 0 0
BBX 11 4 -18 -8
BITMAP
70E0
F1E0
F1E0
70E0
ENDCHAR
STARTCHAR 0326
ENCODING 806
SWIDTH 0 0
DWIDTH 0 0
BBX 4 7 -14 -11
BITMAP
E0
F0
F0
70
60
E0
C0
ENDCHAR
STARTCHAR 0327
ENCODING 807
SWIDTH 0 0
DWIDTH 0 0
BBX 9 10 -17 -10
BITMAP
1C00
1800
1C00
1F00
0780
0380
0380
4780
FF00
7C00
ENDCHAR
STARTCHAR 0328
ENCODING 808
SWIDTH 0 0
DWIDTH 0 0
BBX 8 10 -20 -9
BITMAP
0E
1E
38
70
E0
E0
E0
F0
7F
3F
ENDCHAR
STARTCHAR 032E
ENCODING 814
SWIDTH 0 0
DWIDTH 0 0
BBX 13 5 -19 -8
BITMAP
E018
E038
7078
3FF0
1FC0
ENDCHAR
STARTCHAR 0331
ENCODING 817
SWIDTH 0 0
DWIDTH 0 0
BBX 13 2 -19 -7
BITMAP
FFF8
FFF8
ENDCHAR
STARTCHAR 0335
ENCODING 821
SWIDTH 0 0
DWIDTH 0 0
BBX 16 3 -20 16
BITMAP
FFFF
FFFF
FFFF
ENDCHAR
STARTCHAR 0336
ENCODING 822
SWIDTH 0 0
DWIDTH 0 0
BBX 33 3 -34 16
BITMAP
FFFFFFFF80
FFFFFFFF80
FFFFFFFF80
ENDCHAR
STARTCHAR 0337
ENCODING 823
SWIDTH 0 0
DWIDTH 0 0
BBX 12 10 -15 10
BITMAP
0020
0070
01F0
03E0
07C0
1F00
3E00
7C00
F000
6000
ENDCHAR
STARTCHAR 0338
ENCODING 824
SWIDTH 0 0
DWIDTH 0 0
BBX 20 27 -23 -3
BITMAP
000030
000060
0000E0
0000C0
000180
000380
000300
000600
000E00
000C00
001800
003800
003000
006000
00E000
00C000
018000
038000
030000
070000
0E0000
0C0000
1C0000
380000
300000
700000
E00000
ENDCHAR
STARTCHAR 0394
ENCODING 916
SWIDTH 734 0
DWIDTH 30 0
BBX 30 29 0 0
BITMAP
00078000
000FC000
000FC000
001FE000
001FE000
003DE000
003CF000
0038F000
00787800
00787800
00F03C00
00F03C00
01E03E00
01E01E00
03C01E00
03C00F00
03C00F00
07800780
07800780
0F0007C0
0F0003C0
1E0003E0
1E0001E0
3E0001E0
3C0000F0
3FFFFFF0
7FFFFFF8
7FFFFFF8
FFFFFFFC
ENDCHAR
STARTCHAR 03A9
ENCODING 937
SWIDTH 906 0
DWIDTH 37 0
BBX 36 30 0 0
BITMAP
0003FE0000
001FFF8000
003FFFE000
00FFFFF800
01FC01FC00
03F0007C00
03E0003E00
07C0001F00
0F80000F00
0F80000F80
0F00000780
0F00000780
1F00000780
1E00000780
1E00000780
1E00000780
1E00000780
1F00000780
0F00000780
0F00000780
0F80000F00
0780000F00
07C0001F00
03C0003E00
03E0007C00
01F800F800
FFFC01FFF0
FFFC03FFF0
FFFC03FFF0
FFFC03FFF0
ENDCHAR
STARTCHAR 03BC
ENCODING 956
SWIDTH 685 0
DWIDTH 28 0
BBX 20 30 4 -8
BITMAP
F000F0
F000F0
F000F0
F000F0
F000F0
F000F0
F000F0
F000F0
F000F0
F000F0
F000F0
F000F0
F000F0
F000F0
F000F0
F001F0
F801F0
FC07F0
FFFFF0
FFFFF0
F7FCF0
F3F0F0
F00000
F00000
F00000
F00000
F00000
F00000
F00000
F00000
ENDCHAR
STARTCHAR 03C0
ENCODING 960
SWIDTH 734 0
DWIDTH 30 0
BBX 29 22 0 0
BITMAP
0FFFFFF8
3FFFFFF8
7FFFFFF8
F8781E00
F0781E00
E0781E00
E0781E00
E0781E00
E0781E00
F0701E00
60F01E00
00F01E00
00F01E00
00F01E00
00F01E00
00F01E00
00F01E00
00F01E00
01E01E00
01E01E00
01E01E00
01E01E00
ENDCHAR
STARTCHAR 0400
ENCODING 1024
SWIDTH 661 0
DWIDTH 27 0
BBX 21 36 4 0
BITMAP
0F8000
07C000
01E000
00F000
007800
000000
000000
FFFFF8
FFFFF8
FFFFF8
FFFFF8
F80000
F80000
F80000
F80000
F80000
F80000
F80000
F80000
F80000
FFFFE0
FFFFE0
FFFFE0
F80000
F80000
F80000
F80000
F80000
F80000
F80000
F80000
F80000
FFFFF8
FFFFF8
FFFFF8
FFFFF8
ENDCHAR
STARTCHAR 0401
ENCODING 1025
SWIDTH 661 0
DWIDTH 27 0
BBX 21 36 4 0
BITMAP
070700
078F00
078F00
070700
000000
000000
000000
FFFFF8
FFFFF8
FFFFF8
FFFFF8
F80000
F80000
F80000
F80000
F80000
F80000
F80000
F80000
F80000
FFFFE0
FFFFE0
FFFFE0
F80000
F80000
F80000
F80000
F80000
F80000
F80000
F80000
F80000
FFFFF8
FFFFF8
FFFFF8
FFFFF8
ENDCHAR
STARTCHAR 0402
ENCODING 1026
SWIDTH 832 0
DWIDTH 34 0
BBX 31 29 1 0
BITMAP
FFFFFF00
FFFFFF00
FFFFFF00
FFFFFF00
00780000
00780000
00780000
00780000
00780000
00780000
00780000
00780000
0079FFE0
007FFFF0
007FFFFC
007F80FC
007C003E
0078001E
0078001E
0078001E
0078001E
0078001E
0078001E
0078001E
0078007E
00781BFC
00781FF8
00781FF0
00781F80
ENDCHAR
STARTCHAR 0403
ENCODING 1027
SWIDTH 587 0
DWIDTH 24 0
BBX 19 36 4 0
BITMAP
001F00
003E00
007800
00F000
01E000
000000
000000
FFFFE0
FFFFE0
FFFFE0
FFFFE0
F00000
F00000
F00000
F00000
F00000
F00000
F00000
F00000
F00000
F00000
F00000
F00000
F00000
F00000
F00000
F00000
F00000
F00000
F00000
F00000
F00000
F00000
F00000
F00000
F00000
ENDCHAR
STARTCHAR 0404
ENCODING 1028
SWIDTH 710 0
DWIDTH 29 0
BBX 26 31 2 -1
BITMAP
001FE000
00FFFC00
03FFFE00
07FFFF80
0FE01FC0
1F800780
1F000300
3E000000
3C000000
7C000000
78000000
78000000
F8000000
F0000000
FFFFC000
FFFFC000
FFFFC000
F0000000
F8000000
78000000
78000000
7C000000
3C000000
3E000000
1F000300
1F800780
0FE01FC0
07FFFF80
03FFFE00
00FFFC00
001FE000
ENDCHAR
STARTCHAR 0405
ENCODING 1029
SWIDTH 636 0
DWIDTH 26 0
BBX 22 31 2 -1
BITMAP
01FF00
07FFE0
1FFFF8
3FFFF0
3E0070
7C0010
780000
780000
780000
780000
780000
7C0000
3F0000
3FE000
1FFC00
07FF80
01FFE0
003FF0
0003F8
0000F8
00007C
00003C
00003C
00003C
40003C
700078
FC00F8
FFFFF0
7FFFE0
1FFFC0
03FE00
ENDCHAR
STARTCHAR 0406
ENCODING 1030
SWIDTH 318 0
DWIDTH 13 0
BBX 4 29 4 0
BITMAP
F0
F0
F0
F0
F0
F0
F0
F0
F0
F0
F0
F0
F0
F0
F0
F0
F0
F0
F0
F0
F0
F0
F0
F0
F0
F0
F0
F0
F0
ENDCHAR
STARTCHAR 0407
ENCODING 1031
SWIDTH 318 0
DWIDTH 13 0
BBX 12 36 0 0
BITMAP
7070
F8F0
78F0
7060
0000
0000
0000
0F00
0F00
0F00
0F00
0F00
0F00
0F00
0F00
0F00
0F00
0F00
0F00
0F00
0F00
0F00
0F00
0F00
0F00
0F00
0F00
0F00
0F00
0F00
0F00
0F00
0F00
0F00
0F00
0F00
ENDCHAR
STARTCHAR 0408
ENCODING 1032
SWIDTH 538 0
DWIDTH 22 0
BBX 17 30 1 -1
BITMAP
1FFF80
1FFF80
1FFF80
1FFF80
000780
000780
000780
000780
000780
000780
000780
000780
000780
000780
000780
000780
000780
000780
000780
000780
000780
000780
000780
200780
600F00
F81F00
FFFF00
7FFE00
1FFC00
07E000
ENDCHAR
STARTCHAR 0409
ENCODING 1033
SWIDTH 1175 0
DWIDTH 48 0
BBX 46 30 1 -1
BITMAP
01FFFFE00000
01FFFFE00000
01FFFFE00000
01FFFFE00000
01C001E00000
03C001E00000
03C001E00000
03C001E00000
03C001E00000
03C001E00000
03C001FFFF00
03C001FFFFC0
03C001FFFFE0
03C001E007F0
03C001E000F8
03C001E00078
03C001E0007C
03C001E0003C
038001E0003C
038001E0003C
078001E0003C
078001E0003C
078001E00078
078001E00078
0F0001E001F8
1F0001E007F0
FF0001FFFFE0
FE0001FFFF80
FC0001FFFE00
F80000000000
ENDCHAR
STARTCHAR 040A
ENCODING 1034
SWIDTH 1175 0
DWIDTH 48 0
BBX 43 29 4 0
BITMAP
F0000F000000
F0000F000000
F0000F000000
F0000F000000
F0000F000000
F0000F000000
F0000F000000
F0000F000000
F0000F000000
F0000F000000
F0000F000000
F0000F000000
FFFFFFFFFC00
FFFFFFFFFF00
FFFFFFFFFF80
F0000F001FC0
F0000F0007C0
F0000F0003C0
F0000F0003E0
F0000F0001E0
F0000F0001E0
F0000F0003E0
F0000F0003C0
F0000F0003C0
F0000F0007C0
F0000F003F80
F0000FFFFF00
F0000FFFFE00
F0000FFFF000
ENDCHAR
STARTCHAR 040B
ENCODING 1035
SWIDTH 832 0
DWIDTH 34 0
BBX 31 29 1 0
BITMAP
FFFFFF00
FFFFFF00
FFFFFF00
FFFFFF00
00780000
00780000
00780000
00780000
00780000
00780000
00780000
00780E00
0079FFE0
007FFFF0
007FFFF8
007F80FC
007C007E
0078003E
0078001E
0078001E
0078001E
0078001E
0078001E
0078001E
0078001E
0078001E
0078001E
0078001E
0078001E
ENDCHAR
STARTCHAR 040C
ENCODING 1036
SWIDTH 710 0
DWIDTH 29 0
BBX 24 36 4 0
BITMAP
000F80
001F00
003C00
007800
00F000
000000
000000
F0001E
F0003E
F0003C
F00078
F000F8
F001F0
F001E0
F003C0
F007C0
F00780
F00F00
F01E00
FFFE00
FFFC00
FFFC00
FFFE00
F01F00
F01F00
F00F80
F007C0
F003C0
F003E0
F001F0
F000F0
F000F8
F0007C
F0003E
F0001E
F0001F
ENDCHAR
STARTCHAR 040D
ENCODING 1037
SWIDTH 832 0
DWIDTH 34 0
BBX 25 36 4 0
BITMAP
03E00000
00F00000
00780000
003C0000
001E0000
00000000
00000000
F0000780
F0000F80
F0000F80
F0001F80
F0003F80
F0007F80
F000FF80
F000FF80
F001F780
F003E780
F007C780
F0078780
F00F8780
F01F0780
F03E0780
F03C0780
F07C0780
F0F80780
F1F00780
F1E00780
F3E00780
F7C00780
FF800780
FF000780
FF000780
FE000780
FC000780
F8000780
F8000780
ENDCHAR
STARTCHAR 040E
ENCODING 1038
SWIDTH 685 0
DWIDTH 28 0
BBX 27 38 1 -1
BITMAP
03807000
03807000
03C0F000
01E1E000
00FFC000
003F0000
00000000
00000000
F00001E0
F80003C0
780003C0
7C000780
3C000700
3E000F00
1E001E00
1F001E00
0F003C00
07803C00
07807800
03C07800
03C0F000
01E0F000
01E1E000
00F1E000
00F3C000
007BC000
007F8000
003F8000
003F0000
001F0000
001E0000
003E0000
003C0000
00780000
1FF80000
1FF00000
3FE00000
1F800000
ENDCHAR
STARTCHAR 040F
ENCODING 1039
SWIDTH 808 0
DWIDTH 33 0
BBX 24 35 4 -6
BITMAP
F0000F
F0000F
F0000F
F0000F
F0000F
F0000F
F0000F
F0000F
F0000F
F0000F
F0000F
F0000F
F0000F
F0000F
F0000F
F0000F
F0000F
F0000F
F0000F
F0000F
F0000F
F0000F
F0000F
F0000F
F0000F
FFFFFF
FFFFFF
FFFFFF
FFFFFF
001C00
001C00
001C00
001C00
001C00
001C00
ENDCHAR
STARTCHAR 0410
ENCODING 1040
SWIDTH 759 0
DWIDTH 31 0
BBX 29 29 1 0
BITMAP
000F8000
000F8000
001FC000
001FC000
003DE000
003DE000
0039E000
0078F000
0078F000
00F07800
00F07800
01E03C00
01E03C00
03C03E00
03C01E00
03C01E00
07800F00
07800F00
0F000F80
0FFFFF80
1FFFFFC0
1FFFFFC0
3E0003E0
3C0001E0
7C0001E0
780000F0
780000F0
F00000F8
F0000078
ENDCHAR
STARTCHAR 0411
ENCODING 1041
SWIDTH 734 0
DWIDTH 30 0
BBX 24 29 4 0
BITMAP
FFFFFC
FFFFFC
FFFFFC
F00000
F00000
F00000
F00000
F00000
F00000
F00000
F00000
F00000
FFFFE0
FFFFF8
FFFFFC
F000FE
F0003E
F0001F
F0001F
F0000F
F0000F
F0000F
F0001F
F0001E
F0003E
F001FC
FFFFF8
FFFFF0
FFFF80
ENDCHAR
STARTCHAR 0412
ENCODING 1042
SWIDTH 759 0
DWIDTH 31 0
BBX 24 29 4 0
BITMAP
FFFF80
FFFFF0
FFFFF8
F001FC
F0007C
F0003E
F0003E
F0001E
F0001E
F0003C
F0003C
F0007C
F001F8
FFFFE0
FFFFF0
FFFFFC
F0007E
F0001E
F0001F
F0000F
F0000F
F0000F
F0000F
F0001F
F0003E
F000FE
FFFFFC
FFFFF8
FFFFC0
ENDCHAR
STARTCHAR 0413
ENCODING 1043
SWIDTH 587 0
DWIDTH 24 0
BBX 19 29 4 0
BITMAP
FFFFE0
FFFFE0
FFFFE0
FFFFE0
F00000
F00000
F00000
F00000
F00000
F00000
F00000
F00000
F00000
F00000
F00000
F00000
F00000
F00000
F00000
F00000
F00000
F00000
F00000
F00000
F00000
F00000
F00000
F00000
F00000
ENDCHAR
STARTCHAR 0414
ENCODING 1044
SWIDTH 808 0
DWIDTH 33 0
BBX 31 35 1 -6
BITMAP
03FFFFC0
03FFFFC0
03FFFFC0
03FFFFC0
03C003C0
03C003C0
03C003C0
03C003C0
03C003C0
03C003C0
03C003C0
03C003C0
03C003C0
03C003C0
038003C0
038003C0
038003C0
038003C0
078003C0
078003C0
078003C0
070003C0
0F0003C0
0F0003C0
1E0003C0
FFFFFFFE
FFFFFFFE
FFFFFFFE
FFFFFFFE
E000001E
E000001E
E000001E
E000001E
E000001E
E000001E
ENDCHAR
STARTCHAR 0415
ENCODING 1045
SWIDTH 661 0
DWIDTH 27 0
BBX 21 29 4 0
BITMAP
FFFFF8
FFFFF8
FFFFF8
FFFFF8
F80000
F80000
F80000
F80000
F80000
F80000
F80000
F80000
F80000
FFFFE0
FFFFE0
FFFFE0
F80000
F80000
F80000
F80000
F80000
F80000
F80000
F80000
F80000
FFFFF8
FFFFF8
FFFFF8
FFFFF8
ENDCHAR
STARTCHAR 0416
ENCODING 1046
SWIDTH 1028 0
DWIDTH 42 0
BBX 40 29 1 0
BITMAP
78003C001E
7C003C003E
3C003C003C
1E003C0078
1F003C00F8
0F003C00F0
07803C01E0
07803C01E0
03C03C03C0
03E03C07C0
01E03C0780
00F03C0F00
00FFFFFF00
007FFFFE00
007FFFFE00
00FFFFFF00
01F03C0F00
01F03C0F80
03E03C07C0
03C03C03C0
07C03C03E0
0F803C01F0
0F803C01F0
1F003C00F8
1E003C0078
3E003C007C
7C003C003E
78003C001E
F8003C001F
ENDCHAR
STARTCHAR 0417
ENCODING 1047
SWIDTH 636 0
DWIDTH 26 0
BBX 23 31 1 -1
BITMAP
03FE00
1FFF80
7FFFE0
3FFFF0
3801F8
2000F8
000078
00007C
00003C
00003C
000078
000078
0000F8
0007F0
03FFE0
03FFC0
03FFF0
0001F8
00007C
00003C
00001E
00001E
00001E
00003E
00003E
60007C
7800FC
FFFFF8
3FFFF0
0FFFC0
01FE00
ENDCHAR
STARTCHAR 0418
ENCODING 1048
SWIDTH 832 0
DWIDTH 34 0
BBX 25 29 4 0
BITMAP
F0000780
F0000F80
F0000F80
F0001F80
F0003F80
F0007F80
F000FF80
F000FF80
F001F780
F003E780
F007C780
F0078780
F00F8780
F01F0780
F03E0780
F03C0780
F07C0780
F0F80780
F1F00780
F1E00780
F3E00780
F7C00780
FF800780
FF000780
FF000780
FE000780
FC000780
F8000780
F8000780
ENDCHAR
STARTCHAR 0419
ENCODING 1049
SWIDTH 832 0
DWIDTH 34 0
BBX 25 37 4 0
BITMAP
03807000
03807000
0380E000
01E1E000
01FFC000
007F0000
00000000
00000000
F0000780
F0000F80
F0000F80
F0001F80
F0003F80
F0007F80
F000FF80
F000FF80
F001F780
F003E780
F007C780
F0078780
F00F8780
F01F0780
F03E0780
F03C0780
F07C0780
F0F80780
F1F00780
F1E00780
F3E00780
F7C00780
FF800780
FF000780
FF000780
FE000780
FC000780
F8000780
F8000780
ENDCHAR
STARTCHAR 041A
ENCODING 1050
SWIDTH 710 0
DWIDTH 29 0
BBX 24 29 4 0
BITMAP
F0001E
F0003E
F0003C
F00078
F000F8
F001F0
F001E0
F003C0
F007C0
F00780
F00F00
F01E00
FFFE00
FFFC00
FFFC00
FFFE00
F01F00
F01F00
F00F80
F007C0
F003C0
F003E0
F001F0
F000F0
F000F8
F0007C
F0003E
F0001E
F0001F
ENDCHAR
STARTCHAR 041B
ENCODING 1051
SWIDTH 783 0
DWIDTH 32 0
BBX 27 30 1 -1
BITMAP
01FFFFE0
01FFFFE0
01FFFFE0
01FFFFE0
01C001E0
03C001E0
03C001E0
03C001E0
03C001E0
03C001E0
03C001E0
03C001E0
03C001E0
03C001E0
03C001E0
03C001E0
03C001E0
03C001E0
03C001E0
038001E0
038001E0
078001E0
078001E0
078001E0
0F0001E0
1F0001E0
FF0001E0
FE0001E0
FC0001E0
F8000000
ENDCHAR
STARTCHAR 041C
ENCODING 1052
SWIDTH 955 0
DWIDTH 39 0
BBX 31 29 4 0
BITMAP
F000001E
F800001E
F800003E
FC00007E
FC00007E
FE0000FE
FF0000FE
FF0001FE
F78001FE
F78003DE
F3C0079E
F3E0079E
F1E00F1E
F0F00F1E
F0F01E1E
F0781C1E
F0783C1E
F03C781E
F01E781E
F01EF01E
F00FF01E
F00FE01E
F007C01E
F003C01E
F003801E
F000001E
F000001E
F000001E
F000001E
ENDCHAR
STARTCHAR 041D
ENCODING 1053
SWIDTH 808 0
DWIDTH 33 0
BBX 25 29 4 0
BITMAP
F8000780
F8000780
F8000780
F8000780
F8000780
F8000780
F8000780
F8000780
F8000780
F8000780
F8000780
F8000780
FFFFFF80
FFFFFF80
FFFFFF80
FFFFFF80
F8000780
F8000780
F8000780
F8000780
F8000780
F8000780
F8000780
F8000780
F8000780
F8000780
F8000780
F8000780
F8000780
ENDCHAR
STARTCHAR 041E
ENCODING 1054
SWIDTH 857 0
DWIDTH 35 0
BBX 30 31 2 -1
BITMAP
001FE000
007FFC00
01FFFF00
07FFFF80
0FE00FC0
1F8007E0
1F0001F0
3E0000F8
3C0000F8
7C000078
7800007C
7800003C
F800003C
F000003C
F000003C
F000003C
F000003C
F000003C
F800003C
7800003C
7800007C
7C000078
3C0000F8
3E0000F0
1F0001F0
1F8003E0
0FE00FC0
07FFFF80
01FFFF00
00FFFC00
001FE000
ENDCHAR
STARTCHAR 041F
ENCODING 1055
SWIDTH 832 0
DWIDTH 34 0
BBX 25 29 4 0
BITMAP
FFFFFF80
FFFFFF80
FFFFFF80
FFFFFF80
F0000780
F0000780
F0000780
F0000780
F0000780
F0000780
F0000780
F0000780
F0000780
F0000780
F0000780
F0000780
F0000780
F0000780
F0000780
F0000780
F0000780
F0000780
F0000780
F0000780
F0000780
F0000780
F0000780
F0000780
F0000780
ENDCHAR
STARTCHAR 0420
ENCODING 1056
SWIDTH 710 0
DWIDTH 29 0
BBX 24 29 4 0
BITMAP
FFFF00
FFFFE0
FFFFF0
FFFFF8
F800FC
F8003E
F8003E
F8001E
F8001E
F8001F
F8001F
F8001E
F8001E
F8001E
F8003E
F800FC
FFFFF8
FFFFF0
FFFFE0
FFFF00
F80000
F80000
F80000
F80000
F80000
F80000
F80000
F80000
F80000
ENDCHAR
STARTCHAR 0421
ENCODING 1057
SWIDTH 710 0
DWIDTH 29 0
BBX 26 31 2 -1
BITMAP
001FE000
007FFC00
01FFFF00
07FFFF80
0FE00FC0
1F800780
1F000100
3E000000
3C000000
7C000000
78000000
78000000
F8000000
F0000000
F0000000
F0000000
F0000000
F0000000
F8000000
78000000
78000000
7C000000
3C000000
3E000000
1F000100
1F800380
0FE00FC0
07FFFF80
01FFFF00
00FFFC00
001FE000
ENDCHAR
STARTCHAR 0422
ENCODING 1058
SWIDTH 612 0
DWIDTH 25 0
BBX 23 29 1 0
BITMAP
FFFFFE
FFFFFE
FFFFFE
FFFFFE
007800
007800
007800
007800
007800
007800
007800
007800
007800
007800
007800
007800
007800
007800
007800
007800
007800
007800
007800
007800
007800
007800
007800
007800
007800
ENDCHAR
STARTCHAR 0423
ENCODING 1059
SWIDTH 685 0
DWIDTH 28 0
BBX 27 30 1 -1
BITMAP
F00001E0
F80003C0
780003C0
7C000780
3C000700
3E000F00
1E001E00
1F001E00
0F003C00
07803C00
07807800
03C07800
03C0F000
01E0F000
01E1E000
00F1E000
00F3C000
007BC000
007F8000
003F8000
003F0000
001F0000
001E0000
003E0000
003C0000
00780000
1FF80000
1FF00000
3FE00000
1F800000
ENDCHAR
STARTCHAR 0424
ENCODING 1060
SWIDTH 930 0
DWIDTH 38 0
BBX 34 31 2 -1
BITMAP
0001E00000
0001E00000
0001E00000
001FFE0000
01FFFFE000
07FFFFF800
0FF1E7FC00
1F81E07E00
3E01E01F00
7C01E00F80
7801E00780
F801E00780
F001E003C0
F001E003C0
F001E003C0
F001E003C0
F001E003C0
F001E003C0
F001E003C0
F801E00780
7801E00780
7C01E00F80
3E01E01F00
1F81E07E00
0FF1E3FC00
07FFFFF800
01FFFFE000
001FFE0000
0001E00000
0001E00000
0001E00000
ENDCHAR
STARTCHAR 0425
ENCODING 1061
SWIDTH 661 0
DWIDTH 27 0
BBX 25 29 1 0
BITMAP
78000F00
7C001F00
3E003E00
1F003C00
1F007C00
0F80F800
07C1F000
03C1F000
03E3E000
01F7C000
00F7C000
00FF8000
007F0000
003E0000
003F0000
007F0000
00FF8000
00FFC000
01F7C000
03E3E000
03C1F000
07C1F000
0F80F800
0F007C00
1F003C00
3E003E00
7C001F00
78000F80
F8000F80
ENDCHAR
STARTCHAR 0426
ENCODING 1062
SWIDTH 832 0
DWIDTH 34 0
BBX 29 35 4 -6
BITMAP
F0000F00
F0000F00
F0000F00
F0000F00
F0000F00
F0000F00
F0000F00
F0000F00
F0000F00
F0000F00
F0000F00
F0000F00
F0000F00
F0000F00
F0000F00
F0000F00
F0000F00
F0000F00
F0000F00
F0000F00
F0000F00
F0000F00
F0000F00
F0000F00
F0000F00
FFFFFFF8
FFFFFFF8
FFFFFFF8
FFFFFFF8
00000078
00000078
00000078
00000078
00000078
00000078
ENDCHAR
STARTCHAR 0427
ENCODING 1063
SWIDTH 734 0
DWIDTH 30 0
BBX 24 29 2 0
BITMAP
F0000F
F0000F
F0000F
F0000F
F0000F
F0000F
F0000F
F0000F
F0000F
F0000F
F0000F
F8000F
78000F
7C000F
7E007F
3FFFFF
1FFFFF
07FFEF
01FE0F
00000F
00000F
00000F
00000F
00000F
00000F
00000F
00000F
00000F
00000F
ENDCHAR
STARTCHAR 0428
ENCODING 1064
SWIDTH 1102 0
DWIDTH 45 0
BBX 36 29 4 0
BITMAP
F000F000F0
F000F000F0
F000F000F0
F000F000F0
F000F000F0
F000F000F0
F000F000F0
F000F000F0
F000F000F0
F000F000F0
F000F000F0
F000F000F0
F000F000F0
F000F000F0
F000F000F0
F000F000F0
F000F000F0
F000F000F0
F000F000F0
F000F000F0
F000F000F0
F000F000F0
F000F000F0
F000F000F0
F000F000F0
FFFFFFFFF0
FFFFFFFFF0
FFFFFFFFF0
FFFFFFFFF0
ENDCHAR
STARTCHAR 0429
ENCODING 1065
SWIDTH 1126 0
DWIDTH 46 0
BBX 41 35 4 -6
BITMAP
F000F000F000
F000F000F000
F000F000F000
F000F000F000
F000F000F000
F000F000F000
F000F000F000
F000F000F000
F000F000F000
F000F000F000
F000F000F000
F000F000F000
F000F000F000
F000F000F000
F000F000F000
F000F000F000
F000F000F000
F000F000F000
F000F000F000
F000F000F000
F000F000F000
F000F000F000
F000F000F000
F000F000F000
F000F000F000
FFFFFFFFFF80
FFFFFFFFFF80
FFFFFFFFFF80
FFFFFFFFFF80
000000000780
000000000780
000000000780
000000000780
000000000780
000000000780
ENDCHAR
STARTCHAR 042A
ENCODING 1066
SWIDTH 832 0
DWIDTH 34 0
BBX 31 29 1 0
BITMAP
FFF00000
FFF00000
FFF00000
FFF00000
00F00000
00F00000
00F00000
00F00000
00F00000
00F00000
00FFFF80
00FFFFE0
00FFFFF8
00F003FC
00F0007C
00F0003E
00F0001E
00F0001E
00F0001E
00F0001E
00F0001E
00F0001E
00F0003E
00F0003C
00F0007C
00F003F8
00FFFFF0
00FFFFE0
00FFFF00
ENDCHAR
STARTCHAR 042B
ENCODING 1067
SWIDTH 1004 0
DWIDTH 41 0
BBX 32 29 4 0
BITMAP
F000000F
F000000F
F000000F
F000000F
F000000F
F000000F
F000000F
F000000F
F000000F
F000000F
FFFF800F
FFFFF00F
FFFFF80F
F003FC0F
F0007E0F
F0003E0F
F0001E0F
F0001E0F
F0001F0F
F0001F0F
F0001E0F
F0001E0F
F0001E0F
F0003E0F
F0007C0F
F003FC0F
FFFFF80F
FFFFE00F
FFFF000F
ENDCHAR
STARTCHAR 042C
ENCODING 1068
SWIDTH 710 0
DWIDTH 29 0
BBX 24 29 4 0
BITMAP
F00000
F00000
F00000
F00000
F00000
F00000
F00000
F00000
F00000
F00000
FFFF80
FFFFF0
FFFFF8
F003FC
F0007E
F0003E
F0001E
F0001E
F0001F
F0001F
F0001E
F0001E
F0001E
F0003E
F0007C
F003FC
FFFFF8
FFFFE0
FFFF00
ENDCHAR
STARTCHAR 042D
ENCODING 1069
SWIDTH 710 0
DWIDTH 29 0
BBX 26 31 1 -1
BITMAP
01FE0000
0FFFC000
1FFFF000
7FFFF800
FE01FC00
78007E00
30003E00
00001F00
00000F00
00000F80
00000780
00000780
000007C0
000007C0
00FFFFC0
00FFFFC0
00FFFFC0
000007C0
00000780
00000780
00000780
00000F80
00000F00
00001F00
30003E00
78007E00
FE01FC00
7FFFF800
3FFFE000
0FFFC000
01FE0000
ENDCHAR
STARTCHAR 042E
ENCODING 1070
SWIDTH 1102 0
DWIDTH 45 0
BBX 39 31 4 -1
BITMAP
00000FF000
F0003FFE00
F000FFFF00
F001FFFFC0
F003F00FE0
F007C003F0
F00F8001F0
F00F0000F8
F01F000078
F01E00007C
F03E00003C
F03C00003C
F03C00003C
FFFC00003E
FFFC00001E
FFFC00001E
FFFC00001E
F03C00003E
F03C00003C
F03C00003C
F03E00003C
F01E00007C
F01F000078
F00F0000F8
F00F8001F0
F007E003E0
F003F00FE0
F001FFFFC0
F000FFFF00
F0003FFE00
00000FF000
ENDCHAR
STARTCHAR 042F
ENCODING 1071
SWIDTH 734 0
DWIDTH 30 0
BBX 23 29 2 0
BITMAP
00FFFE
07FFFE
0FFFFE
1FFFFE
3F001E
7C001E
78001E
78001E
78001E
F8001E
F8001E
F8001E
78001E
78001E
7C001E
3E001E
3F801E
1FFFFE
0FFFFE
03FFFE
03C01E
07C01E
07801E
0F001E
1F001E
1E001E
3C001E
7C001E
78001E
ENDCHAR
STARTCHAR 0430
ENCODING 1072
SWIDTH 587 0
DWIDTH 24 0
BBX 19 22 2 0
BITMAP
07F800
1FFF00
7FFF80
7F3FC0
3007C0
0003C0
0001E0
0001E0
0001E0
03FFE0
1FFFE0
7FFFE0
7C01E0
F001E0
F001E0
F001E0
F003E0
F807E0
7C1FE0
7FFFE0
3FF9E0
07E1E0
ENDCHAR
STARTCHAR 0431
ENCODING 1073
SWIDTH 661 0
DWIDTH 27 0
BBX 22 32 3 -1
BITMAP
000018
0001F8
003FF8
01FFF8
07FFC0
0FF800
1F8000
3E0000
3C0000
780000
780000
F07E00
F3FFC0
F7FFE0
EFFFF0
FE01F8
FC00F8
F8007C
F8003C
F0003C
F0003C
F0003C
F0003C
F0003C
78003C
78007C
7C00F8
3E01F0
1F87F0
0FFFE0
07FF80
01FE00
ENDCHAR
STARTCHAR 0432
ENCODING 1074
SWIDTH 612 0
DWIDTH 25 0
BBX 19 22 4 0
BITMAP
FFFC00
FFFF00
FFFF80
F00FC0
F003C0
F003C0
F003C0
F003C0
F00780
FFFF00
FFFE00
FFFF80
F007C0
F003C0
F001E0
F001E0
F001E0
F003E0
F007C0
FFFFC0
FFFF00
FFFC00
ENDCHAR
STARTCHAR 0433
ENCODING 1075
SWIDTH 489 0
DWIDTH 20 0
BBX 16 22 4 0
BITMAP
FFFF
FFFF
FFFF
F000
F000
F000
F000
F000
F000
F000
F000
F000
F000
F000
F000
F000
F000
F000
F000
F000
F000
F000
ENDCHAR
STARTCHAR 0434
ENCODING 1076
SWIDTH 661 0
DWIDTH 27 0
BBX 26 27 0 -5
BITMAP
03FFFC00
03FFFC00
03FFFC00
03801C00
03801C00
07801C00
07801C00
07801C00
07801C00
07801C00
07801C00
07801C00
07801C00
07801C00
07001C00
0F001C00
0F001C00
1E001C00
3E001C00
FFFFFFC0
FFFFFFC0
FFFFFFC0
F00003C0
F00003C0
F00003C0
F00003C0
F00003C0
ENDCHAR
STARTCHAR 0435
ENCODING 1077
SWIDTH 636 0
DWIDTH 26 0
BBX 21 22 2 0
BITMAP
01FC00
07FF00
0FFFC0
3F8FE0
3C01F0
7800F0
780078
F00078
F00078
FFFFF8
FFFFF8
FFFFF8
F00000
F00000
F00000
780000
7C0040
3E00E0
1FEFF0
0FFFE0
07FFC0
00FE00
ENDCHAR
STARTCHAR 0436
ENCODING 1078
SWIDTH 857 0
DWIDTH 35 0
BBX 33 22 1 0
BITMAP
F803C00F00
7803C01F00
3C03C01E00
3C03C03C00
1E03C03C00
0F03C07800
0F03C0F800
0783C0F000
0783C1E000
03C3C1E000
01FFFFC000
01FFFFC000
03FFFFE000
07C3C1E000
0783C1F000
0F03C0F800
1F03C07800
1E03C07C00
3C03C03E00
7C03C01E00
7803C01F00
F803C00F80
ENDCHAR
STARTCHAR 0437
ENCODING 1079
SWIDTH 538 0
DWIDTH 22 0
BBX 19 24 1 -1
BITMAP
07F800
3FFF00
7FFF80
7F3FC0
3007C0
0003C0
0003C0
0003C0
0003C0
000780
03FF00
03FE00
03FF80
0007C0
0003E0
0001E0
0001E0
0001E0
4003E0
7007E0
7E3FC0
FFFF80
3FFF00
07F800
ENDCHAR
STARTCHAR 0438
ENCODING 1080
SWIDTH 685 0
DWIDTH 28 0
BBX 21 22 4 0
BITMAP
F00078
F000F8
F001F8
F003F8
F007F8
F00FF8
F00F78
F01E78
F03E78
F07C78
F0F878
F1F078
F1E078
F3C078
F7C078
FF8078
FF0078
FE0078
FC0078
F80078
F80078
F00078
ENDCHAR
STARTCHAR 0439
ENCODING 1081
SWIDTH 685 0
DWIDTH 28 0
BBX 21 30 4 0
BITMAP
0C0300
0E0700
0F0F00
07FE00
03FC00
000000
000000
000000
F00078
F000F8
F001F8
F003F8
F007F8
F00FF8
F00F78
F01E78
F03E78
F07C78
F0F878
F1F078
F1E078
F3C078
F7C078
FF8078
FF0078
FE0078
FC0078
F80078
F80078
F00078
ENDCHAR
STARTCHAR 043A
ENCODING 1082
SWIDTH 587 0
DWIDTH 24 0
BBX 20 22 4 0
BITMAP
F001E0
F003C0
F007C0
F00780
F00F00
F01E00
F01E00
F03C00
F07800
F0F000
FFF000
FFF000
FFF800
F07800
F07C00
F03E00
F01F00
F00F80
F00780
F007C0
F003E0
F001F0
ENDCHAR
STARTCHAR 043B
ENCODING 1083
SWIDTH 636 0
DWIDTH 26 0
BBX 22 23 0 -1
BITMAP
03FFFC
03FFFC
03FFFC
03803C
03803C
03803C
07803C
07803C
07803C
07803C
07803C
07803C
07803C
07803C
07003C
07003C
0F003C
0F003C
1F003C
FE003C
FE003C
FC003C
F80000
ENDCHAR
STARTCHAR 043C
ENCODING 1084
SWIDTH 808 0
DWIDTH 33 0
BBX 25 22 4 0
BITMAP
F0000780
F8000F80
F8000F80
FC001F80
FC003F80
FE003F80
EF007F80
EF007780
E780F780
E781E780
E3C1C780
E1C3C780
E1E38780
E0F78780
E0F70780
E07E0780
E03E0780
E03C0780
E01C0780
E0180780
E0000780
E0000780
ENDCHAR
STARTCHAR 043D
ENCODING 1085
SWIDTH 685 0
DWIDTH 28 0
BBX 20 22 4 0
BITMAP
F000F0
F000F0
F000F0
F000F0
F000F0
F000F0
F000F0
F000F0
F000F0
F000F0
FFFFF0
FFFFF0
FFFFF0
F000F0
F000F0
F000F0
F000F0
F000F0
F000F0
F000F0
F000F0
F000F0
ENDCHAR
STARTCHAR 043E
ENCODING 1086
SWIDTH 636 0
DWIDTH 26 0
BBX 22 22 2 0
BITMAP
00FE00
07FF80
0FFFE0
1FCFF0
3E01F0
7C00F8
780078
F8003C
F0003C
F0003C
F0003C
F0003C
F0003C
F0003C
F8003C
780078
7C00F8
3E01F0
1FCFE0
0FFFC0
07FF80
01FE00
ENDCHAR
STARTCHAR 043F
ENCODING 1087
SWIDTH 685 0
DWIDTH 28 0
BBX 20 22 4 0
BITMAP
FFFFF0
FFFFF0
FFFFF0
F000F0
F000F0
F000F0
F000F0
F000F0
F000F0
F000F0
F000F0
F000F0
F000F0
F000F0
F000F0
F000F0
F000F0
F000F0
F000F0
F000F0
F000F0
F000F0
ENDCHAR
STARTCHAR 0440
ENCODING 1088
SWIDTH 685 0
DWIDTH 28 0
BBX 22 30 4 -8
BITMAP
F0FE00
F3FF80
F7FFE0
FFCFF0
FE01F0
FC00F8
F80078
F0003C
F0003C
F0003C
F0003C
F0003C
F0003C
F0003C
F0003C
F80078
FC00F8
FE01F0
FFCFF0
F7FFE0
F3FF80
F0FE00
F00000
F00000
F00000
F00000
F00000
F00000
F00000
F00000
ENDCHAR
STARTCHAR 0441
ENCODING 1089
SWIDTH 563 0
DWIDTH 23 0
BBX 20 22 2 0
BITMAP
00FE00
07FF80
0FFFC0
1FCFE0
3E01F0
7C00E0
780000
F80000
F00000
F00000
F00000
F00000
F00000
F00000
F80000
780000
7C00E0
3E01F0
1FCFE0
0FFFC0
07FF80
01FE00
ENDCHAR
STARTCHAR 0442
ENCODING 1090
SWIDTH 489 0
DWIDTH 20 0
BBX 20 22 0 0
BITMAP
FFFFF0
FFFFF0
FFFFF0
00F000
00F000
00F000
00F000
00F000
00F000
00F000
00F000
00F000
00F000
00F000
00F000
00F000
00F000
00F000
00F000
00F000
00F000
00F000
ENDCHAR
STARTCHAR 0443
ENCODING 1091
SWIDTH 563 0
DWIDTH 23 0
BBX 23 30 0 -8
BITMAP
F0001E
78001C
78003C
3C003C
3C0078
1E0078
1E00F0
1F00F0
0F00E0
0F01E0
0781E0
0783C0
03C3C0
03C780
01E780
01E700
01EF00
00FE00
00FE00
007E00
007C00
003C00
007800
007800
00F000
40F000
F3E000
FFE000
FFC000
3F0000
ENDCHAR
STARTCHAR 0444
ENCODING 1092
SWIDTH 808 0
DWIDTH 33 0
BBX 29 38 2 -8
BITMAP
000F0000
000F0000
000F0000
000F0000
000F0000
000F0000
000F0000
000F0000
007FF000
03FFFE00
0FFFFF80
1FFFFFC0
3F0F07E0
7C0F01F0
780F00F0
F80F00F8
F00F0078
F00F0078
F00F0078
F00F0078
F00F0078
F00F0078
F00F0078
F80F00F8
780F00F0
7C0F01F0
3F0F07E0
1FFF7FC0
0FFFFF80
03FFFE00
007FF000
000F0000
000F0000
000F0000
000F0000
000F0000
000F0000
000F0000
ENDCHAR
STARTCHAR 0445
ENCODING 1093
SWIDTH 538 0
DWIDTH 22 0
BBX 20 22 1 0
BITMAP
F800F0
7801E0
3C03C0
3E07C0
1F0780
0F0F00
079E00
07FE00
03FC00
01F800
00F000
01F800
01F800
03FC00
079E00
0F9F00
0F0F80
1E0780
3C03C0
7C03E0
F801F0
F000F0
ENDCHAR
STARTCHAR 0446
ENCODING 1094
SWIDTH 685 0
DWIDTH 28 0
BBX 23 27 4 -5
BITMAP
F000E0
F000E0
F000E0
F000E0
F000E0
F000E0
F000E0
F000E0
F000E0
F000E0
F000E0
F000E0
F000E0
F000E0
F000E0
F000E0
F000E0
F000E0
F000E0
FFFFFE
FFFFFE
FFFFFE
00001E
00001E
00001E
00001E
00001E
ENDCHAR
STARTCHAR 0447
ENCODING 1095
SWIDTH 612 0
DWIDTH 25 0
BBX 19 22 2 0
BITMAP
F001E0
F001E0
F001E0
F001E0
F001E0
F001E0
F001E0
F001E0
F001E0
F001E0
F801E0
7E1FE0
7FFFE0
3FFFE0
0FF1E0
0001E0
0001E0
0001E0
0001E0
0001E0
0001E0
0001E0
ENDCHAR
STARTCHAR 0448
ENCODING 1096
SWIDTH 930 0
DWIDTH 38 0
BBX 31 22 4 0
BITMAP
F007801E
F007801E
F007801E
F007801E
F007801E
F007801E
F007801E
F007801E
F007801E
F007801E
F007801E
F007801E
F007801E
F007801E
F007801E
F007801E
F007801E
F007801E
F007801E
FFFFFFFE
FFFFFFFE
FFFFFFFE
ENDCHAR
STARTCHAR 0449
ENCODING 1097
SWIDTH 930 0
DWIDTH 38 0
BBX 34 27 4 -5
BITMAP
F007801E00
F007801E00
F007801E00
F007801E00
F007801E00
F007801E00
F007801E00
F007801E00
F007801E00
F007801E00
F007801E00
F007801E00
F007801E00
F007801E00
F007801E00
F007801E00
F007801E00
F007801E00
F007801E00
FFFFFFFFC0
FFFFFFFFC0
FFFFFFFFC0
00000003C0
00000003C0
00000003C0
00000003C0
00000003C0
ENDCHAR
STARTCHAR 044A
ENCODING 1098
SWIDTH 636 0
DWIDTH 26 0
BBX 25 22 0 0
BITMAP
FFE00000
FFE00000
FFE00000
01E00000
01E00000
01E00000
01E00000
01FFF000
01FFFC00
01FFFE00
01E01F00
01E00F00
01E00780
01E00780
01E00780
01E00780
01E00780
01E00F00
01E01F00
01FFFE00
01FFFC00
01FFF000
ENDCHAR
STARTCHAR 044B
ENCODING 1099
SWIDTH 808 0
DWIDTH 33 0
BBX 25 22 4 0
BITMAP
F0000780
F0000780
F0000780
F0000780
F0000780
F0000780
F0000780
FFF00780
FFFE0780
FFFF0780
F01F8780
F007C780
F003C780
F003C780
F003C780
F003C780
F003C780
F0078780
F00F8780
FFFF0780
FFFE0780
FFF80780
ENDCHAR
STARTCHAR 044C
ENCODING 1100
SWIDTH 563 0
DWIDTH 23 0
BBX 18 22 4 0
BITMAP
F00000
F00000
F00000
F00000
F00000
F00000
F00000
FFF800
FFFE00
FFFF80
F00F80
F007C0
F003C0
F003C0
F003C0
F003C0
F003C0
F007C0
F00F80
FFFF80
FFFE00
FFF800
ENDCHAR
STARTCHAR 044D
ENCODING 1101
SWIDTH 563 0
DWIDTH 23 0
BBX 21 23 1 -1
BITMAP
07F800
1FFE00
7FFF80
FC1FC0
7007E0
2001E0
0001F0
0000F0
000070
000078
03FFF8
03FFF8
03FFF8
000078
000070
0000F0
0000F0
2001E0
7003E0
FE1FC0
7FFF80
3FFE00
07F800
ENDCHAR
STARTCHAR 044E
ENCODING 1102
SWIDTH 881 0
DWIDTH 36 0
BBX 30 22 4 0
BITMAP
F000FE00
F007FF80
F00FFFC0
F01FCFE0
F03E01F0
F07C00F8
F0780078
F0F80078
F0F0003C
FFF0003C
FFF0003C
FFF0003C
FFF0003C
F0F0003C
F0F80078
F0780078
F07C00F8
F03E01F0
F01FCFE0
F00FFFC0
F007FF80
F001FC00
ENDCHAR
STARTCHAR 044F
ENCODING 1103
SWIDTH 612 0
DWIDTH 25 0
BBX 19 22 2 0
BITMAP
03FFE0
1FFFE0
3FFFE0
7F80E0
7C00E0
F800E0
F000E0
F000E0
F000E0
F000E0
7800E0
7C00E0
3FFFE0
1FFFE0
07FFE0
0780E0
0F00E0
1E00E0
3E00E0
3C00E0
7800E0
F800E0
ENDCHAR
STARTCHAR 0450
ENCODING 1104
SWIDTH 636 0
DWIDTH 26 0
BBX 21 30 2 0
BITMAP
0F8000
07C000
01E000
00F000
007800
000000
000000
000000
01FC00
07FF00
0FFFC0
3F8FE0
3C01F0
7800F0
780078
F00078
F00078
FFFFF8
FFFFF8
FFFFF8
F00000
F00000
F00000
780000
7C0040
3E00E0
1FEFF0
0FFFE0
07FFC0
00FE00
ENDCHAR
STARTCHAR 0451
ENCODING 1105
SWIDTH 636 0
DWIDTH 26 0
BBX 21 30 2 0
BITMAP
030700
078F00
078F00
070700
000000
000000
000000
000000
01FC00
07FF00
0FFFC0
3F8FE0
3C01F0
7800F0
780078
F00078
F00078
FFFFF8
FFFFF8
FFFFF8
F00000
F00000
F00000
780000
7C0040
3E00E0
1FEFF0
0FFFE0
07FFC0
00FE00
ENDCHAR
STARTCHAR 0452
ENCODING 1106
SWIDTH 685 0
DWIDTH 28 0
BBX 24 38 0 -8
BITMAP
0F0000
0F0000
0F0000
FFFF80
FFFF80
FFFF80
0F0000
0F0000
0F0FE0
0F3FF8
0FFFFC
0FFFFE
0FE03E
0F801F
0F800F
0F000F
0F000F
0F000F
0F000F
0F000F
0F000F
0F000F
0F000F
0F000F
0F000F
0F000F
0F000F
0F000F
0F000F
0F000F
00000F
00000F
00000F
00000F
00033F
0007FE
0007FC
0003F0
ENDCHAR
STARTCHAR 0453
ENCODING 1107
SWIDTH 489 0
DWIDTH 20 0
BBX 16 30 4 0
BITMAP
003E
00F8
01F0
03C0
0780
0000
0000
0000
FFFF
FFFF
FFFF
F000
F000
F000
F000
F000
F000
F000
F000
F000
F000
F000
F000
F000
F000
F000
F000
F000
F000
F000
ENDCHAR
STARTCHAR 0454
ENCODING 1108
SWIDTH 587 0
DWIDTH 24 0
BBX 21 23 2 0
BITMAP
00FE00
03FFC0
0FFFE0
1FC3F8
3E00F0
7C0020
780000
F00000
F00000
F00000
FFFC00
FFFC00
FFFC00
F00000
F00000
F00000
780000
7C0020
3E00F0
1F83F0
0FFFE0
07FFC0
00FE00
ENDCHAR
STARTCHAR 0455
ENCODING 1109
SWIDTH 538 0
DWIDTH 22 0
BBX 18 22 2 0
BITMAP
03FC00
1FFF80
3FFF80
7F1F80
780100
780000
F00000
F80000
7C0000
7F8000
3FFC00
1FFF00
03FF80
001FC0
0003C0
0003C0
0003C0
6003C0
FE1F80
FFFF00
7FFE00
0FF800
ENDCHAR
STARTCHAR 0456
ENCODING 1110
SWIDTH 293 0
DWIDTH 12 0
BBX 5 31 3 0
BITMAP
78
F8
F8
F8
70
00
00
00
00
78
78
78
78
78
78
78
78
78
78
78
78
78
78
78
78
78
78
78
78
78
78
ENDCHAR
STARTCHAR 0457
ENCODING 1111
SWIDTH 269 0
DWIDTH 11 0
BBX 10 30 1 0
BITMAP
E380
F3C0
F3C0
E380
0000
0000
0000
0000
1E00
1E00
1E00
1E00
1E00
1E00
1E00
1E00
1E00
1E00
1E00
1E00
1E00
1E00
1E00
1E00
1E00
1E00
1E00
1E00
1E00
1E00
ENDCHAR
STARTCHAR 0458
ENCODING 1112
SWIDTH 293 0
DWIDTH 12 0
BBX 12 39 -4 -8
BITMAP
00F0
01F0
01F0
01F0
00E0
0000
0000
0000
0000
00F0
00F0
00F0
00F0
00F0
00F0
00F0
00F0
00F0
00F0
00F0
00F0
00F0
00F0
00F0
00F0
00F0
00F0
00F0
00F0
00F0
00F0
00F0
00F0
00F0
01E0
63E0
7FC0
FFC0
3F00
ENDCHAR
STARTCHAR 0459
ENCODING 1113
SWIDTH 930 0
DWIDTH 38 0
BBX 37 23 0 -1
BITMAP
03FFFC0000
03FFFC0000
03FFFC0000
03803C0000
03803C0000
03803C0000
07803C0000
07803C0000
07803FFF00
07803FFFC0
07803FFFE0
07803C01F0
07803C00F8
07803C0078
07003C0078
07003C0078
07003C0078
0F003C00F0
0F003C01F0
FE003FFFE0
FE003FFFC0
FC003FFF00
F800000000
ENDCHAR
STARTCHAR 045A
ENCODING 1114
SWIDTH 955 0
DWIDTH 39 0
BBX 34 22 4 0
BITMAP
F000F00000
F000F00000
F000F00000
F000F00000
F000F00000
F000F00000
F000F00000
F000F00000
F000F00000
FFFFFFFE00
FFFFFFFF00
FFFFFFFF80
F000F00F80
F000F007C0
F000F003C0
F000F003C0
F000F003C0
F000F00780
F000F00F80
F000FFFF00
F000FFFE00
F000FFF800
ENDCHAR
STARTCHAR 045B
ENCODING 1115
SWIDTH 685 0
DWIDTH 28 0
BBX 25 30 -1 0
BITMAP
07800000
07800000
07800000
FFFFC000
FFFFC000
FFFFC000
07800000
07800000
0787F000
079FFC00
07FFFE00
07FFFF00
07F01F00
07C00F80
07C00780
07800780
07800780
07800780
07800780
07800780
07800780
07800780
07800780
07800780
07800780
07800780
07800780
07800780
07800780
07800780
ENDCHAR
STARTCHAR 045C
ENCODING 1116
SWIDTH 587 0
DWIDTH 24 0
BBX 20 30 4 0
BITMAP
003E00
007C00
00F000
01E000
03C000
000000
000000
000000
F001E0
F003C0
F007C0
F00780
F00F00
F01E00
F01E00
F03C00
F07800
F0F000
FFF000
FFF000
FFF800
F07800
F07C00
F03E00
F01F00
F00F80
F00780
F007C0
F003E0
F001F0
ENDCHAR
STARTCHAR 045D
ENCODING 1117
SWIDTH 685 0
DWIDTH 28 0
BBX 21 30 4 0
BITMAP
1F0000
078000
03C000
01E000
007000
000000
000000
000000
F00078
F000F8
F001F8
F003F8
F007F8
F00FF8
F00F78
F01E78
F03E78
F07C78
F0F878
F1F078
F1E078
F3C078
F7C078
FF8078
FF0078
FE0078
FC0078
F80078
F80078
F00078
ENDCHAR
STARTCHAR 045E
ENCODING 1118
SWIDTH 563 0
DWIDTH 23 0
BBX 23 38 0 -8
BITMAP
0701C0
070380
078780
03FF00
01FE00
000000
000000
000000
F0001E
78001C
78003C
3C003C
3C0078
1E0078
1E00F0
1F00F0
0F00E0
0F01E0
0781E0
0783C0
03C3C0
03C780
01E780
01E700
01EF00
00FE00
00FE00
007E00
007C00
003C00
007800
007800
00F000
40F000
F3E000
FFE000
FFC000
3F0000
ENDCHAR
STARTCHAR 045F
ENCODING 1119
SWIDTH 636 0
DWIDTH 26 0
BBX 19 27 4 -5
BITMAP
F001E0
F001E0
F001E0
F001E0
F001E0
F001E0
F001E0
F001E0
F001E0
F001E0
F001E0
F001E0
F001E0
F001E0
F001E0
F001E0
F001E0
F001E0
F001E0
FFFFE0
FFFFE0
FFFFE0
01E000
01E000
01E000
01E000
01E000
ENDCHAR
STARTCHAR 0462
ENCODING 1122
SWIDTH 808 0
DWIDTH 33 0
BBX 30 30 1 0
BITMAP
01E00000
01E00000
01E00000
01E00000
01E00000
FFFFF000
FFFFF000
FFFFF000
01E00000
01E00000
01E00000
01E00000
01FFFF80
01FFFFE0
01FFFFF0
01E001F8
01E0007C
01E0007C
01E0003C
01E0003C
01E0003C
01E0003C
01E0003C
01E0003C
01E0007C
01E000F8
01E003F8
01FFFFF0
01FFFFC0
01FFFF00
ENDCHAR
STARTCHAR 0463
ENCODING 1123
SWIDTH 612 0
DWIDTH 25 0
BBX 24 30 0 0
BITMAP
078000
078000
078000
078000
078000
078000
078000
078000
FFFF80
FFFF80
FFFF80
078000
078000
078000
078000
078000
07FFE0
07FFF8
07FFFC
07803E
07801E
07800F
07800F
07800F
07800F
07801E
07803E
07FFFC
07FFF8
07FFE0
ENDCHAR
STARTCHAR 046A
ENCODING 1130
SWIDTH 906 0
DWIDTH 37 0
BBX 35 29 1 0
BITMAP
1FFFFFFF00
1FFFFFFF00
1FFFFFFF00
0F00001E00
0780003C00
03C0007800
03E000F000
01F001E000
00F003C000
007807C000
003C0F8000
001E0F0000
000F1E0000
0007BC0000
003FFF8000
00FFFFE000
01FFFFF000
03E1E1F800
07C1E07C00
0F81E03E00
0F01E01E00
1E01E00F00
1E01E00F00
3C01E00F80
3C01E00780
7801E00780
7801E003C0
F801E003C0
F001E001E0
ENDCHAR
STARTCHAR 046B
ENCODING 1131
SWIDTH 710 0
DWIDTH 29 0
BBX 27 22 1 0
BITMAP
3FFFFF00
3FFFFF00
3FFFFF00
1E000E00
0F001E00
07803C00
03C07800
01E0F000
00F1E000
007BC000
00FFE000
03FFF800
0FFFFC00
0F0E3E00
1E0E0F00
3C0E0700
3C0E0780
780E0780
780E03C0
700E03C0
F00E01E0
F00E01E0
ENDCHAR
STARTCHAR 0472
ENCODING 1138
SWIDTH 857 0
DWIDTH 35 0
BBX 30 31 2 -1
BITMAP
001FE000
007FFC00
01FFFF00
07FFFF80
0FE00FC0
1F8007E0
1F0001F0
3E0000F8
3C0000F8
7C000078
7800007C
7800003C
F800003C
F000003C
FFFFFFFC
FFFFFFFC
FFFFFFFC
F000003C
F800003C
7800003C
7800007C
7C000078
3C0000F8
3E0000F0
1F0001F0
1F8003E0
0FE00FC0
07FFFF80
01FFFF00
00FFFC00
001FE000
ENDCHAR
STARTCHAR 0473
ENCODING 1139
SWIDTH 661 0
DWIDTH 27 0
BBX 23 22 2 0
BITMAP
00FE00
07FF80
0FFFE0
1F83F0
3E00F8
78007C
78003C
F0003C
F0001E
FFFFFE
FFFFFE
FFFFFE
F0001E
F0001C
F0003C
78003C
7C0078
3E00F8
1F87F0
0FFFE0
07FF80
00FE00
ENDCHAR
STARTCHAR 0474
ENCODING 1140
SWIDTH 759 0
DWIDTH 31 0
BBX 29 30 1 0
BITMAP
000000F8
F00003F8
F80007F8
780007F8
78000FC0
7C000F00
3C001F00
3E001E00
1E001E00
1F003C00
1F003C00
0F003C00
0F807800
07807800
07C07800
07C0F000
03C0F000
03E0F000
01E1E000
01F1E000
01F1E000
00F3C000
00FBC000
007FC000
007F8000
007F8000
003F8000
003F0000
001F0000
001F0000
ENDCHAR
STARTCHAR 0475
ENCODING 1141
SWIDTH 587 0
DWIDTH 24 0
BBX 24 23 0 0
BITMAP
00001F
F8003F
78007F
7C007F
3C00F8
3C00F0
1E00F0
1E01E0
1F01E0
0F01E0
0F83C0
0783C0
078780
03C780
03C780
03EF00
01EF00
01FF00
00FE00
00FE00
007E00
007C00
007C00
ENDCHAR
STARTCHAR 048A
ENCODING 1162
SWIDTH 857 0
DWIDTH 35 0
BBX 29 43 4 -6
BITMAP
03807000
03807000
0380E000
01E1E000
01FFC000
007F0000
00000000
00000000
F0000780
F0000F80
F0000F80
F0001F80
F0003F80
F0007F80
F000FF80
F000FF80
F001F780
F003E780
F007C780
F0078780
F00F8780
F01F0780
F03E0780
F03C0780
F07C0780
F0F80780
F1F00780
F1E00780
F3E00780
F7C00780
FF800780
FF000780
FF000780
FE0007F8
FC0007F8
F80007F8
F80007F0
00000070
000000F0
000000E0
000000E0
000000E0
000001E0
ENDCHAR
STARTCHAR 048B
ENCODING 1163
SWIDTH 710 0
DWIDTH 29 0
BBX 24 36 4 -5
BITMAP
1C0380
1C0300
0E0700
0F9F00
07FE00
01F800
000000
000000
000000
F00078
F000F8
F001F8
F003F8
F007F8
F00FF8
F00F78
F01E78
F03E78
F07C78
F0F878
F1F078
F1E078
F3C078
F7C078
FF8078
FF0078
FE0078
FC0078
F8007F
F8007E
F0007E
00001E
00001E
00001C
00001C
00001C
ENDCHAR
STARTCHAR 048C
ENCODING 1164
SWIDTH 734 0
DWIDTH 30 0
BBX 28 30 1 0
BITMAP
0F800000
0F800000
0F800000
0F800000
0F800000
FFFF8000
FFFF8000
FFFF8000
0F800000
0F800000
0F800000
0F800000
0FFFFC00
0FFFFF00
0FFFFF80
0F800FC0
0F8003E0
0F8001E0
0F8001E0
0F8001F0
0F8001F0
0F8001F0
0F8001E0
0F8001E0
0F8003E0
0F8007C0
0F801FC0
0FFFFF80
0FFFFE00
0FFFF800
ENDCHAR
STARTCHAR 048D
ENCODING 1165
SWIDTH 612 0
DWIDTH 25 0
BBX 23 22 1 0
BITMAP
0F0000
0F0000
FFFF00
FFFF00
FFFF00
0F0000
0F0000
0F0000
0FFFC0
0FFFF0
0FFFF8
0F007C
0F003C
0F003E
0F001E
0F001E
0F003C
0F003C
0F00FC
0FFFF8
0FFFF0
0FFFC0
ENDCHAR
STARTCHAR 048E
ENCODING 1166
SWIDTH 734 0
DWIDTH 30 0
BBX 24 29 4 0
BITMAP
FFFF00
FFFFE0
FFFFF0
FFFFF8
F800FC
F8003E
F8003E
F8001E
F8001E
F8001F
F8181F
F83C1E
F81E1E
F80E1E
F80F3E
F807FC
F803FC
FFFFF8
FFFFE0
FFFFF0
FFF078
F80038
F8003C
F8001E
F8000C
F80000
F80000
F80000
F80000
ENDCHAR
STARTCHAR 048F
ENCODING 1167
SWIDTH 710 0
DWIDTH 29 0
BBX 22 30 4 -8
BITMAP
F07E00
F3FF80
F7FFE0
FFCFF0
FE01F0
FC00F8
F80078
F0003C
F0003C
F0003C
F0003C
F0003C
F0003C
F00E3C
F00E3C
F80778
FC07F8
FE03F0
FFCFF0
F7FFE0
F3FFF0
F07E78
F0003C
F00018
F00000
F00000
F00000
F00000
F00000
F00000
ENDCHAR
STARTCHAR 0490
ENCODING 1168
SWIDTH 587 0
DWIDTH 24 0
BBX 19 35 4 0
BITMAP
0001E0
0001E0
0001E0
0001E0
0001E0
0001E0
FFFFE0
FFFFE0
FFFFE0
FFFFE0
F00000
F00000
F00000
F00000
F00000
F00000
F00000
F00000
F00000
F00000
F00000
F00000
F00000
F00000
F00000
F00000
F00000
F00000
F00000
F00000
F00000
F00000
F00000
F00000
F00000
ENDCHAR
STARTCHAR 0491
ENCODING 1169
SWIDTH 465 0
DWIDTH 19 0
BBX 15 26 4 0
BITMAP
001E
001E
001E
001E
FFFE
FFFE
FFFE
F000
F000
F000
F000
F000
F000
F000
F000
F000
F000
F000
F000
F000
F000
F000
F000
F000
F000
F000
ENDCHAR
STARTCHAR 0492
ENCODING 1170
SWIDTH 612 0
DWIDTH 25 0
BBX 23 29 1 0
BITMAP
07FFFE
07FFFE
07FFFE
07FFFE
078000
078000
078000
078000
078000
078000
078000
078000
078000
078000
FFFFF8
FFFFF8
FFFFF8
078000
078000
078000
078000
078000
078000
078000
078000
078000
078000
078000
078000
ENDCHAR
STARTCHAR 0493
ENCODING 1171
SWIDTH 514 0
DWIDTH 21 0
BBX 18 22 2 0
BITMAP
3FFFC0
3FFFC0
3FFFC0
3C0000
3C0000
3C0000
3C0000
3C0000
3C0000
3C0000
3C0000
FFFF00
FFFF00
FFFF00
3C0000
3C0000
3C0000
3C0000
3C0000
3C0000
3C0000
3C0000
ENDCHAR
STARTCHAR 0494
ENCODING 1172
SWIDTH 710 0
DWIDTH 29 0
BBX 23 35 4 -6
BITMAP
FFFFF0
FFFFF0
FFFFF0
FFFFF0
F00000
F00000
F00000
F00000
F00000
F00000
F00000
F00000
F00000
F1FF80
F7FFE0
FFFFF0
FF03F8
FC00F8
F0007C
F0003C
F0003E
F0001E
F0001E
F0001E
F0001E
F0001E
F0003C
F0003C
F0007C
000078
0001F8
002FF0
003FE0
007F80
007E00
ENDCHAR
STARTCHAR 0495
ENCODING 1173
SWIDTH 612 0
DWIDTH 25 0
BBX 20 30 4 -8
BITMAP
FFFE00
FFFE00
FFFE00
F00000
F00000
F00000
F00000
F00000
F00000
F00000
F3F800
FFFF00
FFFF80
FF3FC0
F007C0
F003E0
F001E0
F001E0
F001F0
F000F0
F000F0
F001E0
0001E0
0001E0
0003E0
0007C0
01FF80
01FF00
03FE00
03F800
ENDCHAR
STARTCHAR 0496
ENCODING 1174
SWIDTH 1077 0
DWIDTH 44 0
BBX 42 35 1 -6
BITMAP
78003C001E00
7C003C003E00
3C003C003C00
1E003C007800
1F003C00F800
0F003C00F000
07803C01E000
07803C01E000
03C03C03C000
03E03C07C000
01E03C078000
00F03C0F0000
00FFFFFF0000
007FFFFE0000
007FFFFE0000
00FFFFFF0000
01F03C0F0000
01F03C0F8000
03E03C07C000
03C03C03C000
07C03C03E000
0F803C01F000
0F803C01F000
1F003C00F800
1E003C007800
3E003C007FC0
7C003C003FC0
78003C001FC0
F8003C001FC0
0000000003C0
0000000003C0
0000000003C0
0000000003C0
0000000003C0
0000000003C0
ENDCHAR
STARTCHAR 0497
ENCODING 1175
SWIDTH 881 0
DWIDTH 36 0
BBX 35 27 1 -5
BITMAP
F803C00F00
7803C01F00
3C03C01E00
3C03C03C00
1E03C03C00
0F03C07800
0F03C0F800
0783C0F000
0783C1E000
03C3C1E000
01FFFFC000
01FFFFC000
03FFFFE000
07C3C1E000
0783C1F000
0F03C0F800
1F03C07800
1E03C07C00
3C03C03E00
7C03C01FE0
7803C01FE0
F803C00FE0
00000001E0
00000001E0
00000001E0
00000001E0
00000001E0
ENDCHAR
STARTCHAR 0498
ENCODING 1176
SWIDTH 636 0
DWIDTH 26 0
BBX 23 36 1 -6
BITMAP
03FE00
1FFF80
7FFFE0
3FFFF0
3801F8
2000F8
00007C
00007C
00003C
00007C
000078
0000F8
0001F0
03FFE0
03FF80
03FFF0
0003F8
00007C
00003C
00003E
00001E
00001E
00001E
00003E
60007C
7800FC
FFDFF8
3FFFF0
1FFFC0
03FF00
007800
007800
007800
007800
007800
007800
ENDCHAR
STARTCHAR 0499
ENCODING 1177
SWIDTH 538 0
DWIDTH 22 0
BBX 19 28 1 -5
BITMAP
07F800
3FFF00
7FFF80
7F3FC0
3007C0
0003C0
0003C0
0003C0
0003C0
000780
03FF00
03FE00
03FF80
0007C0
0003E0
0001E0
0001E0
0001E0
4003E0
7007C0
FFFF80
3FFF00
0FF800
01E000
01E000
01E000
01E000
01E000
ENDCHAR
STARTCHAR 049A
ENCODING 1178
SWIDTH 759 0
DWIDTH 31 0
BBX 26 35 4 -6
BITMAP
F0001E00
F0003E00
F0003C00
F0007800
F000F800
F001F000
F001E000
F003C000
F007C000
F0078000
F00F0000
F01E0000
FFFE0000
FFFC0000
FFFC0000
FFFE0000
F01E0000
F01F0000
F00F8000
F007C000
F003C000
F003E000
F001F000
F000F000
F000F800
F0007FC0
F0003FC0
F0001FC0
F0001FC0
000003C0
000003C0
000003C0
000003C0
000003C0
000003C0
ENDCHAR
STARTCHAR 049B
ENCODING 1179
SWIDTH 587 0
DWIDTH 24 0
BBX 22 27 4 -5
BITMAP
F001E0
F003C0
F007C0
F00780
F00F00
F01E00
F01E00
F03C00
F07800
F0F000
FFF000
FFF000
FFF800
F07800
F07C00
F03E00
F01F00
F00F80
F00780
F007FC
F003FC
F001FC
00003C
00003C
00003C
00003C
00003C
ENDCHAR
STARTCHAR 049C
ENCODING 1180
SWIDTH 734 0
DWIDTH 30 0
BBX 25 29 4 0
BITMAP
F0000F00
F0001F00
F0001E00
F0003C00
F0007C00
F0007800
F1C0F000
F1C1F000
F1C1E000
F1C3C000
F1C7C000
F1C78000
FFFF0000
FFFF0000
FFFF0000
FFFF8000
F1C7C000
F1C7C000
F1C3E000
F1C1E000
F1C1F000
F1C0F800
F0007800
F0007C00
F0003E00
F0003E00
F0001F00
F0000F80
F0000F80
ENDCHAR
STARTCHAR 049D
ENCODING 1181
SWIDTH 612 0
DWIDTH 25 0
BBX 20 22 4 0
BITMAP
F000F0
F001E0
F003C0
F003C0
F00780
F38F00
F38F00
F39E00
F39C00
F3BC00
FFF800
FFF800
FFFC00
F3BE00
F39E00
F39F00
F38F80
F00780
F003C0
F003E0
F001F0
F000F0
ENDCHAR
STARTCHAR 049E
ENCODING 1182
SWIDTH 734 0
DWIDTH 30 0
BBX 28 29 1 0
BITMAP
0F0001E0
0F0003E0
0F0003C0
0F000780
FFFE0F80
FFFE0F00
FFFE1E00
0F003C00
0F003C00
0F007800
0F00F000
0F01F000
0F01E000
0FFFC000
0FFFC000
0FFFC000
0FFFE000
0F01F000
0F00F800
0F00F800
0F007C00
0F003E00
0F001E00
0F001F00
0F000F80
0F0007C0
0F0003C0
0F0003E0
0F0001F0
ENDCHAR
STARTCHAR 049F
ENCODING 1183
SWIDTH 587 0
DWIDTH 24 0
BBX 24 30 0 0
BITMAP
0F0000
0F0000
0F0000
FFFC00
FFFC00
FFFC00
0F0000
0F0000
0F001E
0F003C
0F007C
0F0078
0F00F0
0F01E0
0F01E0
0F03C0
0F0780
0F0F00
0FFF00
0FFF00
0FFF80
0F0780
0F07C0
0F03E0
0F01F0
0F00F8
0F0078
0F007C
0F003E
0F001F
ENDCHAR
STARTCHAR 04A0
ENCODING 1184
SWIDTH 832 0
DWIDTH 34 0
BBX 32 29 1 0
BITMAP
FFF0001E
FFF0003C
FFF0007C
FFF00078
00F000F0
00F001F0
00F001E0
00F003C0
00F00780
00F00F80
00F00F00
00F01E00
00FFFC00
00FFFC00
00FFFC00
00FFFE00
00F03E00
00F01F00
00F00F80
00F00780
00F007C0
00F003E0
00F001E0
00F001F0
00F000F8
00F0007C
00F0003C
00F0003E
00F0001F
ENDCHAR
STARTCHAR 04A1
ENCODING 1185
SWIDTH 661 0
DWIDTH 27 0
BBX 27 22 0 0
BITMAP
FFE003C0
FFE00780
FFE00F80
01E00F00
01E01E00
01E03C00
01E07800
01E0F800
01E0F000
01FFE000
01FFC000
01FFE000
01E1F000
01E0F800
01E07800
01E03C00
01E03E00
01E01F00
01E00F00
01E00780
01E007C0
01E003E0
ENDCHAR
STARTCHAR 04A2
ENCODING 1186
SWIDTH 857 0
DWIDTH 35 0
BBX 29 35 4 -6
BITMAP
F8000780
F8000780
F8000780
F8000780
F8000780
F8000780
F8000780
F8000780
F8000780
F8000780
F8000780
F8000780
FFFFFF80
FFFFFF80
FFFFFF80
FFFFFF80
F8000780
F8000780
F8000780
F8000780
F8000780
F8000780
F8000780
F8000780
F8000780
F80007F8
F80007F8
F80007F8
F80007F8
00000038
00000038
00000038
00000038
00000038
00000038
ENDCHAR
STARTCHAR 04A3
ENCODING 1187
SWIDTH 710 0
DWIDTH 29 0
BBX 23 27 4 -5
BITMAP
F000F0
F000F0
F000F0
F000F0
F000F0
F000F0
F000F0
F000F0
F000F0
F000F0
FFFFF0
FFFFF0
FFFFF0
F000F0
F000F0
F000F0
F000F0
F000F0
F000F0
F000FE
F000FE
F000FE
00000E
00000E
00000E
00000E
00000E
ENDCHAR
STARTCHAR 04A4
ENCODING 1188
SWIDTH 1077 0
DWIDTH 44 0
BBX 40 29 4 0
BITMAP
F80007FFFF
F80007FFFF
F80007FFFF
F80007FFFF
F800078000
F800078000
F800078000
F800078000
F800078000
F800078000
F800078000
F800078000
FFFFFF8000
FFFFFF8000
FFFFFF8000
FFFFFF8000
F800078000
F800078000
F800078000
F800078000
F800078000
F800078000
F800078000
F800078000
F800078000
F800078000
F800078000
F800078000
F800078000
ENDCHAR
STARTCHAR 04A5
ENCODING 1189
SWIDTH 881 0
DWIDTH 36 0
BBX 32 22 4 0
BITMAP
F000FFFF
F000FFFF
F000FFFF
F000F000
F000F000
F000F000
F000F000
F000F000
F000F000
F000F000
FFFFF000
FFFFF000
FFFFF000
F000F000
F000F000
F000F000
F000F000
F000F000
F000F000
F000F000
F000F000
F000F000
ENDCHAR
STARTCHAR 04A6
ENCODING 1190
SWIDTH 1200 0
DWIDTH 49 0
BBX 43 35 4 -6
BITMAP
FFFFFF800000
FFFFFF800000
FFFFFF800000
FFFFFF800000
F00007800000
F00007800000
F00007800000
F00007800000
F00007800000
F00007800000
F00007800000
F00007800000
F00007800000
F000079FF800
F00007FFFE00
F00007FFFF00
F00007F81F80
F00007C007C0
F000078003C0
F000078003E0
F000078001E0
F000078001E0
F000078001E0
F000078001E0
F000078001E0
F000078001E0
F000078001E0
F000078003E0
F000078003C0
0000000007C0
000000000F80
00000003FF00
00000003FE00
00000003FC00
00000003F000
ENDCHAR
STARTCHAR 04A7
ENCODING 1191
SWIDTH 979 0
DWIDTH 40 0
BBX 35 30 4 -8
BITMAP
FFFFE00000
FFFFE00000
FFFFE00000
F001E00000
F001E00000
F001E00000
F001E00000
F001E00000
F001E00000
F001E00000
F001E3F800
F001FFFE00
F001FFFF00
F001FE3F80
F001F007C0
F001E003C0
F001E003E0
F001E001E0
F001E001E0
F001E001E0
F001E001E0
F001E001E0
00000001E0
00000003C0
00000007C0
0000000F80
000003FF80
000003FF00
000003FC00
000003F000
ENDCHAR
STARTCHAR 04A8
ENCODING 1192
SWIDTH 979 0
DWIDTH 40 0
BBX 35 31 2 -1
BITMAP
01000FE000
03C03FF800
07C07FFE00
0F80FFFF00
1F01F01F00
1E03E00F80
3E03C007C0
3C07C007C0
7C078003C0
78078003C0
78078003C0
780F8003E0
F80F8003E0
F80F0003E0
F00F8003E0
F00F8003C0
F8078003C0
78078003C0
78078003C0
7807C00780
7803C00780
3C03C00F00
3E03E00F00
3E01F01E00
1F00F83C00
0F80FC7800
07E07FF000
03FC3FE020
01FFFFFFE0
007FFFFFE0
000FF87FC0
ENDCHAR
STARTCHAR 04A9
ENCODING 1193
SWIDTH 808 0
DWIDTH 33 0
BBX 28 24 2 -1
BITMAP
0400FC00
0F03FF00
1F07FFC0
3E0FCFC0
3C1F03E0
781E01E0
783C00F0
F03C00F0
F03C00F0
F03C00F0
F03C00F0
F03C00F0
F03C00F0
F03C00F0
F03E00E0
781E01E0
781F03C0
7C0F03C0
3E0F8780
1F07FF00
1FC3FE00
07FFFFF0
03FFFFF0
007F9FF0
ENDCHAR
STARTCHAR 04AA
ENCODING 1194
SWIDTH 710 0
DWIDTH 29 0
BBX 26 37 2 -7
BITMAP
001FE000
007FFC00
01FFFF00
07FFFF80
0FE00FC0
1F800780
1F000100
3E000000
3C000000
7C000000
78000000
78000000
F8000000
F0000000
F0000000
F0000000
F0000000
F0000000
F8000000
78000000
78000000
7C000000
3C000000
3E000000
1F000100
0F800380
07E00FC0
03FFFF80
00FFFF00
003FFC00
0007E000
00070000
00070000
00070000
00070000
00070000
00070000
ENDCHAR
STARTCHAR 04AB
ENCODING 1195
SWIDTH 563 0
DWIDTH 23 0
BBX 20 27 2 -5
BITMAP
00FE00
07FF80
0FFFC0
1FCFE0
3E01F0
7C00E0
780000
F80000
F00000
F00000
F00000
F00000
F00000
F00000
F00000
780000
780040
3C00F0
3F03E0
1FFFC0
07FF80
01FE00
007800
007800
007800
007800
007800
ENDCHAR
STARTCHAR 04AC
ENCODING 1196
SWIDTH 612 0
DWIDTH 25 0
BBX 23 35 1 -6
BITMAP
FFFFFE
FFFFFE
FFFFFE
FFFFFE
007800
007800
007800
007800
007800
007800
007800
007800
007800
007800
007800
007800
007800
007800
007800
007800
007800
007800
007800
007800
007800
007FC0
007FC0
007FC0
007FC0
0003C0
0003C0
0003C0
0003C0
0003C0
0003C0
ENDCHAR
STARTCHAR 04AD
ENCODING 1197
SWIDTH 489 0
DWIDTH 20 0
BBX 20 27 0 -5
BITMAP
FFFFF0
FFFFF0
FFFFF0
00F000
00F000
00F000
00F000
00F000
00F000
00F000
00F000
00F000
00F000
00F000
00F000
00F000
00F000
00F000
00F000
00FE00
00FE00
00FE00
000E00
000E00
000E00
000E00
000E00
ENDCHAR
STARTCHAR 04AE
ENCODING 1198
SWIDTH 661 0
DWIDTH 27 0
BBX 26 29 1 0
BITMAP
F00003C0
F8000780
78000F00
7C000F00
3C001E00
1E001E00
1F003C00
0F007C00
0F807800
0780F000
03C0F000
03E1E000
01E3E000
01F3C000
00F78000
007F8000
007F0000
003F0000
003E0000
001E0000
001E0000
001E0000
001E0000
001E0000
001E0000
001E0000
001E0000
001E0000
001E0000
ENDCHAR
STARTCHAR 04AF
ENCODING 1199
SWIDTH 563 0
DWIDTH 23 0
BBX 23 30 0 -8
BITMAP
F8001E
78001E
78003C
3C003C
3C0078
1E0078
1E0070
1F00F0
0F00F0
0F01E0
0781E0
0783C0
03C3C0
03C380
03E780
01E700
01EF00
00FF00
00FE00
007E00
007C00
007C00
003C00
003C00
003C00
003C00
003C00
003C00
003C00
003C00
ENDCHAR
STARTCHAR 04B0
ENCODING 1200
SWIDTH 661 0
DWIDTH 27 0
BBX 26 29 1 0
BITMAP
F00003C0
F8000780
78000F00
7C000F00
3C001E00
1E001E00
1F003C00
0F007800
0F807800
0780F000
03C0F000
03E1E000
01E3C000
01F3C000
00F78000
007F8000
007F0000
0FFFF800
0FFFF800
0FFFF800
001E0000
001E0000
001E0000
001E0000
001E0000
001E0000
001E0000
001E0000
001E0000
ENDCHAR
STARTCHAR 04B1
ENCODING 1201
SWIDTH 563 0
DWIDTH 23 0
BBX 23 30 0 -8
BITMAP
F8001E
78001E
78003C
3C003C
3C0078
1E0078
1E0070
1F00F0
0F00E0
0F01E0
0781E0
0783C0
03C3C0
03C380
03E780
01E700
01EF00
00FF00
00FE00
007E00
1FFFF0
1FFFF0
1FFFF0
003C00
003C00
003C00
003C00
003C00
003C00
003C00
ENDCHAR
STARTCHAR 04B2
ENCODING 1202
SWIDTH 710 0
DWIDTH 29 0
BBX 27 35 1 -6
BITMAP
78000F00
7C001F00
3E003E00
1F003C00
1F007C00
0F80F800
07C1F000
03C1F000
03E3E000
01F7C000
00F7C000
00FF8000
007F0000
003E0000
003F0000
007F0000
00FF8000
00FFC000
01F7C000
03E3E000
03C1F000
07C1F000
0F80F800
0F007C00
1F003C00
3E003FE0
7C001FE0
78000FE0
F8000FE0
000000E0
000000E0
000000E0
000000E0
000000E0
000000E0
ENDCHAR
STARTCHAR 04B3
ENCODING 1203
SWIDTH 538 0
DWIDTH 22 0
BBX 23 27 1 -5
BITMAP
F800F0
7801E0
3C03C0
3E07C0
1F0780
0F0F00
079E00
07FE00
03FC00
01F800
00F000
01F800
01F800
03FC00
079E00
0F9F00
0F0F80
1E0780
3C03C0
7C03FE
7801FE
F000FE
00001E
00001E
00001E
00001E
00001E
ENDCHAR
STARTCHAR 04B4
ENCODING 1204
SWIDTH 979 0
DWIDTH 40 0
BBX 38 35 1 -6
BITMAP
FFFFFC0780
FFFFFC0780
FFFFFC0780
FFFFFC0780
0078000780
0078000780
0078000780
0078000780
0078000780
0078000780
0078000780
0078000780
0078000780
0078000780
0078000780
0078000780
0078000780
0078000780
0078000780
0078000780
0078000780
0078000780
0078000780
0078000780
0078000780
007FFFFFFC
007FFFFFFC
007FFFFFFC
007FFFFFFC
000000003C
000000003C
000000003C
000000003C
000000003C
000000003C
ENDCHAR
STARTCHAR 04B5
ENCODING 1205
SWIDTH 759 0
DWIDTH 31 0
BBX 30 27 0 -5
BITMAP
FFFFC1E0
FFFFC1E0
FFFFC1E0
00F001E0
00F001E0
00F001E0
00F001E0
00F001E0
00F001E0
00F001E0
00F001E0
00F001E0
00F001E0
00F001E0
00F001E0
00F001E0
00F001E0
00F001E0
00F001E0
00FFFFFC
00FFFFFC
00FFFFFC
0000003C
0000003C
0000003C
0000003C
0000003C
ENDCHAR
STARTCHAR 04B6
ENCODING 1206
SWIDTH 759 0
DWIDTH 31 0
BBX 28 35 2 -6
BITMAP
F0000F00
F0000F00
F0000F00
F0000F00
F0000F00
F0000F00
F0000F00
F0000F00
F0000F00
F0000F00
F0000F00
F8000F00
78000F00
7C000F00
7E001F00
3F00FF00
1FFFFF00
0FFFFF00
07FFCF00
00300F00
00000F00
00000F00
00000F00
00000F00
00000F00
00000FF0
00000FF0
00000FF0
00000FF0
000000F0
000000F0
000000F0
000000F0
000000F0
000000F0
ENDCHAR
STARTCHAR 04B7
ENCODING 1207
SWIDTH 636 0
DWIDTH 26 0
BBX 22 27 2 -5
BITMAP
F001E0
F001E0
F001E0
F001E0
F001E0
F001E0
F001E0
F001E0
F001E0
F001E0
F801E0
7E1FE0
7FFFE0
3FFFE0
0FF1E0
0001E0
0001E0
0001E0
0001E0
0001FC
0001FC
0001FC
00001C
00001C
00001C
00001C
00001C
ENDCHAR
STARTCHAR 04B8
ENCODING 1208
SWIDTH 734 0
DWIDTH 30 0
BBX 24 29 2 0
BITMAP
F0000F
F0000F
F0000F
F0000F
F0000F
F0000F
F0000F
F0000F
F0000F
F0000F
F0380F
F8380F
78380F
7C380F
7E383F
3FFFFF
1FFFFF
0FFFEF
03FF0F
00380F
00380F
00380F
00380F
00380F
00380F
00000F
00000F
00000F
00000F
ENDCHAR
STARTCHAR 04B9
ENCODING 1209
SWIDTH 612 0
DWIDTH 25 0
BBX 19 22 2 0
BITMAP
F001E0
F001E0
F001E0
F001E0
F001E0
F001E0
F001E0
F0E1E0
F0E1E0
F0E1E0
F8E1E0
7EFFE0
7FFFE0
3FFFE0
0FF1E0
00E1E0
00E1E0
00E1E0
00E1E0
0001E0
0001E0
0001E0
ENDCHAR
STARTCHAR 04BA
ENCODING 1210
SWIDTH 734 0
DWIDTH 30 0
BBX 24 29 4 0
BITMAP
F00000
F00000
F00000
F00000
F00000
F00000
F00000
F00000
F00000
F00000
F07F80
F7FFF0
FFFFF8
FFFFFC
FE007E
F0003E
F0001E
F0001F
F0000F
F0000F
F0000F
F0000F
F0000F
F0000F
F0000F
F0000F
F0000F
F0000F
F0000F
ENDCHAR
STARTCHAR 04BB
ENCODING 1211
SWIDTH 685 0
DWIDTH 28 0
BBX 20 30 4 0
BITMAP
F00000
F00000
F00000
F00000
F00000
F00000
F00000
F00000
F0FE00
F3FF80
FFFFC0
FFFFE0
FE03E0
F801F0
F800F0
F000F0
F000F0
F000F0
F000F0
F000F0
F000F0
F000F0
F000F0
F000F0
F000F0
F000F0
F000F0
F000F0
F000F0
F000F0
ENDCHAR
STARTCHAR 04BC
ENCODING 1212
SWIDTH 979 0
DWIDTH 40 0
BBX 38 31 1 -1
BITMAP
00000FE000
00007FF800
0001FFFE00
0003FFFF00
0007E01F80
000FC00FC0
001F8003E0
701F0003E0
783E0001F0
783C0000F0
F07C0000F8
F078000078
F078000078
F87800007C
7C7800007C
7FFFFFFFFC
3FFFFFFFFC
1FFFFFFFFC
00F8000000
0078000000
0078000000
007C000000
003C000000
003E000000
001F000180
001F8003C0
000FE00FE0
0007FFFFC0
0001FFFF00
0000FFFC00
00001FE000
ENDCHAR
STARTCHAR 04BD
ENCODING 1213
SWIDTH 759 0
DWIDTH 31 0
BBX 29 22 1 0
BITMAP
0003F800
000FFF00
003FFF80
007F9FC0
407803E0
F0F001F0
E1F000F0
E1E000F0
F1E00078
FFFFFFF8
7FFFFFF8
1FFFFFF8
01E00000
01E00000
01E00000
00F00000
00F80040
007C01E0
007FCFE0
001FFFC0
000FFF80
0001FC00
ENDCHAR
STARTCHAR 04BE
ENCODING 1214
SWIDTH 979 0
DWIDTH 40 0
BBX 38 36 1 -6
BITMAP
00000FE000
00007FF800
0001FFFE00
0003FFFF00
0007E01F80
000FC00FC0
001F8003E0
701F0001F0
783E0001F0
703C0000F0
F07C0000F8
F078000078
F078000078
787800007C
7FF800007C
3FFFFFFFFC
1FFFFFFFFC
0FFFFFFFFC
0078000000
0078000000
0078000000
007C000000
003E000000
003F000000
001F800380
000FE00FE0
0007FFFFC0
0003FFFF80
0000FFFE00
00001FF000
0000078000
0000078000
0000078000
0000078000
0000078000
0000078000
ENDCHAR
STARTCHAR 04BF
ENCODING 1215
SWIDTH 759 0
DWIDTH 31 0
BBX 29 27 1 -5
BITMAP
0003F800
000FFF00
001FFF80
003F9FC0
407C03E0
F0F801E0
E0F000F0
E1E000F0
E1E00078
F1E00078
FFFFFFF8
7FFFFFF8
1FFFFFF8
01E00000
01E00000
01E00000
00F00000
00F800C0
007E03E0
003FFFC0
000FFF80
0003FC00
0000F000
0000F000
0000F000
0000F000
0000F000
ENDCHAR
STARTCHAR 04C0
ENCODING 1216
SWIDTH 318 0
DWIDTH 13 0
BBX 5 29 4 0
BITMAP
F8
F8
F8
F8
F8
F8
F8
F8
F8
F8
F8
F8
F8
F8
F8
F8
F8
F8
F8
F8
F8
F8
F8
F8
F8
F8
F8
F8
F8
ENDCHAR
STARTCHAR 04C1
ENCODING 1217
SWIDTH 1028 0
DWIDTH 42 0
BBX 40 37 1 0
BITMAP
000700E000
000700E000
000781E000
0003C3C000
0001FF8000
00007E0000
0000000000
0000000000
78003C001E
7C003C003E
3C003C003C
1E003C0078
1F003C00F8
0F003C00F0
07803C01E0
07803C01E0
03C03C03C0
03E03C07C0
01E03C0780
00F03C0F00
00FFFFFF00
007FFFFE00
007FFFFE00
00FFFFFF00
01F03C0F00
01F03C0F80
03E03C07C0
03C03C03C0
07C03C03E0
0F803C01F0
0F803C01F0
1F003C00F8
1E003C0078
3E003C007C
7C003C003E
78003C001E
F8003C001F
ENDCHAR
STARTCHAR 04C2
ENCODING 1218
SWIDTH 857 0
DWIDTH 35 0
BBX 33 30 1 0
BITMAP
00380E0000
00380E0000
001C3C0000
001FF80000
0007F00000
0000000000
0000000000
0000000000
F803C00F00
7803C01F00
3C03C01E00
3C03C03C00
1E03C03C00
0F03C07800
0F03C0F800
0783C0F000
0783C1E000
03C3C1E000
01FFFFC000
01FFFFC000
03FFFFE000
07C3C1E000
0783C1F000
0F03C0F800
1F03C07800
1E03C07C00
3C03C03E00
7C03C01E00
7803C01F00
F803C00F80
ENDCHAR
STARTCHAR 04C3
ENCODING 1219
SWIDTH 710 0
DWIDTH 29 0
BBX 24 38 4 -9
BITMAP
F0001E
F0003E
F0003C
F00078
F000F0
F001F0
F001E0
F003C0
F007C0
F00780
F00F00
F01E00
FFFE00
FFFC00
FFFC00
FFFE00
F01F00
F00F80
F007C0
F003E0
F001F0
F001F0
F000F8
F0007C
F0003C
F0003E
F0001E
F0001F
F0001F
00000F
00000F
00000F
00001F
00001F
0007FE
0007FE
0007FC
0003F0
ENDCHAR
STARTCHAR 04C4
ENCODING 1220
SWIDTH 587 0
DWIDTH 24 0
BBX 19 30 4 -8
BITMAP
F001E0
F003C0
F007C0
F00780
F00F00
F01E00
F03C00
F07C00
F07800
FFF000
FFF000
FFF800
F07C00
F03E00
F01F00
F00F00
F00780
F007C0
F003C0
F003E0
F001E0
F001E0
0001E0
0001E0
0001E0
0001E0
0063E0
007FC0
00FF80
003F00
ENDCHAR
STARTCHAR 04C6
ENCODING 1222
SWIDTH 661 0
DWIDTH 27 0
BBX 26 27 0 -5
BITMAP
03FFFC00
03FFFC00
03FFFC00
03803C00
03803C00
03803C00
07803C00
07803C00
07803C00
07803C00
07803C00
07803C00
07803C00
07803C00
07003C00
07003C00
0F003C00
0F003C00
1F003C00
FE003FC0
FE003F80
FC003F80
F8000780
00000700
00000700
00000700
00000F00
ENDCHAR
STARTCHAR 04C7
ENCODING 1223
SWIDTH 808 0
DWIDTH 33 0
BBX 25 38 4 -9
BITMAP
F0000780
F0000780
F0000780
F0000780
F0000780
F0000780
F0000780
F0000780
F0000780
F0000780
F0000780
F0000780
F0000780
FFFFFF80
FFFFFF80
FFFFFF80
FFFFFF80
F0000780
F0000780
F0000780
F0000780
F0000780
F0000780
F0000780
F0000780
F0000780
F0000780
F0000780
F0000780
00000780
00000780
00000780
00000780
00000F00
0003BF00
0003FE00
0007FC00
0001F800
ENDCHAR
STARTCHAR 04C8
ENCODING 1224
SWIDTH 685 0
DWIDTH 28 0
BBX 20 30 4 -8
BITMAP
F000F0
F000F0
F000F0
F000F0
F000F0
F000F0
F000F0
F000F0
F000F0
F000F0
FFFFF0
FFFFF0
FFFFF0
F000F0
F000F0
F000F0
F000F0
F000F0
F000F0
F000F0
F000F0
F000F0
0000F0
0000F0
0000F0
0000F0
0033F0
007FE0
007FC0
003F00
ENDCHAR
STARTCHAR 04C9
ENCODING 1225
SWIDTH 857 0
DWIDTH 35 0
BBX 29 35 4 -6
BITMAP
F8000780
F8000780
F8000780
F8000780
F8000780
F8000780
F8000780
F8000780
F8000780
F8000780
F8000780
F8000780
FFFFFF80
FFFFFF80
FFFFFF80
FFFFFF80
F8000780
F8000780
F8000780
F8000780
F8000780
F8000780
F8000780
F8000780
F8000780
F80007F8
F80007F8
F80007F8
F80007F0
000000F0
000000F0
000000E0
000000E0
000001E0
000001E0
ENDCHAR
STARTCHAR 04CA
ENCODING 1226
SWIDTH 710 0
DWIDTH 29 0
BBX 23 27 4 -5
BITMAP
F000F0
F000F0
F000F0
F000F0
F000F0
F000F0
F000F0
F000F0
F000F0
F000F0
FFFFF0
FFFFF0
FFFFF0
F000F0
F000F0
F000F0
F000F0
F000F0
F000F0
F000FE
F000FE
F000FE
00001C
00001C
00003C
000038
000038
ENDCHAR
STARTCHAR 04CB
ENCODING 1227
SWIDTH 734 0
DWIDTH 30 0
BBX 23 35 2 -6
BITMAP
F0001E
F0001E
F0001E
F0001E
F0001E
F0001E
F0001E
F0001E
F0001E
F0001E
F0001E
F8001E
78001E
7C001E
3F00FE
3FFFFE
1FFFFE
07FF9E
00701E
00001E
00001E
00001E
00001E
00001E
00001E
0003FE
0003FE
0003FE
0003FE
0003C0
0003C0
0003C0
0003C0
0003C0
0003C0
ENDCHAR
STARTCHAR 04CC
ENCODING 1228
SWIDTH 612 0
DWIDTH 25 0
BBX 19 27 2 -5
BITMAP
F001E0
F001E0
F001E0
F001E0
F001E0
F001E0
F001E0
F001E0
F001E0
F801E0
FC0FE0
7FFFE0
3FFFE0
0FF9E0
0001E0
0001E0
0001E0
0001E0
0001E0
001FE0
001FE0
001FE0
001E00
001E00
001E00
001E00
001E00
ENDCHAR
STARTCHAR 04CD
ENCODING 1229
SWIDTH 1004 0
DWIDTH 41 0
BBX 35 35 4 -6
BITMAP
F000001E00
F800001E00
F800003E00
FC00007E00
FC00007E00
FE0000FE00
FF0000FE00
FF0001FE00
F78001FE00
F78003DE00
F3C0079E00
F3E0079E00
F1E00F1E00
F0F00F1E00
F0F01E1E00
F0781C1E00
F0783C1E00
F03C781E00
F01E781E00
F01EF01E00
F00FF01E00
F00FE01E00
F007C01E00
F007C01E00
F003801E00
F001801FE0
F000001FE0
F000001FE0
F000001FC0
00000001C0
00000003C0
00000003C0
0000000380
0000000380
0000000780
ENDCHAR
STARTCHAR 04CE
ENCODING 1230
SWIDTH 832 0
DWIDTH 34 0
BBX 28 27 4 -5
BITMAP
F0000780
F8000F80
F8000F80
FC001F80
FC003F80
FE003F80
EF007F80
EF007780
E780F780
E781E780
E3C1C780
E1C3C780
E1E38780
E0F78780
E0F70780
E07F0780
E03E0780
E03C0780
E01C0780
E01807F0
E00007F0
E00007F0
000000E0
000000E0
000000E0
000001E0
000001C0
ENDCHAR
STARTCHAR 04CF
ENCODING 1231
SWIDTH 293 0
DWIDTH 12 0
BBX 4 30 4 0
BITMAP
F0
F0
F0
F0
F0
F0
F0
F0
F0
F0
F0
F0
F0
F0
F0
F0
F0
F0
F0
F0
F0
F0
F0
F0
F0
F0
F0
F0
F0
F0
ENDCHAR
STARTCHAR 04D0
ENCODING 1232
SWIDTH 759 0
DWIDTH 31 0
BBX 29 37 1 0
BITMAP
01C01800
00E03800
00E03800
00F8F800
007FF000
001FC000
00000000
00000000
000F8000
000F8000
001FC000
001FC000
003DE000
003DE000
0039E000
0078F000
0078F000
00F07800
00F07800
01E03C00
01E03C00
03C03E00
03C01E00
03C01E00
07800F00
07800F00
0F000F80
0FFFFF80
1FFFFFC0
1FFFFFC0
3E0003E0
3C0001E0
7C0001E0
780000F0
780000F0
F00000F8
F0000078
ENDCHAR
STARTCHAR 04D1
ENCODING 1233
SWIDTH 587 0
DWIDTH 24 0
BBX 19 30 2 0
BITMAP
1C0700
0E0700
0F0F00
07FE00
03F800
000000
000000
000000
07F800
1FFF00
7FFF80
7F3FC0
3007C0
0003C0
0001E0
0001E0
0001E0
03FFE0
1FFFE0
7FFFE0
7C01E0
F001E0
F001E0
F001E0
F003E0
F807E0
7C1FE0
7FFFE0
3FF9E0
07E1E0
ENDCHAR
STARTCHAR 04D2
ENCODING 1234
SWIDTH 759 0
DWIDTH 31 0
BBX 29 36 1 0
BITMAP
00707000
0078F000
0078F000
00707000
00000000
00000000
00000000
000F8000
000F8000
001FC000
001FC000
003DE000
003DE000
0039E000
0078F000
0078F000
00F07800
00F07800
01E03C00
01E03C00
03C03E00
03C01E00
03C01E00
07800F00
07800F00
0F000F80
0FFFFF80
1FFFFFC0
1FFFFFC0
3E0003E0
3C0001E0
7C0001E0
780000F0
780000F0
F00000F8
F0000078
ENDCHAR
STARTCHAR 04D3
ENCODING 1235
SWIDTH 587 0
DWIDTH 24 0
BBX 19 30 2 0
BITMAP
060E00
0F0F00
0F0F00
0F0E00
000000
000000
000000
000000
07F800
1FFF00
7FFF80
7F3FC0
3007C0
0003C0
0001E0
0001E0
0001E0
03FFE0
1FFFE0
7FFFE0
7C01E0
F001E0
F001E0
F001E0
F003E0
F807E0
7C1FE0
7FFFE0
3FF9E0
07E1E0
ENDCHAR
STARTCHAR 04D4
ENCODING 1236
SWIDTH 1053 0
DWIDTH 43 0
BBX 40 29 1 0
BITMAP
0000FFFFFE
0001FFFFFE
0001FFFFFE
0003FFFFFE
0003DE0000
00079E0000
000F9E0000
000F1E0000
001E1E0000
001E1E0000
003C1E0000
003C1E0000
00781E0000
00F81FFFF8
00F01FFFF8
01E01FFFF8
01E01E0000
03C01E0000
07C01E0000
07FFFE0000
0FFFFE0000
0FFFFE0000
1E001E0000
1E001E0000
3C001E0000
7C001FFFFF
78001FFFFF
F0001FFFFF
F0001FFFFF
ENDCHAR
STARTCHAR 04D5
ENCODING 1237
SWIDTH 1004 0
DWIDTH 41 0
BBX 37 22 2 0
BITMAP
07F801F800
1FFE0FFF00
7FFF9FFF80
7F3FBF9FC0
3007FC03E0
0003F801E0
0001F000F0
0001E000F0
0001E00070
03FFFFFFF8
1FFFFFFFF8
7FFFFFFFF8
7C01E00000
F001E00000
F001F00000
F001F00000
F003F80080
F807FC01C0
7C0F3FCFE0
7FFF1FFFC0
1FFC0FFF80
07F001FC00
ENDCHAR
STARTCHAR 04D6
ENCODING 1238
SWIDTH 661 0
DWIDTH 27 0
BBX 21 37 4 0
BITMAP
0C01C0
0E0180
0E0380
0F8F80
07FF00
01FC00
000000
000000
FFFFF8
FFFFF8
FFFFF8
FFFFF8
F80000
F80000
F80000
F80000
F80000
F80000
F80000
F80000
F80000
FFFFE0
FFFFE0
FFFFE0
F80000
F80000
F80000
F80000
F80000
F80000
F80000
F80000
F80000
FFFFF8
FFFFF8
FFFFF8
FFFFF8
ENDCHAR
STARTCHAR 04D7
ENCODING 1239
SWIDTH 636 0
DWIDTH 26 0
BBX 21 30 2 0
BITMAP
0E0380
0E0380
078700
03FF00
01FC00
000000
000000
000000
01FC00
07FF00
0FFFC0
3F8FE0
3C01F0
7800F0
780078
F00078
F00078
FFFFF8
FFFFF8
FFFFF8
F00000
F00000
F00000
780000
7C0040
3E00E0
1FEFF0
0FFFE0
07FFC0
00FE00
ENDCHAR
STARTCHAR 04D8
ENCODING 1240
SWIDTH 832 0
DWIDTH 34 0
BBX 29 31 2 -1
BITMAP
003FC000
01FFF800
07FFFE00
0FFFFF00
3FC03F80
1F000FC0
0E0003E0
000001F0
000001F0
000000F0
000000F8
00000078
00000078
00000078
FFFFFFF8
FFFFFFF8
FFFFFFF8
F0000078
F0000078
F0000078
F8000078
780000F8
7C0000F0
7C0001F0
3E0003E0
1F0007C0
0FC01F80
07FFFF00
03FFFE00
00FFF800
003FC000
ENDCHAR
STARTCHAR 04D9
ENCODING 1241
SWIDTH 636 0
DWIDTH 26 0
BBX 22 22 2 0
BITMAP
01FC00
0FFF80
1FFFC0
3FBFE0
3C03F0
1000F0
000078
000078
00003C
00003C
FFFFFC
FFFFFC
FFFFFC
F0003C
700038
780078
7C00F8
3E01F0
1FCFE0
0FFFC0
07FF80
01FC00
ENDCHAR
STARTCHAR 04DA
ENCODING 1242
SWIDTH 832 0
DWIDTH 34 0
BBX 29 38 2 -1
BITMAP
00307000
00787800
00787800
00787000
00000000
00000000
00000000
003FC000
01FFF800
07FFFE00
0FFFFF00
3FC03F80
1F000FC0
0E0003E0
000001F0
000001F0
000000F0
000000F8
00000078
00000078
00000078
FFFFFFF8
FFFFFFF8
FFFFFFF8
F0000078
F0000078
F0000078
F8000078
780000F8
7C0000F0
7C0001F0
3E0003E0
1F0007C0
0FC01F80
07FFFF00
03FFFE00
00FFF800
003FC000
ENDCHAR
STARTCHAR 04DB
ENCODING 1243
SWIDTH 636 0
DWIDTH 26 0
BBX 22 30 2 0
BITMAP
038300
078780
078780
038700
000000
000000
000000
000000
01FC00
0FFF80
1FFFC0
3FBFE0
3C03F0
1000F0
000078
000078
00003C
00003C
FFFFFC
FFFFFC
FFFFFC
F0003C
700038
780078
7C00F8
3E01F0
1FCFE0
0FFFC0
07FF80
01FC00
ENDCHAR
STARTCHAR 04DC
ENCODING 1244
SWIDTH 1028 0
DWIDTH 42 0
BBX 40 36 1 0
BITMAP
0001C38000
0003C3C000
0003C3C000
0001C38000
0000000000
0000000000
0000000000
78003C001E
7C003C003E
3C003C003C
1E003C0078
1F003C00F8
0F003C00F0
07803C01E0
07803C01E0
03C03C03C0
03E03C07C0
01E03C0780
00F03C0F00
00FFFFFF00
007FFFFE00
007FFFFE00
00FFFFFF00
01F03C0F00
01F03C0F80
03E03C07C0
03C03C03C0
07C03C03E0
0F803C01F0
0F803C01F0
1F003C00F8
1E003C0078
3E003C007C
7C003C003E
78003C001E
F8003C001F
ENDCHAR
STARTCHAR 04DD
ENCODING 1245
SWIDTH 857 0
DWIDTH 35 0
BBX 33 30 1 0
BITMAP
001C180000
001E3C0000
003E3C0000
001C3C0000
0000000000
0000000000
0000000000
0000000000
F803C00F00
7803C01F00
3C03C01E00
3C03C03C00
1E03C03C00
0F03C07800
0F03C0F800
0783C0F000
0783C1E000
03C3C1E000
01FFFFC000
01FFFFC000
03FFFFE000
07C3C1E000
0783C1F000
0F03C0F800
1F03C07800
1E03C07C00
3C03C03E00
7C03C01E00
7803C01F00
F803C00F80
ENDCHAR
STARTCHAR 04DE
ENCODING 1246
SWIDTH 636 0
DWIDTH 26 0
BBX 23 38 1 -1
BITMAP
01C180
03C3C0
03C3C0
01C380
000000
000000
000000
03FE00
1FFF80
7FFFE0
3FFFF0
3801F8
2000F8
000078
00007C
00003C
00003C
000078
000078
0000F8
0007F0
03FFE0
03FFC0
03FFF0
0001F8
00007C
00003C
00001E
00001E
00001E
00003E
00003E
60007C
7800FC
FFFFF8
3FFFF0
0FFFC0
01FE00
ENDCHAR
STARTCHAR 04DF
ENCODING 1247
SWIDTH 538 0
DWIDTH 22 0
BBX 19 32 1 -1
BITMAP
060E00
0F0F00
0F1F00
0F0E00
000000
000000
000000
000000
07F800
3FFF00
7FFF80
7F3FC0
3007C0
0003C0
0003C0
0003C0
0003C0
000780
03FF00
03FE00
03FF80
0007C0
0003E0
0001E0
0001E0
0001E0
4003E0
7007E0
7E3FC0
FFFF80
3FFF00
07F800
ENDCHAR
STARTCHAR 04E0
ENCODING 1248
SWIDTH 612 0
DWIDTH 25 0
BBX 22 30 1 -1
BITMAP
7FFFF8
7FFFF8
7FFFF8
0000F8
0001F0
0001E0
0003C0
000780
000F00
001F00
001E00
003C00
007800
00FF80
00FFE0
00FFF0
0003F8
00007C
00003C
00003C
00003C
00003C
00003C
00003C
70007C
7C00F8
FFFFF8
7FFFF0
1FFFC0
03FE00
ENDCHAR
STARTCHAR 04E1
ENCODING 1249
SWIDTH 538 0
DWIDTH 22 0
BBX 21 31 -1 -9
BITMAP
7FFFF0
7FFFF0
7FFFF0
0001E0
0003E0
0003C0
000780
000F00
001F00
001E00
003C00
007800
00F800
00FE00
00FFC0
00FFE0
0007F0
0001F0
0000F8
000078
000078
000078
000078
000078
400078
7000F0
FC01F0
7FFFE0
3FFFC0
1FFF80
03FC00
ENDCHAR
STARTCHAR 04E2
ENCODING 1250
SWIDTH 832 0
DWIDTH 34 0
BBX 25 35 4 0
BITMAP
03FFE000
03FFE000
00000000
00000000
00000000
00000000
F0000780
F0000F80
F0000F80
F0001F80
F0003F80
F0007F80
F000FF80
F000FF80
F001F780
F003E780
F007C780
F0078780
F00F8780
F01F0780
F03E0780
F03C0780
F07C0780
F0F80780
F1F00780
F1E00780
F3E00780
F7C00780
FF800780
FF000780
FF000780
FE000780
FC000780
F8000780
F8000780
ENDCHAR
STARTCHAR 04E3
ENCODING 1251
SWIDTH 685 0
DWIDTH 28 0
BBX 21 29 4 0
BITMAP
1FFF80
1FFF80
000000
000000
000000
000000
000000
F00078
F000F8
F001F8
F003F8
F007F8
F00FF8
F00F78
F01E78
F03E78
F07C78
F0F878
F1F078
F1E078
F3C078
F7C078
FF8078
FF0078
FE0078
FC0078
F80078
F80078
F00078
ENDCHAR
STARTCHAR 04E4
ENCODING 1252
SWIDTH 832 0
DWIDTH 34 0
BBX 25 36 4 0
BITMAP
01E1C000
01E3E000
01E1E000
00C1C000
00000000
00000000
00000000
F0000780
F0000F80
F0000F80
F0001F80
F0003F80
F0007F80
F000FF80
F000FF80
F001F780
F003E780
F007C780
F0078780
F00F8780
F01F0780
F03E0780
F03C0780
F07C0780
F0F80780
F1F00780
F1E00780
F3E00780
F7C00780
FF800780
FF000780
FF000780
FE000780
FC000780
F8000780
F8000780
ENDCHAR
STARTCHAR 04E5
ENCODING 1253
SWIDTH 685 0
DWIDTH 28 0
BBX 21 30 4 0
BITMAP
060E00
0F0F00
0F0F00
070E00
000000
000000
000000
000000
F00078
F000F8
F001F8
F003F8
F007F8
F00FF8
F00F78
F01E78
F03E78
F07C78
F0F878
F1F078
F1E078
F3C078
F7C078
FF8078
FF0078
FE0078
FC0078
F80078
F80078
F00078
ENDCHAR
STARTCHAR 04E6
ENCODING 1254
SWIDTH 857 0
DWIDTH 35 0
BBX 30 38 2 -1
BITMAP
00383000
003C7800
007C7800
00387800
00000000
00000000
00000000
001FE000
007FFC00
01FFFF00
07FFFF80
0FE00FC0
1F8007E0
1F0001F0
3E0000F8
3C0000F8
7C000078
7800007C
7800003C
F800003C
F000003C
F000003C
F000003C
F000003C
F000003C
F800003C
7800003C
7800007C
7C000078
3C0000F8
3E0000F0
1F0001F0
1F8003E0
0FE00FC0
07FFFF80
01FFFF00
00FFFC00
001FE000
ENDCHAR
STARTCHAR 04E7
ENCODING 1255
SWIDTH 636 0
DWIDTH 26 0
BBX 22 30 2 0
BITMAP
038300
078780
078780
038700
000000
000000
000000
000000
00FE00
07FF80
0FFFE0
1FCFF0
3E01F0
7C00F8
780078
F8003C
F0003C
F0003C
F0003C
F0003C
F0003C
F0003C
F8003C
780078
7C00F8
3E01F0
1FCFE0
0FFFC0
07FF80
01FE00
ENDCHAR
STARTCHAR 04E8
ENCODING 1256
SWIDTH 857 0
DWIDTH 35 0
BBX 30 31 2 -1
BITMAP
001FE000
007FFC00
01FFFF00
07FFFF80
0FE00FC0
1F8007E0
1F0001F0
3E0000F8
3C0000F8
7C000078
7800007C
7800003C
F800003C
F000003C
FFFFFFFC
FFFFFFFC
FFFFFFFC
F000003C
F800003C
7800003C
7800007C
7C000078
3C0000F8
3E0000F0
1F0001F0
1F8003E0
0FE00FC0
07FFFF80
01FFFF00
00FFFC00
001FE000
ENDCHAR
STARTCHAR 04E9
ENCODING 1257
SWIDTH 661 0
DWIDTH 27 0
BBX 23 22 2 0
BITMAP
00FE00
07FF80
0FFFE0
1F83F0
3E00F8
78007C
78003C
F0003C
F0001E
FFFFFE
FFFFFE
FFFFFE
F0001E
F0001C
F0003C
78003C
7C0078
3E00F8
1F87F0
0FFFE0
07FF80
00FE00
ENDCHAR
STARTCHAR 04EA
ENCODING 1258
SWIDTH 857 0
DWIDTH 35 0
BBX 30 38 2 -1
BITMAP
00383000
003C7800
007C7800
00387800
00000000
00000000
00000000
001FE000
007FFC00
01FFFF00
07FFFF80
0FE00FC0
1F8007E0
1F0001F0
3E0000F8
3C0000F8
7C000078
7800007C
7800003C
F800003C
F000003C
FFFFFFFC
FFFFFFFC
FFFFFFFC
F000003C
F800003C
7800003C
7800007C
7C000078
3C0000F8
3E0000F0
1F0001F0
1F8003E0
0FE00FC0
07FFFF80
01FFFF00
00FFFC00
001FE000
ENDCHAR
STARTCHAR 04EB
ENCODING 1259
SWIDTH 661 0
DWIDTH 27 0
BBX 23 30 2 0
BITMAP
038300
078780
07C780
038780
000000
000000
000000
000000
00FE00
07FF80
0FFFE0
1F83F0
3E00F8
78007C
78003C
F0003C
F0001E
FFFFFE
FFFFFE
FFFFFE
F0001E
F0001C
F0003C
78003C
7C0078
3E00F8
1F87F0
0FFFE0
07FF80
00FE00
ENDCHAR
STARTCHAR 04EC
ENCODING 1260
SWIDTH 710 0
DWIDTH 29 0
BBX 26 38 1 -1
BITMAP
01C18000
03C3C000
03C3C000
01C38000
00000000
00000000
00000000
01FE0000
0FFFC000
1FFFF000
7FFFF800
FE01FC00
78007E00
30003E00
00001F00
00000F00
00000F80
00000780
00000780
000007C0
000007C0
00FFFFC0
00FFFFC0
00FFFFC0
000007C0
00000780
00000780
00000780
00000F80
00000F00
00001F00
30003E00
78007E00
FE01FC00
7FFFF800
3FFFE000
0FFFC000
01FE0000
ENDCHAR
STARTCHAR 04ED
ENCODING 1261
SWIDTH 563 0
DWIDTH 23 0
BBX 21 31 1 -1
BITMAP
060E00
0F0F00
0F1F00
0F0E00
000000
000000
000000
000000
07F800
1FFE00
7FFF80
FC1FC0
7007E0
2001E0
0001F0
0000F0
000070
000078
03FFF8
03FFF8
03FFF8
000078
000070
0000F0
0000F0
2001E0
7003E0
FE1FC0
7FFF80
3FFE00
07F800
ENDCHAR
STARTCHAR 04EE
ENCODING 1262
SWIDTH 685 0
DWIDTH 28 0
BBX 27 36 1 -1
BITMAP
03FFF000
03FFF000
00000000
00000000
00000000
00000000
F00001E0
F80003C0
780003C0
7C000780
3C000700
3E000F00
1E001E00
1F001E00
0F003C00
07803C00
07807800
03C07800
03C0F000
01E0F000
01E1E000
00F1E000
00F3C000
007BC000
007F8000
003F8000
003F0000
001F0000
001E0000
003E0000
003C0000
00780000
1FF80000
1FF00000
3FE00000
1F800000
ENDCHAR
STARTCHAR 04EF
ENCODING 1263
SWIDTH 563 0
DWIDTH 23 0
BBX 23 37 0 -8
BITMAP
0FFFC0
0FFFC0
000000
000000
000000
000000
000000
F0001E
78001C
78003C
3C003C
3C0078
1E0078
1E00F0
1F00F0
0F00E0
0F01E0
0781E0
0783C0
03C3C0
03C780
01E780
01E700
01EF00
00FE00
00FE00
007E00
007C00
003C00
007800
007800
00F000
40F000
F3E000
FFE000
FFC000
3F0000
ENDCHAR
STARTCHAR 04F0
ENCODING 1264
SWIDTH 685 0
DWIDTH 28 0
BBX 27 37 1 -1
BITMAP
00E1C000
01E1E000
01E1E000
00C1C000
00000000
00000000
00000000
F00001E0
F80003C0
780003C0
7C000780
3C000700
3E000F00
1E001E00
1F001E00
0F003C00
07803C00
07807800
03C07800
03C0F000
01E0F000
01E1E000
00F1E000
00F3C000
007BC000
007F8000
003F8000
003F0000
001F0000
001E0000
003E0000
003C0000
00780000
1FF80000
1FF00000
3FE00000
1F800000
ENDCHAR
STARTCHAR 04F1
ENCODING 1265
SWIDTH 563 0
DWIDTH 23 0
BBX 23 38 0 -8
BITMAP
038300
078780
078780
038700
000000
000000
000000
000000
F0001E
78001C
78003C
3C003C
3C0078
1E0078
1E00F0
1F00F0
0F00E0
0F01E0
0781E0
0783C0
03C3C0
03C780
01E780
01E700
01EF00
00FE00
00FE00
007E00
007C00
003C00
007800
007800
00F000
40F000
F3E000
FFE000
FFC000
3F0000
ENDCHAR
STARTCHAR 04F2
ENCODING 1266
SWIDTH 685 0
DWIDTH 28 0
BBX 27 37 1 -1
BITMAP
001E3C00
003C7800
00787000
0070E000
00E1E000
00000000
00000000
F00001E0
F80003C0
780003C0
7C000780
3C000700
3E000F00
1E001E00
1F001E00
0F003C00
07803C00
07807800
03C07800
03C0F000
01E0F000
01E1E000
00F1E000
00F3C000
007BC000
007F8000
003F8000
003F0000
001F0000
001E0000
003E0000
003C0000
00780000
1FF80000
1FF00000
3FE00000
1F800000
ENDCHAR
STARTCHAR 04F3
ENCODING 1267
SWIDTH 563 0
DWIDTH 23 0
BBX 23 38 0 -8
BITMAP
0078F0
00F1E0
00E1C0
01C3C0
03C780
000000
000000
000000
F0001E
78001C
78003C
3C003C
3C0078
1E0078
1E00F0
1F00F0
0F00E0
0F01E0
0781E0
0783C0
03C3C0
03C780
01E780
01E700
01EF00
00FE00
00FE00
007E00
007C00
003C00
007800
007800
00F000
40F000
F3E000
FFE000
FFC000
3F0000
ENDCHAR
STARTCHAR 04F4
ENCODING 1268
SWIDTH 734 0
DWIDTH 30 0
BBX 24 36 2 0
BITMAP
01C380
03C3C0
03C3C0
018380
000000
000000
000000
F0000F
F0000F
F0000F
F0000F
F0000F
F0000F
F0000F
F0000F
F0000F
F0000F
F0000F
F8000F
78000F
7C000F
7E007F
3FFFFF
1FFFFF
07FFEF
01FE0F
00000F
00000F
00000F
00000F
00000F
00000F
00000F
00000F
00000F
00000F
ENDCHAR
STARTCHAR 04F5
ENCODING 1269
SWIDTH 612 0
DWIDTH 25 0
BBX 19 30 2 0
BITMAP
0E0C00
1E1E00
1F1E00
0E1E00
000000
000000
000000
000000
F001E0
F001E0
F001E0
F001E0
F001E0
F001E0
F001E0
F001E0
F001E0
F001E0
F801E0
7E1FE0
7FFFE0
3FFFE0
0FF1E0
0001E0
0001E0
0001E0
0001E0
0001E0
0001E0
0001E0
ENDCHAR
STARTCHAR 04F6
ENCODING 1270
SWIDTH 587 0
DWIDTH 24 0
BBX 19 35 4 -6
BITMAP
FFFFE0
FFFFE0
FFFFE0
FFFFE0
F00000
F00000
F00000
F00000
F00000
F00000
F00000
F00000
F00000
F00000
F00000
F00000
F00000
F00000
F00000
F00000
F00000
F00000
F00000
F00000
F00000
FF8000
FF8000
FF8000
FF8000
078000
078000
078000
078000
078000
078000
ENDCHAR
STARTCHAR 04F7
ENCODING 1271
SWIDTH 489 0
DWIDTH 20 0
BBX 16 27 4 -5
BITMAP
FFFF
FFFF
FFFF
F000
F000
F000
F000
F000
F000
F000
F000
F000
F000
F000
F000
F000
F000
F000
F000
FE00
FE00
FE00
1E00
1E00
1E00
1E00
1E00
ENDCHAR
STARTCHAR 04F8
ENCODING 1272
SWIDTH 1004 0
DWIDTH 41 0
BBX 32 36 4 0
BITMAP
001C1C00
003E3C00
001E3C00
001C1800
00000000
00000000
00000000
F000000F
F000000F
F000000F
F000000F
F000000F
F000000F
F000000F
F000000F
F000000F
F000000F
FFFF800F
FFFFF00F
FFFFF80F
F003FC0F
F0007E0F
F0003E0F
F0001E0F
F0001E0F
F0001F0F
F0001F0F
F0001E0F
F0001E0F
F0001E0F
F0003E0F
F0007C0F
F003FC0F
FFFFF80F
FFFFE00F
FFFF000F
ENDCHAR
STARTCHAR 04F9
ENCODING 1273
SWIDTH 808 0
DWIDTH 33 0
BBX 25 30 4 0
BITMAP
00E1C000
01E1E000
01E1E000
00E1C000
00000000
00000000
00000000
00000000
F0000780
F0000780
F0000780
F0000780
F0000780
F0000780
F0000780
FFF00780
FFFE0780
FFFF0780
F01F8780
F007C780
F003C780
F003C780
F003C780
F003C780
F003C780
F0078780
F00F8780
FFFF0780
FFFE0780
FFF80780
ENDCHAR
ENDFONT
